<?xml version="1.0" standalone="no"?>
<!DOCTYPE svg PUBLIC "-//W3C//DTD SVG 20010904//EN"
 "http://www.w3.org/TR/2001/REC-SVG-20010904/DTD/svg10.dtd">
<svg version="1.0" xmlns="http://www.w3.org/2000/svg"
 width="300.000000pt" height="189.000000pt" viewBox="0 0 300.000000 189.000000"
 preserveAspectRatio="xMidYMid meet">
<metadata>
Created by potrace 1.10, written by Peter Selinger 2001-2011
</metadata>
<g transform="translate(0.000000,189.000000) scale(0.100000,-0.100000)"
fill="#000000" stroke="none">
<path d="M1455 1696 c-51 -24 -161 -123 -199 -180 -20 -30 -77 -134 -126 -231
-104 -204 -108 -225 -60 -318 17 -32 30 -63 30 -68 0 -6 -55 -37 -123 -69
-118 -56 -187 -108 -187 -143 0 -7 -4 -19 -10 -27 -7 -12 -12 -11 -30 5 -12
11 -40 20 -73 23 -66 5 -101 -19 -103 -70 -1 -18 -2 -40 -3 -48 -1 -13 -21
-14 -134 -12 -154 4 -207 -6 -232 -45 -12 -18 -27 -91 -45 -213 -15 -103 -31
-197 -35 -209 -17 -54 64 -86 137 -53 35 15 49 29 66 66 19 40 26 46 55 48 17
1 57 3 87 5 100 8 113 6 130 -15 16 -20 17 -20 28 12 16 44 17 42 -29 38 l-42
-4 7 35 c24 127 53 403 44 414 -8 10 3 13 50 13 78 0 94 -13 81 -71 -6 -23
-12 -46 -15 -51 -3 -4 6 -8 19 -8 22 0 29 11 63 102 l38 101 133 64 c74 34
138 63 143 63 5 0 13 7 18 16 7 13 14 10 43 -18 19 -18 58 -55 87 -82 76 -70
55 -70 -25 0 -71 63 -75 57 -18 -31 19 -30 32 -55 28 -55 -4 0 -36 28 -70 62
-34 34 -65 59 -68 56 -3 -3 4 -27 15 -53 11 -26 18 -50 16 -52 -3 -3 -26 11
-52 31 -26 20 -49 34 -51 32 -2 -2 26 -45 63 -95 67 -93 82 -135 23 -65 -42
49 -152 154 -162 154 -8 0 36 -74 61 -103 27 -30 6 -29 -52 3 -31 18 -56 29
-56 26 0 -4 14 -31 31 -62 46 -81 28 -77 -21 5 -23 39 -47 71 -52 71 -6 0 -7
-7 -4 -16 3 -9 6 -46 6 -84 l0 -68 36 -7 36 -6 -5 -57 c-2 -31 -9 -76 -16 -99
-6 -23 -12 -62 -12 -87 -1 -25 -5 -50 -9 -56 -7 -11 -120 -28 -120 -18 0 2 4
29 10 59 5 30 12 76 15 102 2 27 7 52 10 57 3 4 -6 10 -20 12 -30 6 -31 1 -8
-25 17 -20 17 -20 -2 -13 -51 20 -51 20 -79 -54 -14 -39 -26 -78 -26 -87 0 -9
-8 -26 -19 -37 -18 -20 -45 -86 -38 -93 7 -7 88 102 93 126 3 14 12 42 19 61
l14 35 0 -62 c1 -34 4 -69 7 -78 11 -29 60 -43 112 -33 25 4 55 5 66 2 11 -4
110 -7 221 -8 175 -1 203 -3 227 -19 25 -18 27 -18 45 3 18 18 53 162 53 213
0 11 5 17 13 14 12 -4 12 -37 1 -124 -4 -37 -2 -45 31 -77 20 -20 44 -36 54
-36 10 0 42 22 70 48 38 36 51 56 52 78 0 16 6 52 13 79 12 49 13 49 8 -35 -4
-75 -2 -88 16 -110 18 -22 30 -26 99 -30 43 -3 104 -2 135 2 33 5 69 3 83 -2
15 -6 70 -10 125 -10 94 0 98 -1 115 -26 23 -35 29 -24 14 24 l-12 40 -123 4
c-76 2 -127 7 -135 15 -9 9 -7 40 5 132 21 151 27 167 65 176 35 8 35 7 18 57
-19 54 -23 54 -36 2 -7 -25 -18 -53 -26 -61 -8 -8 -15 -25 -15 -38 0 -35 -36
-55 -100 -55 l-55 0 -2 -56 c-1 -35 -7 -60 -15 -65 -8 -5 18 -9 65 -9 l77 0
-4 -36 c-3 -20 -10 -42 -16 -48 -15 -15 -225 -15 -240 0 -8 8 -7 37 4 107 9
53 16 100 16 104 0 5 -21 7 -46 5 l-45 -4 7 38 c8 50 13 54 62 61 40 5 40 5
45 57 4 40 2 54 -11 64 -14 11 -7 13 52 11 l68 -2 34 44 c18 24 34 47 34 52 0
4 -18 -2 -41 -13 -23 -12 -43 -20 -45 -18 -2 2 -7 22 -12 44 l-8 39 -34 -62
c-19 -35 -38 -63 -42 -63 -12 0 -10 7 18 61 14 28 23 53 20 56 -2 3 -33 -18
-67 -46 -35 -28 -65 -48 -67 -46 -3 2 19 31 48 65 63 73 53 79 -15 10 -59 -60
-80 -66 -33 -9 18 22 47 63 65 91 21 35 32 45 35 33 2 -10 60 -46 152 -94
l149 -76 38 -95 37 -95 108 -5 c60 -3 115 -9 122 -13 14 -10 16 -53 2 -62 -5
-3 -9 -20 -8 -38 1 -44 -13 -157 -23 -184 -6 -17 -17 -23 -39 -23 -33 0 -35
-3 -19 -49 12 -35 29 -41 29 -11 0 20 5 21 108 19 250 -3 279 -1 307 24 29 25
48 96 60 229 12 136 -13 152 -224 144 -80 -3 -157 -6 -171 -7 -14 0 -70 3
-125 8 l-100 8 -35 81 c-19 45 -42 90 -50 99 -8 10 -74 47 -147 82 -72 36
-134 70 -136 77 -3 6 6 39 20 71 39 95 32 136 -68 365 -76 177 -89 200 -139
250 -106 107 -151 131 -205 106z m142 -96 l80 -69 73 -168 c106 -245 113 -267
106 -307 -12 -62 -85 -194 -143 -257 -31 -33 -58 -57 -61 -54 -3 3 17 29 46
58 36 36 59 72 77 117 30 75 30 82 9 144 -9 26 -14 49 -11 52 3 3 19 -2 36
-11 17 -9 31 -11 31 -5 0 5 -4 10 -10 10 -5 0 -17 8 -27 19 -20 21 -280 131
-310 131 -10 0 -49 -10 -86 -23 -68 -22 -68 -23 -142 -127 -72 -100 -75 -106
-75 -161 0 -67 12 -85 106 -159 36 -29 63 -55 60 -58 -7 -7 -102 67 -147 115
-33 34 -37 45 -42 107 -4 37 -9 71 -13 75 -4 3 -4 -25 -1 -64 6 -64 5 -68 -9
-50 -24 31 -74 133 -74 150 0 27 201 412 237 455 56 65 162 150 187 150 14 0
54 -27 103 -70z m-40 -391 c36 -15 55 -23 126 -53 49 -21 57 -29 57 -52 0 -15
5 -44 12 -66 16 -55 -11 -139 -62 -193 -46 -49 -63 -81 -53 -99 20 -34 76 -70
107 -68 35 3 33 8 27 -100 -1 -24 -63 -40 -101 -26 -24 8 -30 16 -30 38 0 40
-17 79 -36 87 -24 9 -50 -26 -58 -77 -6 -40 -7 -41 -44 -38 -34 3 -37 6 -43
41 -3 21 -16 48 -28 60 l-22 22 -20 -24 c-11 -14 -19 -38 -19 -61 0 -51 -21
-67 -64 -52 -18 7 -49 12 -70 12 -35 0 -38 3 -61 52 -30 66 -21 85 31 61 31
-15 35 -15 52 0 10 9 25 17 33 17 22 0 79 38 79 53 0 7 -31 44 -70 82 -68 67
-70 71 -70 119 0 49 12 73 104 200 42 58 156 92 223 65z m-132 -624 l0 -65 78
0 77 0 0 53 c0 57 8 97 20 97 4 0 5 -34 2 -75 l-5 -75 35 0 c51 0 72 -19 59
-53 -6 -15 -8 -34 -4 -42 8 -23 -17 -203 -31 -214 -6 -5 -20 -11 -31 -13 -12
-2 -21 -13 -23 -26 -4 -30 -22 -28 -22 2 0 19 -4 23 -20 19 -26 -7 -26 10 5
195 l6 32 -61 0 c-34 0 -59 -4 -56 -8 2 -4 -2 -50 -10 -102 -8 -52 -14 -110
-14 -127 0 -23 -4 -33 -15 -33 -9 0 -15 9 -15 23 0 22 -3 23 -62 19 -62 -4
-63 -4 -46 15 12 13 24 62 37 152 11 74 23 137 28 141 4 5 17 10 27 12 17 3
19 11 17 83 -2 66 0 78 11 67 8 -8 13 -37 13 -77z m-343 8 c29 -26 22 -33 -32
-33 -38 0 -50 4 -50 15 0 8 9 15 19 15 11 0 23 5 26 10 9 14 16 13 37 -7z
m-527 -83 c24 -9 26 -14 21 -43 -3 -17 -8 -52 -11 -76 -16 -125 -25 -175 -35
-185 -6 -6 -55 -12 -118 -13 l-107 -1 -5 -46 c-8 -62 -25 -77 -101 -83 -63 -6
-64 -6 -47 14 13 14 25 72 44 214 22 161 30 197 46 212 17 14 41 17 153 17 74
0 146 -5 160 -10z m761 -2 c4 -4 2 -45 -5 -90 -6 -46 -14 -108 -17 -138 -8
-81 -14 -84 -160 -89 -69 -1 -141 0 -161 4 l-36 6 6 73 c4 41 11 85 16 99 10
26 12 26 121 29 60 2 110 7 110 11 0 4 -45 9 -99 10 -55 1 -102 5 -106 9 -4 3
-9 25 -12 48 l-6 41 171 -3 c94 -2 174 -6 178 -10z m1477 -1 c17 -12 17 -20
-2 -149 -11 -76 -22 -142 -25 -147 -10 -15 -97 -25 -115 -14 -9 6 -25 7 -36 2
-24 -9 -79 -11 -88 -3 -3 3 2 27 12 53 21 53 35 171 21 171 -9 0 -12 -12 -31
-135 -5 -38 -14 -74 -19 -79 -5 -5 -34 -11 -65 -14 -55 -4 -69 4 -41 27 7 6
16 35 20 64 19 154 30 209 43 223 19 19 300 21 326 1z m-781 -152 c-3 -20 -10
-25 -33 -25 -24 0 -29 4 -29 25 0 22 4 25 34 25 30 0 33 -2 28 -25z"/>
<path d="M1510 1586 c0 -24 -3 -51 -6 -59 -6 -15 0 -17 89 -32 20 -3 37 -10
37 -15 0 -4 -8 -7 -17 -5 -10 2 -37 6 -60 8 l-43 5 0 -78 0 -79 35 -12 c36
-14 50 -36 15 -25 -11 3 -29 9 -40 12 -14 5 -20 2 -20 -10 0 -9 2 -16 4 -16 2
0 64 -25 137 -55 115 -48 129 -52 109 -30 -13 14 -21 27 -18 30 2 3 17 -9 33
-25 16 -17 32 -30 36 -30 4 0 -9 37 -30 83 -21 45 -55 123 -75 172 -35 82 -44
95 -106 148 -37 31 -71 57 -74 57 -3 0 -6 -20 -6 -44z m174 -224 c40 -94 45
-122 19 -122 -32 0 -103 35 -103 50 0 8 -11 27 -25 42 -18 20 -25 38 -25 67 0
42 -1 42 65 54 28 5 29 3 69 -91z"/>
<path d="M1486 1598 c-3 -13 -6 -33 -6 -45 0 -12 -10 -29 -22 -38 l-23 -16 25
3 c22 3 26 10 33 57 8 56 4 79 -7 39z"/>
<path d="M1455 1470 c-19 -8 -19 -9 3 -9 20 -1 22 -6 22 -58 0 -71 5 -66 14
15 7 66 4 70 -39 52z"/>
<path d="M1385 1275 c-93 -40 -86 -44 20 -13 44 13 75 27 75 35 0 18 -4 17
-95 -22z"/>
<path d="M1243 1153 c-34 -43 -57 -83 -51 -89 3 -2 24 24 47 57 48 67 50 91 4
32z"/>
<path d="M332 373 c-2 -25 -7 -54 -13 -65 -9 -17 -5 -18 50 -18 l59 0 6 38 c4
20 9 49 12 65 6 27 6 27 -53 27 l-58 0 -3 -47z"/>
<path d="M1055 300 c-4 -6 18 -10 59 -10 37 0 66 4 66 10 0 6 -26 10 -59 10
-33 0 -63 -4 -66 -10z"/>
<path d="M2652 331 c-7 -48 -12 -95 -12 -102 1 -30 28 50 35 102 3 30 9 62 11
72 3 10 0 17 -9 17 -9 0 -17 -25 -25 -89z"/>
<path d="M2026 632 c-57 -98 -74 -102 -22 -6 20 37 34 70 31 72 -2 2 -24 -12
-48 -32 -38 -31 -45 -43 -51 -85 -4 -27 -12 -52 -19 -54 -6 -3 25 -6 70 -6
l82 -1 6 33 c3 17 5 61 3 97 l-3 65 -49 -83z"/>
<path d="M810 574 c-6 -16 -13 -35 -15 -41 -3 -9 8 -13 35 -13 l40 0 -21 38
c-28 49 -27 49 -39 16z"/>
<path d="M713 422 c-6 -4 -14 -29 -17 -57 l-7 -50 16 40 c30 75 31 82 8 67z"/>
<path d="M2230 418 c0 -2 11 -32 24 -68 26 -70 27 -69 40 28 l6 42 -35 0 c-19
0 -35 -1 -35 -2z"/>
<path d="M2187 394 c-4 -4 -7 -22 -7 -40 0 -18 -4 -36 -10 -39 -23 -14 -7 -25
39 -25 l50 0 -23 52 c-23 51 -36 65 -49 52z"/>
</g>
</svg>
