<svg version="1.1" id="Layer_1" xmlns="http://www.w3.org/2000/svg" xmlns:xlink="http://www.w3.org/1999/xlink" x="0px" y="0px"
	 width="100%" viewBox="0 0 300 189" enable-background="new 0 0 300 189" xml:space="preserve">
<path fill="#FAFAFA" opacity="1.000000" stroke="none" 
	d="
M221.000000,190.000000 
	C147.333344,190.000000 74.166687,190.000000 1.000020,190.000000 
	C1.000013,127.000015 1.000013,64.000031 1.000007,1.000036 
	C100.999969,1.000024 200.999939,1.000024 300.999939,1.000012 
	C300.999939,63.999966 300.999939,126.999931 300.999969,189.999939 
	C274.500000,190.000000 248.000000,190.000000 221.000000,190.000000 
M73.028557,155.222626 
	C73.077675,154.488586 73.126801,153.754547 73.072006,153.117447 
	C73.072006,153.117447 73.177643,153.212509 73.870796,152.937881 
	C75.787140,147.068893 79.168472,151.806915 82.464043,151.259506 
	C81.955826,155.955276 81.424637,160.019257 81.112480,164.099991 
	C80.953979,166.172012 80.692230,169.874741 81.337303,170.075409 
	C83.668053,170.800522 86.391457,170.568787 88.908997,170.247177 
	C90.011383,170.106354 90.974716,168.876953 92.637398,168.026108 
	C93.464294,168.183792 94.291199,168.341476 95.754272,169.060760 
	C102.861931,169.401535 109.967735,169.933990 117.078018,170.002380 
	C120.642815,170.036682 124.215752,169.225647 128.462097,168.888504 
	C128.688217,168.911377 128.914322,168.934265 129.313187,169.717728 
	C132.532349,169.804413 135.751526,169.891083 139.653458,169.829361 
	C140.105957,169.723541 140.558456,169.617706 141.174454,170.360794 
	C141.429626,171.660965 141.684799,172.961136 141.939957,174.261307 
	C142.207794,174.228790 142.475632,174.196274 142.743469,174.163757 
	C144.307816,165.212479 145.872147,156.261215 148.270950,147.394623 
	C151.093872,147.318771 153.916794,147.242920 157.313843,147.899017 
	C156.554779,155.138519 155.795715,162.378036 155.021103,169.765900 
	C156.568405,169.999069 157.847519,170.191818 159.187454,171.108139 
	C159.394394,171.777832 159.601334,172.447525 159.928421,173.677689 
	C160.238739,173.445236 160.549057,173.212784 161.095825,172.257294 
	C162.033020,171.291397 162.970215,170.325485 164.562531,169.462036 
	C165.685471,167.579849 167.385086,165.821213 167.819977,163.791595 
	C168.983688,158.360458 169.604980,152.813110 170.492126,146.981110 
	C174.123032,147.327515 177.056244,147.607346 179.896301,148.697449 
	C179.083206,154.045059 178.039581,159.374161 177.608292,164.752396 
	C177.490646,166.219269 179.214737,167.833832 180.942368,169.774124 
	C187.618393,169.435196 194.294418,169.096268 201.561340,168.778137 
	C202.073761,168.219757 202.586166,167.661362 203.822052,167.045090 
	C205.168686,167.845490 206.515305,168.645889 208.044250,169.570206 
	C208.044250,169.570206 208.264206,169.555573 208.929703,169.990067 
	C216.967941,170.344269 225.004166,170.782669 233.046265,170.974228 
	C234.475540,171.008270 235.929230,170.016373 237.431976,169.449966 
	C237.431976,169.449966 237.504715,169.475998 238.176483,169.247589 
	C242.828262,170.896423 247.482773,172.814804 252.018494,169.013443 
	C252.018494,169.013443 252.100815,169.088348 252.580399,169.052765 
	C252.580399,169.052765 253.035599,168.897629 253.738937,169.296448 
	C256.814880,169.189102 259.890808,169.081757 263.685547,169.179031 
	C266.767639,169.406174 269.849731,169.633316 273.556122,169.828461 
	C273.951508,169.702637 274.346924,169.576813 275.435547,169.614761 
	C276.423767,168.403992 278.062500,167.305038 278.293030,165.963989 
	C279.636475,158.149521 280.790253,150.294540 281.702423,142.417847 
	C282.050232,139.414566 280.683258,137.262650 276.116577,137.760910 
	C270.293152,137.734253 264.464325,137.545609 258.648346,137.740829 
	C255.079895,137.860626 251.531189,138.568298 247.265198,138.968567 
	C246.504608,140.005219 245.744034,141.041870 244.445068,141.606079 
	C243.501816,140.519333 242.558578,139.432587 240.747025,138.138336 
	C237.300903,137.993942 233.772827,137.308273 230.425339,137.815201 
	C222.912140,138.952927 217.842026,136.893311 216.216980,128.164932 
	C214.414139,119.891068 209.534729,114.598755 201.390045,111.966125 
	C197.645248,110.755692 194.136261,108.708946 190.669220,106.774597 
	C186.838501,104.637360 183.178253,102.194534 179.397018,99.855888 
	C188.082626,87.115761 188.492203,80.525383 181.966095,67.255241 
	C178.352661,58.880680 174.797470,50.480049 171.073349,42.155010 
	C170.383575,40.613079 169.012192,39.376060 167.910492,37.290226 
	C164.296799,33.817673 160.683090,30.345116 156.481155,26.659864 
	C155.483429,25.665190 154.485703,24.670517 153.083344,23.125202 
	C151.216690,23.301323 149.350037,23.477444 146.852188,23.852898 
	C136.265488,31.206127 128.045486,40.459026 122.741089,52.379780 
	C119.101280,60.559647 114.818680,68.463074 110.610191,76.376678 
	C108.130829,81.038864 107.715485,85.475998 110.755325,89.956856 
	C113.493805,93.993492 116.285332,97.994133 118.440453,102.209000 
	C116.344604,102.992653 114.189499,103.647881 112.163445,104.582771 
	C104.498901,108.119476 96.835350,111.664268 89.269585,115.404556 
	C87.595284,116.232269 85.735878,117.593185 84.978371,119.190674 
	C83.022827,123.314659 81.635712,127.708199 79.441887,132.365265 
	C79.301514,133.258530 79.161133,134.151779 78.646965,135.790298 
	C77.223572,136.431061 75.800179,137.071808 73.708832,138.013245 
	C75.509468,124.201439 74.436203,123.143150 62.915844,124.996506 
	C62.254601,130.491089 61.614143,135.812958 60.250942,141.028992 
	C59.046627,140.126083 57.842308,139.223175 55.759743,138.138535 
	C46.193420,138.230438 36.627098,138.322357 26.356085,138.302261 
	C25.236351,140.167557 23.469212,141.917511 23.112715,143.918762 
	C21.803562,151.267883 21.097069,158.722229 19.900888,166.094315 
	C19.033976,171.437149 17.751717,176.712555 16.183386,182.137787 
	C16.368385,182.434464 16.553383,182.731140 17.503029,183.228485 
	C18.012035,183.127380 18.521044,183.026276 19.852619,183.168427 
	C22.082012,182.912277 24.311407,182.656128 27.233084,182.657059 
	C32.691708,180.071716 31.143652,174.648834 33.126652,170.106674 
	C38.764751,170.081299 44.402855,170.055908 50.313400,170.420258 
	C50.969093,170.132721 51.624786,169.845200 52.712147,169.264084 
	C52.806465,169.117859 52.900787,168.971619 53.537975,168.844528 
	C53.950111,168.289627 54.362247,167.734711 55.399956,166.994843 
	C55.582123,166.876114 55.764290,166.757370 56.186882,167.186859 
	C56.465015,167.470795 56.743149,167.754730 57.198315,168.838364 
	C60.140858,169.259277 63.083405,169.680176 66.082260,170.714020 
	C72.761574,171.945419 70.640038,167.072845 70.840126,163.099167 
	C70.973030,162.387512 71.105934,161.675873 71.622688,160.613174 
	C71.685829,160.278427 71.748970,159.943665 71.914833,159.036713 
	C72.056099,158.676697 72.197365,158.316681 72.719879,157.570755 
	C72.807259,157.048859 72.894638,156.526962 73.028557,155.222626 
z"/>
<path fill="#0B0D0C" opacity="1.000000" stroke="none" 
	d="
M119.053459,102.010651 
	C116.285332,97.994133 113.493805,93.993492 110.755325,89.956856 
	C107.715485,85.475998 108.130829,81.038864 110.610191,76.376678 
	C114.818680,68.463074 119.101280,60.559647 122.741089,52.379780 
	C128.045486,40.459026 136.265488,31.206127 147.538696,23.852104 
	C149.979462,23.792820 151.733719,23.734329 153.487976,23.675842 
	C154.485703,24.670517 155.483429,25.665190 156.622467,27.081768 
	C156.377777,27.765104 155.991776,28.026539 155.349091,28.237904 
	C154.752075,28.116323 154.411728,28.044817 153.947861,27.699131 
	C153.283585,27.618362 152.742844,27.811771 152.052673,28.308567 
	C151.252563,29.711380 150.601868,30.810812 149.603851,32.133530 
	C149.274307,34.250134 149.292099,36.143448 149.492584,38.363548 
	C150.113876,40.602631 150.821487,42.502083 150.913635,44.430935 
	C151.001617,46.272690 150.448715,48.145058 150.106842,50.251747 
	C150.082199,50.665012 150.128220,50.830502 150.118011,51.247124 
	C150.336197,51.678291 150.610596,51.858326 150.935547,52.406509 
	C151.306381,53.856270 151.626648,54.937881 152.068283,56.346291 
	C151.859314,57.783775 151.528961,58.894466 151.121933,60.256622 
	C151.111664,60.670284 151.178070,60.832478 151.197235,61.327415 
	C151.081497,62.100025 151.013016,62.539894 150.543671,62.990570 
	C144.969437,61.572075 140.029236,62.967815 136.529236,66.375496 
	C132.578354,70.222130 129.831848,75.290375 126.458946,79.749718 
	C121.668289,86.083496 116.671684,92.310036 120.141098,101.083260 
	C120.236656,101.324898 119.977379,101.706863 119.676353,101.999527 
	C119.469139,101.975670 119.053459,102.010651 119.053459,102.010651 
z"/>
<path fill="#11100C" opacity="1.000000" stroke="none" 
	d="
M127.785004,168.796936 
	C124.215752,169.225647 120.642815,170.036682 117.078018,170.002380 
	C109.967735,169.933990 102.861931,169.401535 95.491547,168.363358 
	C95.520233,162.140411 95.811653,156.614853 96.457809,150.980682 
	C98.585335,150.268219 100.358109,149.664383 102.485428,148.939774 
	C101.717049,148.092987 101.389992,147.463211 100.877228,147.211044 
	C97.458931,145.529984 97.453606,142.357391 98.503616,139.720505 
	C98.978081,138.528992 101.903542,137.809402 103.743263,137.754456 
	C111.007172,137.537552 118.286179,137.522766 125.549225,137.755844 
	C127.877190,137.830551 130.173172,138.902115 132.335419,139.969788 
	C131.676697,146.353058 131.166351,152.284088 130.635345,158.446136 
	C130.605148,158.985764 130.607727,159.294312 130.329758,159.822815 
	C129.286392,162.960892 128.535706,165.878906 127.785004,168.796936 
z"/>
<path fill="#14100A" opacity="1.000000" stroke="none" 
	d="
M66.025948,170.101105 
	C63.083405,169.680176 60.140858,169.259277 57.290550,168.080505 
	C57.886665,161.566727 58.390541,155.810822 58.917458,149.660812 
	C59.618225,146.556076 60.295952,143.845459 60.973686,141.134827 
	C61.614143,135.812958 62.254601,130.491089 62.915844,124.996506 
	C74.436203,123.143150 75.509468,124.201439 73.708832,138.013245 
	C75.800179,137.071808 77.223572,136.431061 79.201447,135.505554 
	C80.843956,139.451660 84.409012,137.180954 87.157898,137.982239 
	C88.658691,138.036285 89.830612,138.023758 91.354897,137.926300 
	C92.419487,137.962921 93.131714,138.084473 93.913803,138.604980 
	C94.222771,141.700729 94.872299,144.436340 94.621529,147.086761 
	C93.955612,154.124771 92.901123,161.126007 92.001190,168.141876 
	C90.974716,168.876953 90.011383,170.106354 88.908997,170.247177 
	C86.391457,170.568787 83.668053,170.800522 81.337303,170.075409 
	C80.692230,169.874741 80.953979,166.172012 81.112480,164.099991 
	C81.424637,160.019257 81.955826,155.955276 82.464043,151.259506 
	C79.168472,151.806915 75.787140,147.068893 73.381775,152.684326 
	C73.269005,150.760117 73.645256,149.089493 74.021507,147.418854 
	C73.334404,147.250351 72.647301,147.081833 71.960197,146.913315 
	C69.412155,153.732483 69.640038,161.262756 68.035439,168.510315 
	C67.666626,168.844376 67.415596,168.968048 66.850510,168.978958 
	C66.360344,169.224976 66.153839,169.522095 65.910019,169.905579 
	C65.872696,169.991928 66.025948,170.101105 66.025948,170.101105 
z"/>
<path fill="#100B06" opacity="1.000000" stroke="none" 
	d="
M274.742371,169.450989 
	C274.346924,169.576813 273.951508,169.702637 272.936951,169.625305 
	C269.501556,168.826904 264.841492,171.008804 266.136566,164.258453 
	C264.751038,166.319794 263.858917,167.647110 262.966766,168.974426 
	C259.890808,169.081757 256.814880,169.189102 253.460297,168.854584 
	C253.116089,168.061417 253.050507,167.710098 252.984924,167.358795 
	C252.690201,167.935303 252.395508,168.511826 252.100800,169.088348 
	C252.100815,169.088348 252.018494,169.013443 251.601456,169.015335 
	C248.155457,168.463562 245.126511,167.909882 242.173264,167.253693 
	C242.248978,167.151184 242.481339,167.046463 242.812164,166.935638 
	C244.753204,157.553879 246.363419,148.282928 247.973633,139.011993 
	C251.531189,138.568298 255.079895,137.860626 258.648346,137.740829 
	C264.464325,137.545609 270.293152,137.734253 276.826172,138.106277 
	C278.320007,140.235336 279.615417,141.978058 279.762421,143.812805 
	C279.957092,146.241837 279.419922,148.778320 278.903076,151.205963 
	C277.604248,157.306412 276.140167,163.371658 274.742371,169.450989 
M254.765579,156.080170 
	C254.765579,158.352066 254.765579,160.623978 254.765579,162.895874 
	C255.170029,162.906128 255.574463,162.916397 255.978912,162.926651 
	C256.537170,158.134583 257.095398,153.342514 257.653656,148.550461 
	C257.091736,148.480774 256.529846,148.411102 255.967941,148.341431 
	C255.608734,150.644623 255.249512,152.947800 254.765579,156.080170 
z"/>
<path fill="#080906" opacity="1.000000" stroke="none" 
	d="
M50.040955,170.030533 
	C44.402855,170.055908 38.764751,170.081299 32.305927,170.183838 
	C30.992546,171.532806 30.520889,172.813217 30.002920,174.074615 
	C28.861279,176.854828 27.696278,179.625443 26.540802,182.399979 
	C24.311407,182.656128 22.082012,182.912277 19.497478,182.673187 
	C20.415491,175.804169 21.789272,169.448471 22.936604,163.052139 
	C24.406660,154.856613 25.694448,146.628387 27.060778,138.414276 
	C36.627098,138.322357 46.193420,138.230438 56.240669,138.506805 
	C56.878487,139.208801 57.035381,139.542526 57.125221,140.304077 
	C57.159382,141.586716 57.260593,142.441544 57.411469,143.603912 
	C57.359169,144.311356 57.257206,144.711273 56.845680,145.338547 
	C56.426849,147.392273 56.317574,149.218628 56.215836,151.077606 
	C56.223377,151.110199 56.202629,151.173798 55.869469,151.394424 
	C55.459335,153.832413 55.382355,156.049789 55.316616,158.624481 
	C55.219521,159.687256 55.111183,160.392670 54.731621,161.320190 
	C54.370903,162.699188 54.281410,163.856094 54.203701,165.059433 
	C54.215485,165.105881 54.160469,165.184341 53.862968,165.344070 
	C53.375351,166.610992 53.185230,167.718185 52.995110,168.825378 
	C52.900787,168.971619 52.806465,169.117859 52.204552,169.295990 
	C51.144951,169.562088 50.592953,169.796310 50.040955,170.030533 
M32.662964,159.051239 
	C36.283779,159.793533 39.904591,160.535828 43.982555,161.371826 
	C44.723598,156.044434 45.302876,151.879974 45.880222,147.729401 
	C35.271114,146.036224 35.173035,146.102585 33.181992,155.815536 
	C33.015446,156.628021 32.836311,157.437927 32.662964,159.051239 
z"/>
<path fill="#070B05" opacity="1.000000" stroke="none" 
	d="
M208.264206,169.555573 
	C208.264206,169.555573 208.044250,169.570206 207.974731,169.032196 
	C208.938583,158.639938 209.971924,148.785675 211.296112,138.680298 
	C213.002365,138.152924 214.417801,137.876663 216.213608,137.526154 
	C215.432098,134.647079 214.715027,132.005402 214.561127,129.241974 
	C215.502502,129.052948 215.880692,128.985672 216.258881,128.918411 
	C217.842026,136.893311 222.912140,138.952927 230.425339,137.815201 
	C233.772827,137.308273 237.300903,137.993942 241.284103,138.604248 
	C242.081238,140.498245 242.713425,141.973373 242.539886,143.346680 
	C241.543671,151.230927 240.356369,159.091019 238.905289,167.077515 
	C238.219360,167.955811 237.862030,168.715897 237.504700,169.475983 
	C237.504715,169.475998 237.431976,169.449966 236.938904,169.276398 
	C227.051941,169.253754 217.658081,169.404663 208.264206,169.555573 
M230.124847,147.221191 
	C229.416443,147.264709 228.708038,147.308212 227.206955,147.137619 
	C225.790527,148.275360 224.374100,149.413116 222.969452,150.541397 
	C222.337494,150.295013 220.756790,149.678741 218.814850,148.921631 
	C218.587265,151.717697 218.829239,153.649933 218.223434,155.263931 
	C216.437485,160.022064 218.491226,161.221924 222.772324,160.713394 
	C223.877304,160.582138 224.972336,160.366898 226.787140,160.060806 
	C227.500870,160.031464 228.214600,160.002121 229.343948,160.450668 
	C232.420334,157.551971 234.181931,149.791992 232.360779,146.844391 
	C232.299698,146.745529 231.360580,147.189163 230.124847,147.221191 
z"/>
<path fill="#070604" opacity="1.000000" stroke="none" 
	d="
M141.010956,169.511871 
	C140.558456,169.617706 140.105957,169.723541 139.089355,169.596436 
	C136.801788,169.077194 135.078323,168.790894 133.802780,168.579010 
	C134.211517,165.331207 134.440216,162.432907 134.961090,159.588120 
	C136.258835,152.500626 137.689560,145.437500 139.474426,138.201172 
	C140.486008,136.742386 141.436615,135.494186 141.620819,134.141632 
	C141.986511,131.456345 141.929840,128.713531 142.222687,126.051285 
	C142.397675,126.108093 142.758652,126.036835 142.890503,126.476578 
	C143.022369,130.354492 143.022369,133.792679 143.022369,137.441132 
	C148.816788,137.441132 153.870087,137.441132 158.943985,137.441132 
	C159.280945,132.969254 159.596252,128.784668 159.911575,124.600067 
	C160.288361,124.621170 160.665161,124.642273 161.041946,124.663376 
	C161.041946,128.748230 161.041946,132.833099 161.006256,137.218567 
	C161.647705,137.674332 162.324875,137.829498 163.416626,137.902649 
	C165.209900,138.023743 166.588562,138.226837 168.039215,138.799866 
	C166.709961,149.233063 165.308685,159.296326 163.907410,169.359589 
	C162.970215,170.325485 162.033020,171.291397 160.709671,172.613098 
	C160.151764,173.018326 159.980011,173.067764 159.808258,173.117218 
	C159.601334,172.447525 159.394394,171.777832 159.077438,170.373993 
	C158.596527,168.096954 157.825302,166.526550 157.929092,165.016281 
	C158.252548,160.309555 159.115112,155.633423 159.291611,150.927521 
	C159.337357,149.707642 157.637665,148.422333 156.739716,147.167053 
	C153.916794,147.242920 151.093872,147.318771 147.463455,147.285263 
	C145.833771,149.004456 144.677673,150.758926 144.252487,152.675552 
	C143.015152,158.252884 142.070435,163.895111 141.010956,169.511871 
z"/>
<path fill="#020201" opacity="1.000000" stroke="none" 
	d="
M200.970444,168.757339 
	C194.294418,169.096268 187.618393,169.435196 180.496307,169.173340 
	C180.716919,163.055908 181.573273,157.551727 181.936554,152.015182 
	C182.047852,150.318680 180.807404,148.533463 179.872070,146.563553 
	C177.461731,145.928177 175.365280,145.518112 173.584442,145.169785 
	C174.175095,142.434906 174.601273,140.461563 175.367722,138.303619 
	C176.472702,138.082764 177.237442,138.046539 178.237137,138.277939 
	C185.251587,139.409286 183.884033,133.689865 184.776688,130.250381 
	C185.387329,127.897583 185.020691,125.851746 188.493484,125.848030 
	C192.392075,125.843857 192.071609,128.204315 192.138931,130.774734 
	C192.175797,132.182037 192.677048,133.577209 192.997681,135.313934 
	C193.003540,136.098969 192.980606,136.547913 192.731293,137.148987 
	C192.583954,137.695343 192.662994,138.089569 192.742050,138.483780 
	C193.220078,138.221649 193.698105,137.959518 194.623322,137.696381 
	C198.381958,137.783829 201.693405,137.872314 205.016144,138.418976 
	C205.073242,141.023590 205.119034,143.170029 204.954514,145.643829 
	C200.721619,146.523254 196.699036,147.075317 192.389465,147.553925 
	C191.770676,147.691223 191.438858,147.901978 190.745270,148.262451 
	C188.102066,152.983627 188.428268,158.884430 191.441528,160.963837 
	C192.536697,161.049194 193.266220,161.107513 194.093872,161.305145 
	C194.463379,161.349106 194.734772,161.253769 195.429657,161.096039 
	C197.564270,161.076004 199.275391,161.118362 201.160568,161.452774 
	C201.580688,162.830460 201.826736,163.916077 202.028885,165.319168 
	C201.977432,166.062622 201.969849,166.488602 201.737976,167.077454 
	C201.332611,167.746002 201.151520,168.251663 200.970444,168.757339 
M191.595718,146.556259 
	C191.595718,146.556259 191.493729,146.628235 191.595718,146.556259 
z"/>
<path fill="#1F201E" opacity="1.000000" stroke="none" 
	d="
M91.002541,138.011215 
	C89.830612,138.023758 88.658691,138.036285 87.299049,137.630005 
	C86.023697,134.604385 84.936066,131.997589 84.001137,129.756775 
	C82.329079,130.696808 81.175323,131.345444 80.021561,131.994080 
	C81.635712,127.708199 83.022827,123.314659 84.978371,119.190674 
	C85.735878,117.593185 87.595284,116.232269 89.269585,115.404556 
	C96.835350,111.664268 104.498901,108.119476 112.163445,104.582771 
	C114.189499,103.647881 116.344604,102.992653 118.746956,102.109825 
	C119.053459,102.010651 119.469139,101.975670 119.871475,102.233109 
	C121.073669,103.639549 121.873528,104.788551 122.353989,106.039894 
	C122.464577,107.066818 122.894562,107.991394 123.063065,109.031113 
	C122.536186,109.419197 122.270790,109.692131 121.640106,110.050468 
	C122.223335,113.265808 123.171844,116.395752 124.424553,120.529533 
	C120.387840,116.757042 117.125015,113.707787 113.862183,110.658524 
	C113.595894,110.855438 113.329605,111.052345 113.063324,111.249252 
	C113.797112,113.929527 114.530899,116.609802 115.502884,120.160126 
	C112.520920,118.490730 110.527824,117.374924 108.292542,116.014206 
	C107.684914,115.880402 107.319473,115.991516 107.140465,115.882187 
	C107.032799,115.602112 106.738701,115.542480 106.444603,115.482841 
	C106.644142,115.645576 106.843674,115.808319 106.981873,116.248413 
	C107.165024,116.800400 107.409492,117.075043 107.760406,117.687759 
	C109.101799,120.473358 110.336739,122.920876 111.571686,125.368393 
	C111.273117,125.509415 110.974548,125.650436 110.675980,125.791466 
	C106.819923,122.457474 102.963860,119.123482 99.107803,115.789490 
	C98.883385,116.026161 98.658966,116.262833 98.434547,116.499512 
	C100.396194,119.801727 102.357841,123.103943 104.488167,126.690102 
	C98.818169,124.795609 93.948532,123.168533 88.794395,121.446396 
	C88.794395,126.073753 88.672935,130.681458 88.894493,135.272614 
	C88.940079,136.217194 90.266495,137.099960 91.002541,138.011215 
z"/>
<path fill="#1F201E" opacity="1.000000" stroke="none" 
	d="
M216.237930,128.541672 
	C215.880692,128.985672 215.502502,129.052948 214.326324,129.057449 
	C212.303818,131.289703 211.079300,133.584717 209.634750,135.925751 
	C209.414719,135.971771 208.971664,136.051743 208.924805,135.585419 
	C208.849152,130.966766 208.922943,126.809090 208.706421,122.666595 
	C208.662247,121.821762 207.526840,121.033981 206.627716,120.149719 
	C205.664597,119.952438 204.968231,119.825340 203.931366,119.812683 
	C201.216965,121.687492 198.843063,123.447868 196.154327,125.042107 
	C195.558609,124.248672 195.277695,123.621376 195.106964,122.663445 
	C196.595367,120.367859 197.973572,118.402908 199.351776,116.437958 
	C199.125641,116.174637 198.899490,115.911316 198.673355,115.647995 
	C196.263885,116.510422 193.854401,117.372849 191.192245,118.325722 
	C190.703873,115.912109 190.251572,113.676765 189.744385,111.170128 
	C187.701309,113.320206 185.785324,115.336563 183.869324,117.352913 
	C183.674194,117.136314 183.479065,116.919724 183.283936,116.703125 
	C183.915161,114.985725 184.546387,113.268318 185.383392,110.991074 
	C182.577942,112.586578 180.471985,113.784264 178.284058,114.613136 
	C177.454971,113.865105 176.707870,113.485878 175.702362,113.065277 
	C174.305496,112.303856 173.167038,111.583817 171.814957,110.579987 
	C171.146103,110.208832 170.690857,110.121468 170.382309,109.715775 
	C171.656189,109.251839 172.783401,109.106239 174.285065,108.980995 
	C178.376999,108.369553 179.521027,106.357269 178.039337,102.549683 
	C178.310486,100.603416 178.056641,98.780067 178.731537,97.416351 
	C181.397049,92.030380 181.473206,86.791519 179.044189,81.300949 
	C178.581573,80.255234 179.456268,78.617905 179.713943,77.253532 
	C180.464279,76.847954 181.214630,76.442368 181.964981,76.036789 
	C180.671967,75.323318 179.378967,74.609856 178.038361,73.539124 
	C178.002930,72.464394 178.015091,71.746948 178.432220,70.983223 
	C179.241562,70.114983 179.645935,69.293015 180.273254,68.342537 
	C181.000031,68.141708 181.503891,68.069389 182.007736,67.997063 
	C188.492203,80.525383 188.082626,87.115761 179.397018,99.855888 
	C183.178253,102.194534 186.838501,104.637360 190.669220,106.774597 
	C194.136261,108.708946 197.645248,110.755692 201.390045,111.966125 
	C209.534729,114.598755 214.414139,119.891068 216.237930,128.541672 
M179.352203,108.572533 
	C179.864685,108.839119 180.377182,109.105713 180.889648,109.372299 
	C181.114700,108.838562 181.339752,108.304825 181.564804,107.771095 
	C180.918457,107.864143 180.272110,107.957191 179.352203,108.572533 
M208.379501,119.076477 
	C208.295700,119.283447 208.211899,119.490417 208.128113,119.697380 
	C208.335403,119.642212 208.542709,119.587044 208.379501,119.076477 
z"/>
<path fill="#2C1F15" opacity="1.000000" stroke="none" 
	d="
M26.708431,138.358261 
	C25.694448,146.628387 24.406660,154.856613 22.936604,163.052139 
	C21.789272,169.448471 20.415491,175.804169 19.086197,182.551544 
	C18.521044,183.026276 18.012035,183.127380 17.176197,182.869629 
	C16.784470,182.346512 16.719570,182.182266 16.654671,182.018036 
	C17.751717,176.712555 19.033976,171.437149 19.900888,166.094315 
	C21.097069,158.722229 21.803562,151.267883 23.112715,143.918762 
	C23.469212,141.917511 25.236351,140.167557 26.708431,138.358261 
z"/>
<path fill="#2A2C21" opacity="1.000000" stroke="none" 
	d="
M175.027466,138.488220 
	C174.601273,140.461563 174.175095,142.434906 173.584442,145.169785 
	C175.365280,145.518112 177.461731,145.928177 179.824066,146.838959 
	C180.056473,147.522186 180.022964,147.704681 179.989471,147.887177 
	C177.056244,147.607346 174.123032,147.327515 170.492126,146.981110 
	C169.604980,152.813110 168.983688,158.360458 167.819977,163.791595 
	C167.385086,165.821213 165.685471,167.579849 164.234985,169.410812 
	C165.308685,159.296326 166.709961,149.233063 168.363861,138.731445 
	C169.542496,139.161438 170.468521,140.029800 171.200821,140.716507 
	C172.459000,139.983871 173.743225,139.236038 175.027466,138.488220 
z"/>
<path fill="#413524" opacity="1.000000" stroke="none" 
	d="
M139.066895,138.364578 
	C137.689560,145.437500 136.258835,152.500626 134.961090,159.588120 
	C134.440216,162.432907 134.211517,165.331207 133.802780,168.579010 
	C135.078323,168.790894 136.801788,169.077194 138.747986,169.670624 
	C135.751526,169.891083 132.532349,169.804413 129.448669,169.302017 
	C129.848633,168.692932 129.976532,168.432465 130.321716,167.921814 
	C131.735245,160.850159 132.794907,153.961624 133.868149,146.688782 
	C133.942490,145.538559 134.003235,144.772675 134.401978,143.857971 
	C135.191422,141.125427 135.443008,138.379898 139.066895,138.364578 
z"/>
<path fill="#262316" opacity="1.000000" stroke="none" 
	d="
M202.072784,165.001709 
	C201.826736,163.916077 201.580688,162.830460 201.543304,161.368347 
	C202.629364,161.336014 203.506790,161.680191 205.111008,162.309433 
	C205.929367,157.025360 206.699738,152.051147 207.693665,146.803284 
	C208.305435,144.386612 208.693665,142.243561 209.276855,139.876617 
	C209.982986,139.412277 210.494125,139.171844 211.005280,138.931412 
	C209.971924,148.785675 208.938583,158.639938 207.883575,168.970245 
	C206.515305,168.645889 205.168686,167.845490 203.424408,167.033340 
	C203.026779,167.021591 202.957718,166.937881 203.065979,166.703308 
	C202.807098,165.979721 202.439941,165.490707 202.072784,165.001709 
z"/>
<path fill="#2C2E2D" opacity="1.000000" stroke="none" 
	d="
M181.986908,67.626152 
	C181.503891,68.069389 181.000031,68.141708 180.219360,68.332130 
	C179.942551,68.450233 179.764023,68.508339 179.710358,68.200272 
	C177.469879,62.881920 175.119186,57.935215 173.143311,52.843075 
	C171.248596,47.960079 169.742706,42.926201 168.031128,37.948509 
	C167.996292,37.938396 167.955414,37.998306 167.955414,37.998306 
	C169.012192,39.376060 170.383575,40.613079 171.073349,42.155010 
	C174.797470,50.480049 178.352661,58.880680 181.986908,67.626152 
z"/>
<path fill="#5D8E53" opacity="1.000000" stroke="none" 
	d="
M275.088959,169.532883 
	C276.140167,163.371658 277.604248,157.306412 278.903076,151.205963 
	C279.419922,148.778320 279.957092,146.241837 279.762421,143.812805 
	C279.615417,141.978058 278.320007,140.235336 277.293518,138.178528 
	C280.683258,137.262650 282.050232,139.414566 281.702423,142.417847 
	C280.790253,150.294540 279.636475,158.149521 278.293030,165.963989 
	C278.062500,167.305038 276.423767,168.403992 275.088959,169.532883 
z"/>
<path fill="#81B076" opacity="1.000000" stroke="none" 
	d="
M239.233887,166.959305 
	C240.356369,159.091019 241.543671,151.230927 242.539886,143.346680 
	C242.713425,141.973373 242.081238,140.498245 241.718262,138.707977 
	C242.558578,139.432587 243.501816,140.519333 244.694962,142.280350 
	C244.706924,144.835571 244.424774,146.712173 244.239182,148.598267 
	C243.634247,154.745804 243.064575,160.896805 242.481339,167.046463 
	C242.481339,167.046463 242.248978,167.151184 241.893143,167.263336 
	C240.769501,167.236771 240.001694,167.098038 239.233887,166.959305 
z"/>
<path fill="#413524" opacity="1.000000" stroke="none" 
	d="
M141.092712,169.936340 
	C142.070435,163.895111 143.015152,158.252884 144.252487,152.675552 
	C144.677673,150.758926 145.833771,149.004456 147.046234,147.242920 
	C145.872147,156.261215 144.307816,165.212479 142.743469,174.163757 
	C142.475632,174.196274 142.207794,174.228790 141.939957,174.261307 
	C141.684799,172.961136 141.429626,171.660965 141.092712,169.936340 
z"/>
<path fill="#7BAF66" opacity="1.000000" stroke="none" 
	d="
M92.319290,168.083984 
	C92.901123,161.126007 93.955612,154.124771 94.621529,147.086761 
	C94.872299,144.436340 94.222771,141.700729 94.290268,138.546616 
	C95.350540,139.879776 96.581848,141.628937 96.741272,143.470856 
	C96.957870,145.973190 96.354675,148.546463 96.103073,151.089310 
	C95.811653,156.614853 95.520233,162.140411 95.173454,168.082550 
	C94.291199,168.341476 93.464294,168.183792 92.319290,168.083984 
z"/>
<path fill="#262316" opacity="1.000000" stroke="none" 
	d="
M179.942886,148.292313 
	C180.022964,147.704681 180.056473,147.522186 180.137970,147.064301 
	C180.807404,148.533463 182.047852,150.318680 181.936554,152.015182 
	C181.573273,157.551727 180.716919,163.055908 180.071930,168.976578 
	C179.214737,167.833832 177.490646,166.219269 177.608292,164.752396 
	C178.039581,159.374161 179.083206,154.045059 179.942886,148.292313 
z"/>
<path fill="#413524" opacity="1.000000" stroke="none" 
	d="
M157.026779,147.533051 
	C157.637665,148.422333 159.337357,149.707642 159.291611,150.927521 
	C159.115112,155.633423 158.252548,160.309555 157.929092,165.016281 
	C157.825302,166.526550 158.596527,168.096954 159.047028,170.012207 
	C157.847519,170.191818 156.568405,169.999069 155.021103,169.765900 
	C155.795715,162.378036 156.554779,155.138519 157.026779,147.533051 
z"/>
<path fill="#2A2C21" opacity="1.000000" stroke="none" 
	d="
M242.812164,166.935638 
	C243.064575,160.896805 243.634247,154.745804 244.239182,148.598267 
	C244.424774,146.712173 244.706924,144.835571 244.964157,142.516571 
	C245.744034,141.041870 246.504608,140.005219 247.619415,138.990280 
	C246.363419,148.282928 244.753204,157.553879 242.812164,166.935638 
z"/>
<path fill="#2A2C21" opacity="1.000000" stroke="none" 
	d="
M208.596954,169.772827 
	C217.658081,169.404663 227.051941,169.253754 236.908722,169.300507 
	C235.929230,170.016373 234.475540,171.008270 233.046265,170.974228 
	C225.004166,170.782669 216.967941,170.344269 208.596954,169.772827 
z"/>
<path fill="#6CA960" opacity="1.000000" stroke="none" 
	d="
M68.183640,168.361572 
	C69.640038,161.262756 69.412155,153.732483 71.960197,146.913315 
	C72.647301,147.081833 73.334404,147.250351 74.021507,147.418854 
	C73.645256,149.089493 73.269005,150.760117 73.035202,152.821625 
	C73.177643,153.212509 73.072006,153.117447 72.710251,153.230652 
	C72.294189,154.500000 72.239891,155.656128 72.261520,156.994553 
	C72.272667,157.436905 72.273071,157.696854 72.338638,157.956680 
	C72.197365,158.316681 72.056099,158.676697 71.653748,159.489029 
	C71.341393,160.282303 71.290123,160.623260 71.238846,160.964218 
	C71.105934,161.675873 70.973030,162.387512 70.634422,163.729691 
	C69.680359,165.694000 68.931999,167.027786 68.183640,168.361572 
z"/>
<path fill="#D1D2D0" opacity="1.000000" stroke="none" 
	d="
M79.731728,132.179672 
	C81.175323,131.345444 82.329079,130.696808 84.001137,129.756775 
	C84.936066,131.997589 86.023697,134.604385 86.970184,137.563416 
	C84.409012,137.180954 80.843956,139.451660 79.388351,135.132935 
	C79.161133,134.151779 79.301514,133.258530 79.731728,132.179672 
z"/>
<path fill="#3A3B3B" opacity="1.000000" stroke="none" 
	d="
M155.605759,28.287975 
	C155.991776,28.026539 156.377777,27.765104 156.916595,27.188114 
	C160.683090,30.345116 164.296799,33.817673 167.932953,37.644264 
	C167.955414,37.998306 167.996292,37.938396 167.672211,37.950851 
	C163.434006,34.738194 159.519882,31.513084 155.605759,28.287975 
z"/>
<path fill="#88B47F" opacity="1.000000" stroke="none" 
	d="
M57.155243,145.111191 
	C57.257206,144.711273 57.359169,144.311356 57.631924,143.366974 
	C57.599239,141.840424 57.395756,140.858353 57.192276,139.876266 
	C57.035381,139.542526 56.878487,139.208801 56.679790,138.597656 
	C57.842308,139.223175 59.046627,140.126083 60.612312,141.081909 
	C60.295952,143.845459 59.618225,146.556076 58.636078,149.892761 
	C57.796959,152.076416 57.262260,153.633987 56.555172,154.888016 
	C56.322731,153.447571 56.262680,152.310684 56.202629,151.173798 
	C56.202629,151.173798 56.223377,151.110199 56.480274,150.804688 
	C56.876530,148.703186 57.015884,146.907196 57.155243,145.111191 
z"/>
<path fill="#2A2C21" opacity="1.000000" stroke="none" 
	d="
M238.905289,167.077515 
	C240.001694,167.098038 240.769501,167.236771 241.817429,167.365845 
	C245.126511,167.909882 248.155457,168.463562 251.632233,169.061676 
	C247.482773,172.814804 242.828262,170.896423 237.840591,169.361786 
	C237.862030,168.715897 238.219360,167.955811 238.905289,167.077515 
z"/>
<path fill="#88B47F" opacity="1.000000" stroke="none" 
	d="
M26.886944,182.528519 
	C27.696278,179.625443 28.861279,176.854828 30.002920,174.074615 
	C30.520889,172.813217 30.992546,171.532806 31.862022,170.278717 
	C31.143652,174.648834 32.691708,180.071716 26.886944,182.528519 
z"/>
<path fill="#D9D8AE" opacity="1.000000" stroke="none" 
	d="
M56.727562,155.191574 
	C57.262260,153.633987 57.796959,152.076416 58.613037,150.286865 
	C58.390541,155.810822 57.886665,161.566727 57.202034,167.680649 
	C56.743149,167.754730 56.465015,167.470795 56.068314,166.513702 
	C56.157303,163.047806 56.364857,160.255066 56.566990,157.176849 
	C56.616905,156.324768 56.672234,155.758179 56.727562,155.191574 
z"/>
<path fill="#5D8E53" opacity="1.000000" stroke="none" 
	d="
M263.326172,169.076721 
	C263.858917,167.647110 264.751038,166.319794 266.136566,164.258453 
	C264.841492,171.008804 269.501556,168.826904 272.624817,169.641312 
	C269.849731,169.633316 266.767639,169.406174 263.326172,169.076721 
z"/>
<path fill="#88B47F" opacity="1.000000" stroke="none" 
	d="
M56.572407,157.462326 
	C56.364857,160.255066 56.157303,163.047806 55.948105,166.239594 
	C55.764290,166.757370 55.582123,166.876114 54.904373,166.884277 
	C54.326015,166.243927 54.243244,165.714142 54.160469,165.184341 
	C54.160469,165.184341 54.215485,165.105881 54.468636,164.831818 
	C54.815472,163.404541 54.909153,162.251328 55.002838,161.098099 
	C55.111183,160.392670 55.219521,159.687256 55.542141,158.517303 
	C56.028416,157.855972 56.300411,157.659149 56.572407,157.462326 
z"/>
<path fill="#6CA960" opacity="1.000000" stroke="none" 
	d="
M129.967834,168.104935 
	C129.976532,168.432465 129.848633,168.692932 129.362305,168.921722 
	C128.914322,168.934265 128.688217,168.911377 128.123550,168.842712 
	C128.535706,165.878906 129.286392,162.960892 130.484436,160.248886 
	C130.610458,163.004913 130.289139,165.554932 129.967834,168.104935 
z"/>
<path fill="#EAEDEA" opacity="1.000000" stroke="none" 
	d="
M68.035439,168.510315 
	C68.931999,167.027786 69.680359,165.694000 70.644623,164.092407 
	C70.640038,167.072845 72.761574,171.945419 66.054108,170.407562 
	C66.025948,170.101105 65.872696,169.991928 66.143890,169.836365 
	C66.731247,169.548431 66.970940,169.331528 67.134163,169.030060 
	C67.415596,168.968048 67.666626,168.844376 68.035439,168.510315 
z"/>
<path fill="#3A3B3B" opacity="1.000000" stroke="none" 
	d="
M153.285660,23.400520 
	C151.733719,23.734329 149.979462,23.792820 147.854294,23.752438 
	C149.350037,23.477444 151.216690,23.301323 153.285660,23.400520 
z"/>
<path fill="#2C1F15" opacity="1.000000" stroke="none" 
	d="
M53.862968,165.344070 
	C54.243244,165.714142 54.326015,166.243927 54.591583,166.976776 
	C54.362247,167.734711 53.950111,168.289627 53.266541,168.834961 
	C53.185230,167.718185 53.375351,166.610992 53.862968,165.344070 
z"/>
<path fill="#88B47F" opacity="1.000000" stroke="none" 
	d="
M50.177177,170.225403 
	C50.592953,169.796310 51.144951,169.562088 51.988716,169.442780 
	C51.624786,169.845200 50.969093,170.132721 50.177177,170.225403 
z"/>
<path fill="#2A2C21" opacity="1.000000" stroke="none" 
	d="
M252.340607,169.070557 
	C252.395508,168.511826 252.690201,167.935303 252.984924,167.358795 
	C253.050507,167.710098 253.116089,168.061417 253.108643,168.655182 
	C253.035599,168.897629 252.580399,169.052765 252.340607,169.070557 
z"/>
<path fill="#14100A" opacity="1.000000" stroke="none" 
	d="
M72.185593,156.812256 
	C72.239891,155.656128 72.294189,154.500000 72.762207,153.182190 
	C73.126801,153.754547 73.077675,154.488586 72.778976,155.788620 
	C72.414803,156.507156 72.300194,156.659714 72.185593,156.812256 
z"/>
<path fill="#262316" opacity="1.000000" stroke="none" 
	d="
M201.265900,168.767731 
	C201.151520,168.251663 201.332611,167.746002 201.986755,167.097214 
	C202.459839,166.954102 202.957718,166.937881 202.957718,166.937881 
	C202.957718,166.937881 203.026779,167.021591 203.062683,167.062286 
	C202.586166,167.661362 202.073761,168.219757 201.265900,168.767731 
z"/>
<path fill="#EAEDEA" opacity="1.000000" stroke="none" 
	d="
M72.261513,156.994553 
	C72.300194,156.659714 72.414803,156.507156 72.755707,156.179840 
	C72.894638,156.526962 72.807259,157.048859 72.529259,157.763718 
	C72.273071,157.696854 72.272667,157.436905 72.261513,156.994553 
z"/>
<path fill="#413524" opacity="1.000000" stroke="none" 
	d="
M159.868347,173.397461 
	C159.980011,173.067764 160.151764,173.018326 160.591431,172.974609 
	C160.549057,173.212784 160.238739,173.445236 159.868347,173.397461 
z"/>
<path fill="#88B47F" opacity="1.000000" stroke="none" 
	d="
M16.419029,182.077911 
	C16.719570,182.182266 16.784470,182.346512 16.793873,182.769287 
	C16.553383,182.731140 16.368385,182.434464 16.419029,182.077911 
z"/>
<path fill="#EAEDEA" opacity="1.000000" stroke="none" 
	d="
M71.430771,160.788696 
	C71.290123,160.623260 71.341393,160.282303 71.602386,159.775131 
	C71.748970,159.943665 71.685829,160.278427 71.430771,160.788696 
z"/>
<path fill="#F5F5F4" opacity="1.000000" stroke="none" 
	d="
M96.457817,150.980682 
	C96.354675,148.546463 96.957870,145.973190 96.741272,143.470856 
	C96.581848,141.628937 95.350540,139.879776 94.220413,138.147644 
	C93.131714,138.084473 92.419487,137.962921 91.354897,137.926300 
	C90.266495,137.099960 88.940079,136.217194 88.894493,135.272614 
	C88.672935,130.681458 88.794395,126.073753 88.794395,121.446396 
	C93.948532,123.168533 98.818169,124.795609 104.488167,126.690102 
	C102.357841,123.103943 100.396194,119.801727 98.434547,116.499512 
	C98.658966,116.262833 98.883385,116.026161 99.107803,115.789490 
	C102.963860,119.123482 106.819923,122.457474 110.675980,125.791466 
	C110.974548,125.650436 111.273117,125.509415 111.571686,125.368393 
	C110.336739,122.920876 109.101799,120.473358 107.990028,117.422714 
	C108.253716,116.632759 108.394218,116.445938 108.534729,116.259125 
	C110.527824,117.374924 112.520920,118.490730 115.502884,120.160126 
	C114.530899,116.609802 113.797112,113.929527 113.063324,111.249252 
	C113.329605,111.052345 113.595894,110.855438 113.862183,110.658524 
	C117.125015,113.707787 120.387840,116.757042 124.424553,120.529533 
	C123.171844,116.395752 122.223335,113.265808 121.792267,110.343628 
	C123.890732,111.772346 125.471748,112.993309 127.226501,114.479492 
	C128.278351,115.302513 129.156464,115.860313 130.287994,116.575684 
	C132.491058,116.369156 134.440720,116.005058 136.944290,115.537514 
	C135.322723,114.349495 133.731201,113.183510 131.951157,111.740425 
	C129.848694,109.943306 127.934776,108.423271 125.932495,106.763390 
	C125.844131,106.623543 125.567116,106.442665 125.306480,106.165352 
	C124.580345,105.891365 124.114845,105.894691 123.403534,105.863007 
	C123.157722,105.827995 122.673378,105.937553 122.673378,105.937553 
	C121.873528,104.788551 121.073669,103.639549 120.078690,102.256973 
	C119.977379,101.706863 120.236656,101.324898 120.141098,101.083260 
	C116.671684,92.310036 121.668289,86.083496 126.458946,79.749718 
	C129.831848,75.290375 132.578354,70.222130 136.529236,66.375496 
	C140.029236,62.967815 144.969437,61.572075 150.878159,62.998375 
	C152.058853,62.981026 152.504196,62.966679 152.974457,62.975185 
	C152.999390,62.998035 153.049576,63.043404 153.087067,63.383324 
	C154.077301,64.149055 155.030045,64.574875 156.232178,65.250290 
	C163.683044,68.298729 170.884491,71.097565 178.085968,73.896393 
	C179.378967,74.609856 180.671967,75.323318 181.964981,76.036789 
	C181.214630,76.442368 180.464279,76.847954 179.713943,77.253532 
	C179.456268,78.617905 178.581573,80.255234 179.044189,81.300949 
	C181.473206,86.791519 181.397049,92.030380 178.731537,97.416351 
	C178.056641,98.780067 178.310486,100.603416 177.731506,102.706123 
	C176.187180,105.118011 175.048889,107.039330 173.910583,108.960640 
	C172.783401,109.106239 171.656189,109.251839 170.254700,109.967743 
	C170.663132,110.646629 171.345856,110.755203 172.028580,110.863785 
	C173.167038,111.583817 174.305496,112.303856 175.725281,113.295067 
	C176.006622,113.566238 176.149612,114.005455 176.006104,114.305916 
	C175.767624,115.092461 175.672653,115.578545 175.577667,116.064621 
	C176.509384,115.702568 177.441116,115.340523 178.351944,114.970245 
	C178.331039,114.962013 178.366043,114.981949 178.366043,114.981949 
	C180.471985,113.784264 182.577942,112.586578 185.383392,110.991074 
	C184.546387,113.268318 183.915161,114.985725 183.283936,116.703125 
	C183.479065,116.919724 183.674194,117.136314 183.869324,117.352913 
	C185.785324,115.336563 187.701309,113.320206 189.744385,111.170128 
	C190.251572,113.676765 190.703873,115.912109 191.192245,118.325722 
	C193.854401,117.372849 196.263885,116.510422 198.673355,115.647995 
	C198.899490,115.911316 199.125641,116.174637 199.351776,116.437958 
	C197.973572,118.402908 196.595367,120.367859 194.799561,122.858696 
	C190.347855,123.954391 186.313721,124.524200 181.880188,125.150429 
	C182.062744,125.753548 182.619766,126.569618 182.433914,127.146263 
	C181.232635,130.873535 184.599319,136.505600 178.002167,138.010300 
	C177.237442,138.046539 176.472702,138.082764 175.367722,138.303619 
	C173.743225,139.236038 172.459000,139.983871 171.200821,140.716507 
	C170.468521,140.029800 169.542496,139.161438 168.291855,138.361496 
	C166.588562,138.226837 165.209900,138.023743 163.200653,137.720154 
	C162.060699,137.385757 161.551315,137.151855 161.041946,136.917953 
	C161.041946,132.833099 161.041946,128.748230 161.041946,124.663376 
	C160.665161,124.642273 160.288361,124.621170 159.911575,124.600067 
	C159.596252,128.784668 159.280945,132.969254 158.943985,137.441132 
	C153.870087,137.441132 148.816788,137.441132 143.022369,137.441132 
	C143.022369,133.792679 143.022369,130.354492 142.907440,126.183456 
	C142.544250,125.631889 142.295975,125.813187 142.047714,125.994484 
	C141.929840,128.713531 141.986511,131.456345 141.620819,134.141632 
	C141.436615,135.494186 140.486008,136.742386 139.474426,138.201172 
	C135.443008,138.379898 135.191422,141.125427 134.309967,143.506958 
	C133.414581,142.042358 132.949188,140.779968 132.483795,139.517578 
	C130.173172,138.902115 127.877190,137.830551 125.549225,137.755844 
	C118.286179,137.522766 111.007172,137.537552 103.743263,137.754456 
	C101.903542,137.809402 98.978081,138.528992 98.503616,139.720505 
	C97.453606,142.357391 97.458931,145.529984 100.877228,147.211044 
	C101.389992,147.463211 101.717049,148.092987 102.485428,148.939774 
	C100.358109,149.664383 98.585335,150.268219 96.457817,150.980682 
M132.473404,118.606064 
	C132.473404,118.606064 132.385376,118.471390 132.473404,118.606064 
z"/>
<path fill="#F5F5F4" opacity="1.000000" stroke="none" 
	d="
M155.349091,28.237904 
	C159.519882,31.513084 163.434006,34.738194 167.707047,37.960964 
	C169.742706,42.926201 171.248596,47.960079 173.143311,52.843075 
	C175.119186,57.935215 177.469879,62.881920 179.285156,68.290756 
	C177.226746,69.155869 175.539902,69.622429 173.496750,70.016571 
	C171.303543,69.236801 169.493668,68.446121 167.624069,67.839561 
	C163.805939,66.600807 159.955658,65.461113 156.069672,63.977295 
	C155.030334,63.463791 154.039948,63.253597 153.049576,63.043404 
	C153.049576,63.043404 152.999390,62.998035 152.961609,62.678009 
	C152.364029,61.903545 151.804260,61.449112 151.244476,60.994675 
	C151.178070,60.832478 151.111664,60.670284 151.463501,60.256508 
	C153.922546,59.670990 155.963364,59.337044 158.138596,58.948856 
	C158.181000,58.928429 158.088974,58.962246 157.718033,58.795708 
	C155.608383,57.736736 153.777649,56.878113 151.946915,56.019493 
	C151.626648,54.937881 151.306381,53.856270 151.198700,52.380196 
	C151.655670,51.835255 151.900040,51.684780 152.144424,51.534302 
	C151.487686,51.354870 150.830963,51.175430 150.174225,50.995995 
	C150.128220,50.830502 150.082199,50.665012 150.499603,50.231483 
	C151.643509,48.539814 152.758148,47.164940 152.924500,45.683575 
	C153.460220,40.913029 155.882614,39.592640 160.023514,41.895908 
	C161.155197,42.525372 162.684311,42.440285 165.334045,42.918060 
	C160.661972,38.220299 156.209717,37.796032 151.405197,37.658401 
	C150.839447,35.885231 150.428558,34.482121 150.012802,32.786156 
	C149.989029,32.298946 149.970108,32.104595 149.951172,31.910244 
	C150.601868,30.810812 151.252563,29.711380 152.364288,28.307251 
	C153.240692,27.992805 153.656036,27.983059 154.071396,27.973312 
	C154.411728,28.044817 154.752075,28.116323 155.349091,28.237904 
z"/>
<path fill="#F1F2F1" opacity="1.000000" stroke="none" 
	d="
M151.560059,38.028465 
	C156.209717,37.796032 160.661972,38.220299 165.334045,42.918060 
	C162.684311,42.440285 161.155197,42.525372 160.023514,41.895908 
	C155.882614,39.592640 153.460220,40.913029 152.924500,45.683575 
	C152.758148,47.164940 151.643509,48.539814 150.570267,49.983707 
	C150.448715,48.145058 151.001617,46.272690 150.913635,44.430935 
	C150.821487,42.502083 150.113876,40.602631 149.572388,38.420639 
	C149.469513,38.150955 149.651642,38.077980 150.131836,38.184391 
	C150.928040,38.203358 151.244049,38.115910 151.560059,38.028465 
z"/>
<path fill="#F1F2F1" opacity="1.000000" stroke="none" 
	d="
M152.068283,56.346291 
	C153.777649,56.878113 155.608383,57.736736 157.719559,58.797676 
	C158.000000,59.000000 158.004166,59.003098 158.004166,59.003098 
	C155.963364,59.337044 153.922546,59.670990 151.540176,60.005043 
	C151.528961,58.894466 151.859314,57.783775 152.068283,56.346291 
z"/>
<path fill="#DDD6D4" opacity="1.000000" stroke="none" 
	d="
M149.651642,38.077980 
	C149.651642,38.077980 149.469513,38.150955 149.389709,38.093861 
	C149.292099,36.143448 149.274307,34.250134 149.603851,32.133530 
	C149.970108,32.104595 149.989029,32.298946 150.011871,33.207161 
	C149.894409,35.306679 149.773026,36.692329 149.651642,38.077980 
z"/>
<path fill="#F1F2F1" opacity="1.000000" stroke="none" 
	d="
M151.197235,61.327415 
	C151.804260,61.449112 152.364029,61.903545 152.936676,62.655159 
	C152.504196,62.966679 152.058853,62.981026 151.279022,62.987564 
	C151.013016,62.539894 151.081497,62.100025 151.197235,61.327415 
z"/>
<path fill="#F1F2F1" opacity="1.000000" stroke="none" 
	d="
M150.118011,51.247124 
	C150.830963,51.175430 151.487686,51.354870 152.144424,51.534302 
	C151.900040,51.684780 151.655670,51.835255 151.148148,52.012047 
	C150.610596,51.858326 150.336197,51.678291 150.118011,51.247124 
z"/>
<path fill="#F1F2F1" opacity="1.000000" stroke="none" 
	d="
M153.947861,27.699131 
	C153.656036,27.983059 153.240692,27.992805 152.513718,28.003868 
	C152.742844,27.811771 153.283585,27.618362 153.947861,27.699131 
z"/>
<path fill="#6CA960" opacity="1.000000" stroke="none" 
	d="
M132.335419,139.969788 
	C132.949188,140.779968 133.414581,142.042358 133.971985,143.655762 
	C134.003235,144.772675 133.942490,145.538559 133.547577,146.902008 
	C132.360947,151.071411 131.508469,154.643265 130.656006,158.215134 
	C131.166351,152.284088 131.676697,146.353058 132.335419,139.969788 
z"/>
<path fill="#E3EEBC" opacity="1.000000" stroke="none" 
	d="
M130.635345,158.446136 
	C131.508469,154.643265 132.360947,151.071411 133.533997,147.286316 
	C132.794907,153.961624 131.735245,160.850159 130.321716,167.921814 
	C130.289139,165.554932 130.610458,163.004913 130.777100,160.028839 
	C130.607727,159.294312 130.605148,158.985764 130.635345,158.446136 
z"/>
<path fill="#6CA960" opacity="1.000000" stroke="none" 
	d="
M66.850510,168.978958 
	C66.970940,169.331528 66.731247,169.548431 66.181213,169.750000 
	C66.153839,169.522095 66.360344,169.224976 66.850510,168.978958 
z"/>
<path fill="#4B2C19" opacity="1.000000" stroke="none" 
	d="
M254.827942,155.665588 
	C255.249512,152.947800 255.608734,150.644623 255.967941,148.341431 
	C256.529846,148.411102 257.091736,148.480774 257.653656,148.550461 
	C257.095398,153.342514 256.537170,158.134583 255.978912,162.926651 
	C255.574463,162.916397 255.170029,162.906128 254.765579,162.895874 
	C254.765579,160.623978 254.765579,158.352066 254.827942,155.665588 
z"/>
<path fill="#E2E7DD" opacity="1.000000" stroke="none" 
	d="
M32.662994,158.650131 
	C32.836311,157.437927 33.015446,156.628021 33.181992,155.815536 
	C35.173035,146.102585 35.271114,146.036224 45.880222,147.729401 
	C45.302876,151.879974 44.723598,156.044434 43.982555,161.371826 
	C39.904591,160.535828 36.283779,159.793533 32.662994,158.650131 
z"/>
<path fill="#2C1F15" opacity="1.000000" stroke="none" 
	d="
M56.566990,157.176849 
	C56.300411,157.659149 56.028416,157.855972 55.530899,158.159973 
	C55.382355,156.049789 55.459335,153.832413 55.869469,151.394424 
	C56.262680,152.310684 56.322731,153.447571 56.555172,154.888016 
	C56.672234,155.758179 56.616905,156.324768 56.566990,157.176849 
z"/>
<path fill="#2C1F15" opacity="1.000000" stroke="none" 
	d="
M56.845680,145.338547 
	C57.015884,146.907196 56.876530,148.703186 56.472733,150.772095 
	C56.317574,149.218628 56.426849,147.392273 56.845680,145.338547 
z"/>
<path fill="#2C1F15" opacity="1.000000" stroke="none" 
	d="
M54.731621,161.320190 
	C54.909153,162.251328 54.815472,163.404541 54.456852,164.785370 
	C54.281410,163.856094 54.370903,162.699188 54.731621,161.320190 
z"/>
<path fill="#2C1F15" opacity="1.000000" stroke="none" 
	d="
M57.125221,140.304077 
	C57.395756,140.858353 57.599239,141.840424 57.582260,143.059448 
	C57.260593,142.441544 57.159382,141.586716 57.125221,140.304077 
z"/>
<path fill="#D3E1D2" opacity="1.000000" stroke="none" 
	d="
M226.071930,160.190247 
	C224.972336,160.366898 223.877304,160.582138 222.772324,160.713394 
	C218.491226,161.221924 216.437485,160.022064 218.223434,155.263931 
	C218.829239,153.649933 218.587265,151.717697 218.814850,148.921631 
	C220.756790,149.678741 222.337494,150.295013 222.969452,150.541397 
	C224.374100,149.413116 225.790527,148.275360 227.611420,147.592194 
	C227.492645,150.545624 226.901917,153.032898 226.471359,155.547607 
	C226.210159,157.073227 226.196686,158.641266 226.071930,160.190247 
z"/>
<path fill="#E2E7DD" opacity="1.000000" stroke="none" 
	d="
M211.296112,138.680298 
	C210.494125,139.171844 209.982986,139.412277 208.903793,139.837769 
	C208.092087,139.966309 207.848404,139.909821 207.577789,139.608154 
	C207.463654,139.019638 207.522659,138.703522 207.807861,138.160324 
	C208.086670,137.612732 208.285492,137.319504 208.831177,136.998795 
	C209.403625,136.607468 209.629196,136.243607 209.854782,135.879745 
	C211.079300,133.584717 212.303818,131.289703 213.763153,129.179199 
	C214.715027,132.005402 215.432098,134.647079 216.213608,137.526154 
	C214.417801,137.876663 213.002365,138.152924 211.296112,138.680298 
z"/>
<path fill="#DDD6D4" opacity="1.000000" stroke="none" 
	d="
M226.429535,160.125519 
	C226.196686,158.641266 226.210159,157.073227 226.471359,155.547607 
	C226.901917,153.032898 227.492645,150.545624 228.007751,147.699249 
	C228.708038,147.308212 229.416443,147.264709 230.459412,147.684265 
	C230.172104,152.089157 229.550217,156.030960 228.928314,159.972778 
	C228.214600,160.002121 227.500870,160.031464 226.429535,160.125519 
z"/>
<path fill="#4B2C19" opacity="1.000000" stroke="none" 
	d="
M229.136139,160.211731 
	C229.550217,156.030960 230.172104,152.089157 230.812378,147.763626 
	C231.360580,147.189163 232.299698,146.745529 232.360779,146.844391 
	C234.181931,149.791992 232.420334,157.551971 229.136139,160.211731 
z"/>
<path fill="#2A2C21" opacity="1.000000" stroke="none" 
	d="
M161.006256,137.218567 
	C161.551315,137.151855 162.060699,137.385757 162.786041,137.802155 
	C162.324875,137.829498 161.647705,137.674332 161.006256,137.218567 
z"/>
<path fill="#413524" opacity="1.000000" stroke="none" 
	d="
M142.222687,126.051285 
	C142.295975,125.813187 142.544250,125.631889 142.775589,125.743713 
	C142.758652,126.036835 142.397675,126.108093 142.222687,126.051285 
z"/>
<path fill="#EAEDEA" opacity="1.000000" stroke="none" 
	d="
M208.484299,137.026260 
	C208.285492,137.319504 208.086670,137.612732 207.465973,138.055389 
	C206.364334,138.123459 205.684586,138.042130 205.004837,137.960800 
	C201.693405,137.872314 198.381958,137.783829 194.709534,137.553009 
	C194.348541,137.410675 194.254791,137.089355 194.415436,136.730789 
	C195.072327,132.932205 195.568542,129.492188 196.197723,125.856445 
	C196.330658,125.660721 196.469162,125.208237 196.469162,125.208237 
	C198.843063,123.447868 201.216965,121.687492 203.915054,120.205383 
	C204.739761,120.972130 205.240295,121.460609 205.740829,121.949097 
	C206.125381,121.372696 206.509933,120.796295 206.894470,120.219894 
	C207.526840,121.033981 208.662247,121.821762 208.706421,122.666595 
	C208.922943,126.809090 208.849152,130.966766 208.774292,135.814667 
	C208.608551,136.682251 208.546432,136.854248 208.484299,137.026260 
M203.795822,126.171371 
	C204.210464,125.366104 204.625122,124.560837 205.354416,123.144531 
	C201.828171,125.444717 201.828171,125.444717 203.795822,126.171371 
M200.743301,129.157333 
	C200.670029,129.223450 200.596756,129.289566 200.743301,129.157333 
z"/>
<path fill="#F7F9F4" opacity="1.000000" stroke="none" 
	d="
M207.470108,147.076920 
	C206.699738,152.051147 205.929367,157.025360 205.111008,162.309433 
	C203.506790,161.680191 202.629364,161.336014 201.369232,161.076294 
	C199.275391,161.118362 197.564270,161.076004 195.176514,161.019318 
	C194.331833,161.058594 194.163788,161.112213 193.995728,161.165833 
	C193.266220,161.107513 192.536697,161.049194 191.396179,160.772888 
	C190.985153,160.554916 190.906479,160.169754 191.063416,159.800446 
	C191.705719,155.496536 192.191086,151.561966 192.676453,147.627380 
	C196.699036,147.075317 200.721619,146.523254 205.153931,145.706696 
	C205.563675,145.442200 205.924927,145.231766 206.082321,145.492065 
	C206.649841,146.193878 207.059982,146.635406 207.470108,147.076920 
z"/>
<path fill="#2A2C21" opacity="1.000000" stroke="none" 
	d="
M196.154327,125.042107 
	C196.469162,125.208237 196.330658,125.660721 195.857300,125.989059 
	C194.578934,129.204224 193.773926,132.091034 192.968903,134.977844 
	C192.677048,133.577209 192.175797,132.182037 192.138931,130.774734 
	C192.071609,128.204315 192.392075,125.843857 188.493484,125.848030 
	C185.020691,125.851746 185.387329,127.897583 184.776688,130.250381 
	C183.884033,133.689865 185.251587,139.409286 178.237137,138.277939 
	C184.599319,136.505600 181.232635,130.873535 182.433914,127.146263 
	C182.619766,126.569618 182.062744,125.753548 181.880188,125.150429 
	C186.313721,124.524200 190.347855,123.954391 194.689377,123.189331 
	C195.277695,123.621376 195.558609,124.248672 196.154327,125.042107 
z"/>
<path fill="#9AB592" opacity="1.000000" stroke="none" 
	d="
M192.389465,147.553925 
	C192.191086,151.561966 191.705719,155.496536 190.756851,159.522583 
	C190.564575,155.780289 190.835815,151.946503 191.107040,148.112732 
	C191.438858,147.901978 191.770676,147.691223 192.389465,147.553925 
z"/>
<path fill="#9AB592" opacity="1.000000" stroke="none" 
	d="
M192.997681,135.313934 
	C193.773926,132.091034 194.578934,129.204224 195.724365,126.184784 
	C195.568542,129.492188 195.072327,132.932205 194.090866,136.703491 
	C193.389648,137.022125 193.173676,137.009491 192.957672,136.996857 
	C192.980606,136.547913 193.003540,136.098969 192.997681,135.313934 
z"/>
<path fill="#262316" opacity="1.000000" stroke="none" 
	d="
M190.745270,148.262451 
	C190.835815,151.946503 190.564575,155.780289 190.599915,159.891907 
	C190.906479,160.169754 190.985153,160.554916 191.030518,160.745850 
	C188.428268,158.884430 188.102066,152.983627 190.745270,148.262451 
z"/>
<path fill="#2A2C21" opacity="1.000000" stroke="none" 
	d="
M205.924927,145.231766 
	C205.924927,145.231766 205.563675,145.442200 205.364258,145.379333 
	C205.119034,143.170029 205.073242,141.023590 205.016144,138.418976 
	C205.684586,138.042130 206.364334,138.123459 207.385971,138.309723 
	C207.522659,138.703522 207.463654,139.019638 207.246765,139.745453 
	C206.603424,141.829193 206.264175,143.530472 205.924927,145.231766 
z"/>
<path fill="#2A2C21" opacity="1.000000" stroke="none" 
	d="
M192.731293,137.148987 
	C193.173676,137.009491 193.389648,137.022125 193.930206,137.062073 
	C194.254791,137.089355 194.348541,137.410675 194.262329,137.554047 
	C193.698105,137.959518 193.220078,138.221649 192.742050,138.483780 
	C192.662994,138.089569 192.583954,137.695343 192.731293,137.148987 
z"/>
<path fill="#2A2C21" opacity="1.000000" stroke="none" 
	d="
M203.065979,166.703308 
	C202.957718,166.937881 202.459839,166.954102 202.211060,166.934357 
	C201.969849,166.488602 201.977432,166.062622 202.028900,165.319168 
	C202.439941,165.490707 202.807098,165.979721 203.065979,166.703308 
z"/>
<path fill="#262316" opacity="1.000000" stroke="none" 
	d="
M194.093872,161.305145 
	C194.163788,161.112213 194.331833,161.058594 194.753006,161.081696 
	C194.734772,161.253769 194.463379,161.349106 194.093872,161.305145 
z"/>
<path fill="#262316" opacity="1.000000" stroke="none" 
	d="
M191.544724,146.592255 
	C191.493729,146.628235 191.595718,146.556259 191.544724,146.592255 
z"/>
<path fill="#525451" opacity="1.000000" stroke="none" 
	d="
M127.052750,114.214279 
	C125.471748,112.993309 123.890732,111.772346 122.157555,110.258224 
	C122.270790,109.692131 122.536186,109.419197 123.240433,109.003212 
	C123.679276,108.860168 124.038216,108.871323 124.213432,109.132095 
	C125.243484,109.947762 126.098320,110.502647 126.946228,111.023483 
	C126.939293,110.989433 126.876991,111.020493 126.931671,111.316277 
	C127.379639,112.065849 127.772942,112.519638 127.953018,113.154701 
	C127.510780,113.628746 127.281761,113.921509 127.052750,114.214279 
z"/>
<path fill="#D1D2D0" opacity="1.000000" stroke="none" 
	d="
M124.038216,108.871323 
	C124.038216,108.871323 123.679276,108.860168 123.501907,108.888077 
	C122.894562,107.991394 122.464577,107.066818 122.353989,106.039894 
	C122.673378,105.937553 123.157722,105.827995 123.436325,106.212189 
	C123.798386,106.814751 123.881851,107.033119 123.989853,107.520645 
	C124.022324,108.150299 124.030273,108.510811 124.038216,108.871323 
z"/>
<path fill="#F5F5F4" opacity="1.000000" stroke="none" 
	d="
M107.043205,115.971062 
	C106.843674,115.808319 106.644142,115.645576 106.444603,115.482841 
	C106.738701,115.542480 107.032799,115.602112 107.157562,115.845779 
	C106.988220,116.029800 107.043205,115.971062 107.043205,115.971062 
z"/>
<path fill="#F5F5F4" opacity="1.000000" stroke="none" 
	d="
M106.971130,116.066216 
	C107.319473,115.991516 107.684914,115.880402 108.292542,116.014206 
	C108.394218,116.445938 108.253716,116.632759 107.883583,117.084641 
	C107.409492,117.075043 107.165024,116.800400 106.981873,116.248413 
	C107.043205,115.971062 106.988220,116.029800 106.971130,116.066216 
z"/>
<path fill="#878988" opacity="1.000000" stroke="none" 
	d="
M156.118622,64.280609 
	C159.955658,65.461113 163.805939,66.600807 167.624069,67.839561 
	C169.493668,68.446121 171.303543,69.236801 173.775482,70.250885 
	C175.616089,70.714905 176.821671,70.872200 178.027252,71.029495 
	C178.015091,71.746948 178.002930,72.464394 178.038361,73.539124 
	C170.884491,71.097565 163.683044,68.298729 156.308960,65.078331 
	C156.136322,64.656761 156.118622,64.280609 156.118622,64.280609 
z"/>
<path fill="#2A2C21" opacity="1.000000" stroke="none" 
	d="
M174.285049,108.980995 
	C175.048889,107.039330 176.187180,105.118011 177.633301,103.040253 
	C179.521027,106.357269 178.376999,108.369553 174.285049,108.980995 
z"/>
<path fill="#F1F2F1" opacity="1.000000" stroke="none" 
	d="
M178.432220,70.983231 
	C176.821671,70.872200 175.616089,70.714905 174.131775,70.323296 
	C175.539902,69.622429 177.226746,69.155869 179.338806,68.598824 
	C179.764023,68.508339 179.942551,68.450233 179.996429,68.460640 
	C179.645935,69.293015 179.241562,70.114983 178.432220,70.983231 
z"/>
<path fill="#2A2C21" opacity="1.000000" stroke="none" 
	d="
M179.488983,108.311386 
	C180.272110,107.957191 180.918457,107.864143 181.564789,107.771088 
	C181.339752,108.304825 181.114700,108.838562 180.889648,109.372299 
	C180.377182,109.105713 179.864685,108.839119 179.488983,108.311386 
z"/>
<path fill="#9AB592" opacity="1.000000" stroke="none" 
	d="
M206.627716,120.149719 
	C206.509933,120.796295 206.125381,121.372696 205.740829,121.949097 
	C205.240295,121.460609 204.739761,120.972130 204.255554,120.090942 
	C204.968231,119.825340 205.664597,119.952438 206.627716,120.149719 
z"/>
<path fill="#2A2C21" opacity="1.000000" stroke="none" 
	d="
M176.149612,114.005455 
	C176.149612,114.005455 176.006622,113.566238 175.983704,113.336449 
	C176.707870,113.485878 177.454971,113.865105 178.284058,114.613136 
	C178.366043,114.981949 178.331039,114.962013 178.036606,114.700462 
	C177.211319,114.294426 176.680466,114.149940 176.149612,114.005455 
z"/>
<path fill="#525451" opacity="1.000000" stroke="none" 
	d="
M171.814957,110.579987 
	C171.345856,110.755203 170.663132,110.646629 170.108017,110.286072 
	C170.690857,110.121468 171.146103,110.208832 171.814957,110.579987 
z"/>
<path fill="#9AB592" opacity="1.000000" stroke="none" 
	d="
M208.831177,136.998795 
	C208.546432,136.854248 208.608551,136.682251 208.821167,136.280991 
	C208.971664,136.051743 209.414719,135.971771 209.634750,135.925751 
	C209.629196,136.243607 209.403625,136.607468 208.831177,136.998795 
z"/>
<path fill="#9AB592" opacity="1.000000" stroke="none" 
	d="
M208.564758,119.304176 
	C208.542709,119.587044 208.335403,119.642212 208.128113,119.697388 
	C208.211899,119.490417 208.295700,119.283447 208.564758,119.304176 
z"/>
<path fill="#9AB592" opacity="1.000000" stroke="none" 
	d="
M206.082321,145.492065 
	C206.264175,143.530472 206.603424,141.829193 207.273697,139.990601 
	C207.848404,139.909821 208.092087,139.966309 208.708832,140.061676 
	C208.693665,142.243561 208.305435,144.386612 207.693665,146.803284 
	C207.059982,146.635406 206.649841,146.193878 206.082321,145.492065 
z"/>
<path fill="#E2E7DD" opacity="1.000000" stroke="none" 
	d="
M128.166245,112.973419 
	C127.772942,112.519638 127.379639,112.065849 127.336182,111.240311 
	C129.170578,111.251549 130.655136,111.634537 132.139694,112.017517 
	C133.731201,113.183510 135.322723,114.349495 136.944290,115.537514 
	C134.440720,116.005058 132.491058,116.369156 130.326355,116.216690 
	C129.462936,114.791229 128.814590,113.882324 128.166245,112.973419 
z"/>
<path fill="#878988" opacity="1.000000" stroke="none" 
	d="
M131.951157,111.740425 
	C130.655136,111.634537 129.170578,111.251549 127.281502,110.944534 
	C126.876991,111.020493 126.939293,110.989433 127.077690,110.749176 
	C126.763275,109.863312 126.310455,109.217697 125.903152,108.155342 
	C125.972717,107.460152 125.996780,107.181702 126.020844,106.903244 
	C127.934776,108.423271 129.848694,109.943306 131.951157,111.740425 
z"/>
<path fill="#F1F2F1" opacity="1.000000" stroke="none" 
	d="
M156.069672,63.977295 
	C156.118622,64.280609 156.136322,64.656761 156.059555,64.828720 
	C155.030045,64.574875 154.077301,64.149055 153.087067,63.383324 
	C154.039948,63.253597 155.030334,63.463791 156.069672,63.977295 
z"/>
<path fill="#7D7D7D" opacity="1.000000" stroke="none" 
	d="
M127.953018,113.154701 
	C128.814590,113.882324 129.462936,114.791229 130.072937,116.059128 
	C129.156464,115.860313 128.278351,115.302513 127.226501,114.479492 
	C127.281761,113.921509 127.510780,113.628746 127.953018,113.154701 
z"/>
<path fill="#1F201E" opacity="1.000000" stroke="none" 
	d="
M176.006104,114.305916 
	C176.680466,114.149940 177.211319,114.294426 178.057510,114.708694 
	C177.441116,115.340523 176.509384,115.702568 175.577667,116.064621 
	C175.672653,115.578545 175.767624,115.092461 176.006104,114.305916 
z"/>
<path fill="#7D7D7D" opacity="1.000000" stroke="none" 
	d="
M123.965317,107.251495 
	C123.881851,107.033119 123.798386,106.814751 123.682129,106.247192 
	C124.114845,105.894691 124.580345,105.891365 125.062294,106.413345 
	C124.924332,107.110428 124.769913,107.282196 124.453018,107.403152 
	C124.290527,107.352348 123.965317,107.251495 123.965317,107.251495 
z"/>
<path fill="#7D7D7D" opacity="1.000000" stroke="none" 
	d="
M125.932487,106.763397 
	C125.996780,107.181702 125.972717,107.460152 125.675377,107.990662 
	C125.139900,107.979805 124.877701,107.716888 124.615501,107.453964 
	C124.769913,107.282196 124.924332,107.110428 125.322929,106.690659 
	C125.567116,106.442665 125.844131,106.623543 125.932487,106.763397 
z"/>
<path fill="#E2E7DD" opacity="1.000000" stroke="none" 
	d="
M132.429382,118.538727 
	C132.385376,118.471390 132.473404,118.606064 132.429382,118.538727 
z"/>
<path fill="#3A3B3B" opacity="1.000000" stroke="none" 
	d="
M150.131821,38.184391 
	C149.773026,36.692329 149.894409,35.306679 150.016724,33.500023 
	C150.428558,34.482121 150.839447,35.885231 151.405197,37.658401 
	C151.244049,38.115910 150.928040,38.203358 150.131821,38.184391 
z"/>
<path fill="#F1F2F1" opacity="1.000000" stroke="none" 
	d="
M157.998474,58.998032 
	C158.088974,58.962246 158.181000,58.928429 158.138596,58.948856 
	C158.004166,59.003098 158.000000,59.000000 157.998474,58.998032 
z"/>
<path fill="#9AB592" opacity="1.000000" stroke="none" 
	d="
M203.581726,126.411072 
	C201.828171,125.444717 201.828171,125.444717 205.354416,123.144531 
	C204.625122,124.560837 204.210464,125.366104 203.581726,126.411072 
z"/>
<path fill="#9AB592" opacity="1.000000" stroke="none" 
	d="
M200.633392,129.256516 
	C200.596756,129.289566 200.670029,129.223450 200.633392,129.256516 
z"/>
<path fill="#E2E7DD" opacity="1.000000" stroke="none" 
	d="
M124.453018,107.403152 
	C124.877701,107.716888 125.139900,107.979805 125.629868,108.407410 
	C126.310455,109.217697 126.763275,109.863312 127.084625,110.783226 
	C126.098320,110.502647 125.243484,109.947762 124.213432,109.132095 
	C124.030273,108.510811 124.022324,108.150299 123.989853,107.520645 
	C123.965317,107.251495 124.290527,107.352348 124.453018,107.403152 
z"/>
</svg>