<svg version="1.1" id="Layer_1" xmlns="http://www.w3.org/2000/svg" xmlns:xlink="http://www.w3.org/1999/xlink" x="0px" y="0px"
	 width="100%" viewBox="0 0 860 542" enable-background="new 0 0 860 542" xml:space="preserve">
<path fill="#050405" opacity="1.000000" stroke="none" 
	d="
M610.000000,543.000000 
	C406.666656,543.000000 203.833328,543.000000 1.000000,543.000000 
	C1.000000,362.333344 1.000000,181.666672 1.000000,1.000000 
	C287.666656,1.000000 574.333313,1.000000 861.000000,1.000000 
	C861.000000,181.666672 861.000000,362.333344 861.000000,543.000000 
	C777.500000,543.000000 694.000000,543.000000 610.000000,543.000000 
M571.000366,485.982788 
	C571.000366,485.982788 570.960449,486.048553 571.750977,486.255219 
	C574.800537,484.615448 579.533325,483.680237 580.572021,481.198730 
	C583.273376,474.745026 584.352539,467.612305 586.190308,460.307983 
	C583.332947,460.307983 582.026245,460.307983 579.832458,460.134155 
	C568.235168,460.058136 556.637817,459.982117 545.029297,459.099792 
	C546.801819,446.731384 548.574341,434.362976 550.312012,422.238159 
	C559.548401,421.820496 568.283325,421.425507 577.470032,421.052765 
	C577.470032,421.052765 577.913391,420.963440 578.740051,421.167572 
	C587.560974,420.195435 590.480835,417.814636 592.393372,409.361938 
	C593.441833,404.727814 593.996582,399.981995 594.909485,394.468323 
	C591.243896,394.468323 588.133118,394.468323 584.109985,394.233093 
	C574.242554,394.233093 564.375122,394.233093 554.827576,394.233093 
	C555.627380,383.352997 556.367065,373.290405 557.718567,362.931732 
	C566.263367,354.536926 575.752014,347.426758 585.652405,340.876953 
	C586.028687,341.271301 586.404907,341.665649 586.781128,342.059967 
	C580.864502,353.965179 574.947937,365.870392 569.031311,377.775574 
	C569.525208,378.084229 570.019165,378.392853 570.513062,378.701508 
	C578.707581,365.642303 586.902039,352.583069 595.096558,339.523865 
	C595.572205,339.669250 596.047913,339.814636 596.523560,339.959991 
	C596.523560,357.958221 596.523560,375.956421 596.523560,393.954651 
	C596.885864,393.988037 597.248169,394.021423 597.610474,394.054810 
	C601.034424,384.302460 604.458435,374.550110 608.259155,363.724579 
	C611.985229,374.781219 615.289246,384.585632 618.682373,394.654358 
	C615.308716,394.877228 612.656738,395.052429 609.202576,395.113800 
	C600.544373,395.931000 597.556091,398.079987 595.547424,406.332550 
	C594.099976,412.279602 593.393982,418.416931 592.527100,424.493591 
	C590.250183,440.453186 587.832947,456.398193 585.923706,472.402954 
	C584.563721,483.803650 587.705750,486.936676 599.934692,487.007202 
	C617.201721,487.037109 634.473206,487.298981 651.733459,486.972534 
	C657.861816,486.856628 662.739746,487.346344 664.079712,494.470001 
	C664.099792,494.577148 664.597839,494.594421 665.413940,494.770172 
	C664.793396,492.109528 664.229919,489.693573 663.570129,486.864838 
	C666.410217,486.864838 669.224548,486.864838 672.859497,487.030914 
	C677.241821,485.989563 681.624146,484.948212 686.180481,484.585632 
	C685.653198,485.255035 685.125916,485.924438 684.377258,486.874908 
	C686.271057,486.874908 687.674377,486.874908 689.993286,487.033569 
	C697.432007,486.991302 704.870789,486.949066 713.082214,487.072174 
	C716.963196,486.047974 720.844238,485.023773 724.762573,484.854614 
	C724.896729,488.470673 727.510742,486.616608 730.074890,487.028809 
	C735.128235,486.981140 740.181641,486.933472 745.944092,487.058105 
	C747.318542,486.722565 748.693054,486.387024 750.007629,486.013763 
	C750.007629,486.013763 749.983887,486.080383 750.756958,486.348969 
	C753.390259,485.303009 756.023560,484.257050 758.684509,484.173157 
	C758.301331,488.148682 761.064575,486.922607 764.030029,487.031189 
	C769.345947,486.972839 774.661926,486.914459 780.802246,487.029510 
	C791.881104,485.969208 794.217163,484.080688 796.383240,473.240479 
	C797.682129,466.740265 798.493408,460.136292 799.359863,453.557343 
	C801.396362,438.094269 803.717285,422.654114 805.171143,407.134216 
	C806.069092,397.549103 803.552185,395.485382 793.028259,394.958862 
	C768.013855,394.996399 742.999512,395.033936 717.161987,394.943085 
	C707.112732,395.964111 704.746765,398.104126 702.704407,408.047668 
	C702.471802,409.180511 702.271484,410.321930 702.108032,411.466797 
	C699.111450,432.447174 696.112732,453.427277 693.140381,474.411102 
	C692.495605,478.963379 690.283936,482.274475 685.154663,483.475220 
	C686.476135,479.412018 688.387512,475.438263 689.019531,471.270538 
	C692.148071,450.638824 695.035889,429.968933 697.807739,409.285553 
	C699.208191,398.835175 695.999878,395.439636 684.305542,395.080627 
	C666.994385,394.865204 649.681458,394.723297 632.374817,394.316071 
	C630.717041,394.277039 628.164062,392.967377 627.604004,391.601013 
	C621.121094,375.785980 614.678284,359.942413 608.828735,343.886444 
	C606.835999,338.416748 603.766235,334.953918 598.655457,332.514557 
	C577.522278,322.427643 556.474487,312.161621 535.415344,301.920227 
	C528.303833,298.461761 520.317200,295.905609 519.077271,286.951752 
	C508.567413,301.933380 498.044617,316.933533 487.521820,331.933655 
	C497.089050,327.404205 503.695953,318.698730 512.914062,313.683960 
	C513.109985,313.941406 513.305908,314.198853 513.214417,315.066864 
	C510.004120,319.298492 506.777344,323.517822 503.588074,327.765289 
	C500.401550,332.009094 497.252563,336.281097 494.087128,340.540771 
	C494.468475,340.976257 494.849792,341.411743 495.231140,341.847198 
	C506.964905,333.110565 518.698669,324.373932 530.432434,315.637299 
	C530.702209,315.806244 530.971985,315.975220 531.241760,316.144165 
	C526.733154,327.537842 522.224487,338.931488 517.715820,350.325165 
	C518.184631,350.564911 518.653442,350.804657 519.122253,351.044373 
	C526.719727,339.398529 534.317200,327.752686 542.536072,315.154327 
	C543.630310,324.002930 544.567017,331.578033 545.559875,339.606903 
	C554.406921,335.936371 562.543823,332.560455 570.680786,329.184540 
	C571.096558,329.594238 571.512329,330.003937 571.928162,330.413635 
	C565.429321,339.551788 558.930481,348.689941 551.706238,357.853180 
	C549.241638,357.623230 546.776978,357.393250 543.343445,357.033478 
	C535.837036,357.062225 528.330566,357.090973 520.087341,356.971222 
	C518.835510,357.027740 517.583679,357.084259 516.607117,357.128326 
	C518.337219,359.906738 521.561035,362.686798 521.413513,365.274689 
	C520.864807,374.897675 519.207581,384.457397 517.994629,393.824371 
	C513.188293,394.282837 509.098114,394.673004 505.036926,395.049957 
	C505.036926,395.049957 505.063568,395.067261 504.239349,394.918854 
	C496.134857,395.176849 491.250458,399.177277 489.153809,406.886505 
	C487.878937,396.958893 486.251007,395.406158 476.077240,395.103180 
	C470.833618,394.819641 465.589966,394.536102 459.872253,394.226898 
	C459.872253,380.106323 459.872253,366.455658 459.872253,351.471436 
	C451.900330,365.908447 456.378143,380.415680 454.589203,394.469391 
	C442.474030,394.469391 430.501953,394.502289 418.530273,394.447662 
	C415.291901,394.432922 412.054749,394.153320 408.966064,393.068909 
	C409.003204,385.643890 409.419708,378.194244 408.939270,370.802856 
	C408.637329,366.157593 406.989777,361.599792 405.975708,356.399902 
	C405.517639,355.600525 405.059601,354.801147 404.024475,352.994751 
	C404.175873,355.122833 404.243164,356.068848 404.117096,357.932251 
	C404.056671,370.277496 403.996246,382.622772 403.195038,395.008972 
	C402.456909,395.083984 401.718750,395.158997 400.170624,395.102539 
	C390.579651,395.937561 387.333099,398.774689 385.866730,408.416412 
	C383.723694,422.507019 382.524536,436.778595 379.642883,450.708191 
	C377.098236,463.008575 381.022003,477.587585 366.970245,486.867767 
	C369.578064,486.867767 370.867554,486.867767 373.062195,487.028870 
	C381.003967,486.972137 388.945740,486.915436 397.676025,487.032227 
	C399.739899,486.777466 401.803741,486.522675 403.900940,487.159576 
	C403.900940,491.095154 403.900940,495.030731 403.900940,499.137207 
	C405.750763,499.137207 407.146637,499.137207 408.871307,499.137207 
	C408.871307,493.848236 408.871307,488.762573 409.202820,483.075775 
	C410.442963,479.486542 412.130920,475.982025 412.829315,472.290253 
	C414.249786,464.781647 415.047089,457.157593 416.265106,449.607574 
	C417.741669,440.454987 419.387787,431.329803 421.896332,422.075897 
	C431.373932,422.070923 440.851562,422.065918 450.550659,422.932831 
	C447.616730,444.181152 444.682831,465.429474 441.719330,486.891846 
	C443.870728,486.891846 445.335358,486.891846 447.713928,487.054321 
	C450.108643,487.054321 452.503357,487.054321 455.131775,487.054321 
	C455.131775,491.125305 455.131775,494.395111 455.131775,497.781372 
	C456.908417,497.781372 458.413055,497.781372 460.115204,497.781372 
	C460.115204,494.824890 459.839691,492.150085 460.250397,489.585083 
	C460.415222,488.555511 462.087860,487.767365 463.886841,487.038788 
	C474.987427,486.087860 477.764984,483.794495 479.771545,472.944092 
	C481.096619,465.778961 481.884308,458.515381 482.960938,451.303101 
	C484.595184,440.355591 486.271393,429.414307 487.910217,419.394897 
	C489.590546,419.967377 491.270844,420.539856 493.437592,421.368988 
	C493.619263,421.344666 493.800964,421.320312 494.708862,421.617828 
	C501.079742,421.617828 507.450653,421.617828 514.178833,421.617828 
	C511.452301,439.806366 508.851898,457.015228 506.302979,474.231689 
	C505.397156,480.349884 507.521515,484.835480 512.104004,485.912811 
	C514.971680,486.587006 518.000732,486.574554 521.890686,487.012787 
	C536.595581,486.954224 551.300476,486.895691 566.750305,487.017944 
	C568.189697,486.684845 569.629089,486.351746 571.000366,485.982788 
M290.800568,421.285126 
	C308.150024,421.285126 325.499451,421.285126 342.701935,421.285126 
	C343.357849,427.716522 339.667297,427.466736 336.306396,427.505646 
	C321.550446,427.676392 306.793976,427.805267 291.282074,427.868469 
	C290.527679,427.944733 289.773254,428.020996 288.186768,427.906769 
	C278.374817,428.796722 275.708221,430.771179 273.952789,440.505249 
	C271.931580,451.713196 270.298126,463.013092 269.070709,474.335327 
	C268.032959,483.908112 271.458191,486.887024 282.949585,486.995178 
	C306.948639,486.949463 330.947693,486.903778 355.784454,487.026642 
	C367.245239,485.989838 370.220673,483.889801 371.972992,472.647034 
	C375.293793,451.340973 378.182892,429.960938 380.832733,408.559814 
	C382.128082,398.098114 379.447113,395.512543 367.929138,394.966736 
	C366.593567,394.916718 365.257996,394.866699 363.419250,394.521179 
	C343.762146,394.417175 324.105103,394.266998 304.447906,394.236481 
	C298.308563,394.226959 292.168701,394.540619 285.462158,394.619110 
	C285.106476,394.754730 284.750824,394.890350 283.440186,394.792084 
	C281.023010,394.450226 279.645264,395.142181 279.826508,397.942749 
	C280.136505,402.733276 279.958160,407.574982 280.560760,412.322083 
	C281.345337,418.503052 283.428253,420.154846 290.800568,421.285126 
M68.985413,523.938660 
	C68.985413,523.938660 68.941216,523.989258 69.751999,524.145203 
	C79.927589,522.618042 84.468460,518.204468 86.158028,508.320618 
	C87.360191,501.288055 88.647682,494.270020 90.838539,487.109436 
	C107.904579,487.031006 124.970612,486.952606 142.856628,487.043701 
	C153.568832,486.224304 156.551254,483.675201 158.339478,473.221863 
	C159.595963,465.876740 160.570145,458.482239 161.604919,451.100616 
	C163.651428,436.501648 165.747818,421.908661 167.633636,407.288666 
	C168.626907,399.588226 165.791946,396.240967 157.998764,395.260193 
	C156.692917,395.095856 155.362320,395.128296 153.173477,394.947571 
	C129.072495,395.026428 104.971497,395.105255 80.071930,395.037872 
	C68.736382,395.950928 65.567734,399.092865 64.010559,410.717712 
	C59.644566,443.311340 55.169670,475.890594 50.915001,508.498688 
	C50.124588,514.556335 48.511490,519.839905 43.047863,523.268188 
	C42.711037,523.479492 42.627197,524.093994 42.304588,524.777344 
	C43.966747,524.777344 45.413094,524.777344 47.801216,524.937622 
	C52.659225,524.886780 57.517239,524.835938 63.097599,524.962158 
	C65.080429,524.630615 67.063263,524.299072 68.985413,523.938660 
M202.387024,456.327942 
	C206.157547,447.534851 209.959137,438.754852 213.680954,429.941193 
	C214.906876,427.038116 216.497452,426.254547 219.394104,428.007965 
	C224.480515,431.086914 229.714615,433.921906 234.907410,437.713623 
	C232.661133,454.021790 230.414841,470.329926 228.136139,486.873444 
	C230.103546,486.873444 231.562988,486.873444 233.941757,487.040924 
	C239.033661,486.987305 244.125580,486.933685 250.000488,487.047546 
	C261.387604,486.312897 264.473083,483.656769 266.361359,472.372223 
	C267.645294,464.699249 268.677429,456.981598 269.694519,449.267090 
	C271.534058,435.313660 273.749023,421.386475 274.903687,407.373871 
	C275.732574,397.315155 273.225250,395.374969 262.104584,394.885040 
	C258.869385,394.593506 255.634186,394.301971 252.686798,394.036346 
	C252.686798,377.063721 252.686798,360.638458 252.686798,344.213196 
	C252.993942,344.126709 253.301102,344.040253 253.608246,343.953766 
	C260.897766,354.612305 268.187256,365.270874 275.476776,375.929413 
	C275.984406,375.673828 276.492065,375.418243 276.999695,375.162659 
	C272.583862,366.199951 268.168030,357.237274 263.134369,347.020599 
	C275.725067,353.617065 287.028290,359.538971 298.331482,365.460907 
	C298.533203,365.145142 298.734894,364.829407 298.936615,364.513641 
	C292.155060,353.142578 285.373505,341.771484 279.062073,329.810852 
	C279.200317,329.600952 279.338562,329.391052 280.139099,329.412201 
	C300.166931,344.301392 317.622345,361.884094 334.292633,380.544983 
	C323.674164,362.046082 311.252258,344.741943 300.527130,326.133179 
	C310.135162,332.462738 319.743195,338.792328 330.485809,345.869324 
	C326.900635,334.853363 323.737671,325.134583 321.055756,314.793732 
	C321.192047,314.569824 321.328339,314.345886 322.088104,314.439667 
	C334.304596,325.490753 346.521057,336.541840 358.737549,347.592926 
	C358.992249,347.371277 359.246979,347.149597 359.501709,346.927948 
	C353.012695,335.083893 346.523712,323.239807 340.769836,311.017151 
	C340.994629,310.857605 341.219421,310.698059 342.034637,310.860870 
	C353.429382,319.726990 364.824127,328.593140 376.218872,337.459259 
	C376.703461,336.894012 377.188049,336.328766 377.672638,335.763519 
	C361.575592,320.488281 345.478546,305.213043 330.144409,290.661774 
	C327.660706,293.441010 325.783875,296.983673 322.853271,298.532776 
	C315.847412,302.235931 308.247437,304.792938 301.062775,308.184448 
	C283.801392,316.332672 266.642639,324.698151 249.438324,332.967407 
	C245.357117,334.929047 242.591217,337.908661 240.993805,342.272034 
	C235.800430,356.457886 230.435776,370.581940 225.020935,384.685181 
	C223.742004,388.016174 222.008286,391.172577 219.694946,394.178772 
	C216.785355,394.178772 213.875778,394.178772 210.600174,394.178772 
	C211.764557,385.937103 213.129196,378.461548 213.813248,370.924225 
	C214.837784,359.635254 211.940247,356.863861 199.402847,357.037842 
	C191.923615,357.082642 184.444382,357.127441 176.235062,357.021484 
	C175.005829,357.082642 173.776596,357.143799 173.563248,357.154388 
	C175.015472,360.604218 178.028091,364.209717 177.640045,367.401825 
	C174.593750,392.460175 170.899948,417.439819 167.398087,442.442657 
	C165.335907,457.166565 163.259842,471.888489 161.152603,486.877319 
	C163.084152,486.877319 164.546585,486.877319 166.927048,487.040466 
	C171.597885,486.991791 176.268723,486.943115 181.772629,487.068909 
	C183.146988,487.068909 184.521362,487.068909 186.262131,487.068909 
	C184.439087,492.381104 182.821747,497.093933 181.204391,501.806763 
	C181.674835,502.012543 182.145294,502.218292 182.615738,502.424072 
	C184.946671,497.006165 187.277588,491.588257 190.328171,485.928406 
	C194.953674,484.572906 197.357040,481.237213 198.251648,476.731262 
	C199.562927,470.126801 200.730545,463.493835 202.387024,456.327942 
M382.465424,326.184509 
	C370.857483,315.960114 359.134064,305.861542 347.739319,295.404785 
	C345.470367,293.322601 343.410187,289.991333 343.068024,287.026611 
	C342.117767,278.794037 341.735229,270.442291 341.925079,262.155823 
	C342.011932,258.363068 343.102020,254.016037 345.220154,250.942368 
	C357.394379,233.276291 369.897034,215.831268 382.598846,198.539383 
	C384.646759,195.751404 387.949341,193.291245 391.194336,192.085892 
	C401.615143,188.215164 412.193817,184.691956 422.898773,181.705551 
	C426.684357,180.649490 431.491516,180.311111 435.009155,181.711975 
	C459.533875,191.478714 483.859802,201.746933 508.195709,211.982208 
	C510.905029,213.121689 515.604553,215.514236 515.402954,216.555634 
	C514.522278,221.105453 518.411377,220.686707 520.177246,222.146088 
	C522.858154,224.361786 525.967957,226.058594 528.895508,227.975830 
	C528.673584,228.391296 528.451660,228.806778 528.229736,229.222244 
	C521.931702,226.916763 515.633728,224.611298 508.630219,222.047562 
	C509.183105,224.819977 509.433319,227.101364 510.103851,229.251678 
	C512.476562,236.860901 515.214539,244.364120 517.335205,252.039780 
	C518.081848,254.742279 518.107178,258.020691 517.312561,260.694641 
	C515.617004,266.400330 512.641602,271.744843 511.143005,277.485901 
	C508.169769,288.876038 503.276581,298.656036 493.846802,306.338776 
	C488.112640,311.010590 483.681458,317.300995 478.782135,322.965607 
	C477.426697,324.532806 476.490814,326.462891 475.362427,328.226471 
	C475.712280,328.488861 476.062134,328.751282 476.411987,329.013702 
	C479.405029,326.425781 482.536041,323.979828 485.368988,321.227173 
	C505.415833,301.748932 519.279846,278.396942 529.156433,252.366211 
	C534.169128,239.154816 534.144348,226.579391 528.510376,213.646988 
	C514.183777,180.761261 500.298218,147.682022 485.767822,114.887749 
	C483.073425,108.806656 478.904846,102.971298 474.165100,98.289551 
	C464.584045,88.825752 454.294312,80.054741 444.018738,71.325401 
	C432.664948,61.680084 426.102783,61.755150 414.497864,71.302811 
	C405.245911,78.914711 395.726715,86.292023 387.190247,94.655441 
	C380.133331,101.569283 373.167389,109.087532 368.224915,117.544167 
	C357.082489,136.609116 347.022797,156.320282 336.893585,175.959869 
	C328.138733,192.934708 319.730347,210.094742 311.514038,227.337387 
	C308.522858,233.614563 307.239380,240.559326 310.733154,247.119827 
	C317.131714,259.134949 323.917908,270.943451 330.509827,282.856171 
	C330.907806,283.575378 331.018860,284.453339 331.263397,285.257446 
	C331.852295,284.889954 332.441193,284.522491 333.030090,284.154999 
	C333.224762,275.149445 330.518921,266.027710 333.129486,257.109100 
	C334.690002,265.803955 336.016479,274.470764 336.839417,283.185089 
	C337.306641,288.133057 339.036469,292.175720 342.748413,295.389313 
	C355.449951,306.385712 368.152649,317.380981 380.911041,328.311127 
	C381.560669,328.867645 382.734222,328.812592 384.088257,329.147156 
	C383.500488,327.912537 383.219940,327.323273 382.465424,326.184509 
z"/>
<path fill="#F6F4F5" opacity="1.000000" stroke="none" 
	d="
M382.702393,326.459229 
	C383.219940,327.323273 383.500488,327.912537 384.088257,329.147156 
	C382.734222,328.812592 381.560669,328.867645 380.911041,328.311127 
	C368.152649,317.380981 355.449951,306.385712 342.748413,295.389313 
	C339.036469,292.175720 337.306641,288.133057 336.839417,283.185089 
	C336.016479,274.470764 334.690002,265.803955 333.129486,257.109100 
	C330.518921,266.027710 333.224762,275.149445 333.030090,284.154999 
	C332.441193,284.522491 331.852295,284.889954 331.263397,285.257446 
	C331.018860,284.453339 330.907806,283.575378 330.509827,282.856171 
	C323.917908,270.943451 317.131714,259.134949 310.733154,247.119827 
	C307.239380,240.559326 308.522858,233.614563 311.514038,227.337387 
	C319.730347,210.094742 328.138733,192.934708 336.893585,175.959869 
	C347.022797,156.320282 357.082489,136.609116 368.224915,117.544167 
	C373.167389,109.087532 380.133331,101.569283 387.190247,94.655441 
	C395.726715,86.292023 405.245911,78.914711 414.497864,71.302811 
	C426.102783,61.755150 432.664948,61.680084 444.018738,71.325401 
	C454.294312,80.054741 464.584045,88.825752 474.165100,98.289551 
	C478.904846,102.971298 483.073425,108.806656 485.767822,114.887749 
	C500.298218,147.682022 514.183777,180.761261 528.510376,213.646988 
	C534.144348,226.579391 534.169128,239.154816 529.156433,252.366211 
	C519.279846,278.396942 505.415833,301.748932 485.368988,321.227173 
	C482.536041,323.979828 479.405029,326.425781 476.411987,329.013702 
	C476.062134,328.751282 475.712280,328.488861 475.362427,328.226471 
	C476.490814,326.462891 477.426697,324.532806 478.782135,322.965607 
	C483.681458,317.300995 488.112640,311.010590 493.846802,306.338776 
	C503.276581,298.656036 508.169769,288.876038 511.143005,277.485901 
	C512.641602,271.744843 515.617004,266.400330 517.312561,260.694641 
	C518.107178,258.020691 518.081848,254.742279 517.335205,252.039780 
	C515.214539,244.364120 512.476562,236.860901 510.103851,229.251678 
	C509.433319,227.101364 509.183105,224.819977 508.630219,222.047562 
	C515.633728,224.611298 521.931702,226.916763 528.229736,229.222244 
	C528.451660,228.806778 528.673584,228.391296 528.895508,227.975830 
	C525.967957,226.058594 522.858154,224.361786 520.177246,222.146088 
	C518.411377,220.686707 514.522278,221.105453 515.402954,216.555634 
	C515.604553,215.514236 510.905029,213.121689 508.195709,211.982208 
	C483.859802,201.746933 459.533875,191.478714 435.009155,181.711975 
	C431.491516,180.311111 426.684357,180.649490 422.898773,181.705551 
	C412.193817,184.691956 401.615143,188.215164 391.194336,192.085892 
	C387.949341,193.291245 384.646759,195.751404 382.598846,198.539383 
	C369.897034,215.831268 357.394379,233.276291 345.220154,250.942368 
	C343.102020,254.016037 342.011932,258.363068 341.925079,262.155823 
	C341.735229,270.442291 342.117767,278.794037 343.068024,287.026611 
	C343.410187,289.991333 345.470367,293.322601 347.739319,295.404785 
	C359.134064,305.861542 370.857483,315.960114 382.702393,326.459229 
M518.029724,207.924469 
	C518.257202,207.450836 518.484619,206.977203 518.519775,205.790878 
	C518.144043,204.869293 517.778076,203.943542 517.391052,203.026703 
	C505.833618,175.650040 494.256775,148.281540 482.730621,120.891701 
	C480.620758,115.878082 479.191437,110.675049 474.594055,106.931725 
	C462.851471,97.370567 451.388153,87.466789 439.786469,77.731842 
	C438.335114,76.514008 436.723022,75.487762 434.468628,73.852974 
	C433.382904,86.794373 432.380066,98.747612 431.356232,110.950951 
	C444.225616,112.299789 456.851929,112.366608 468.094086,119.121056 
	C457.104980,118.222664 446.115875,117.324265 434.712952,116.392044 
	C434.550140,118.865822 434.374695,120.816345 434.301147,122.770706 
	C433.956787,131.924484 434.199829,141.144714 433.139740,150.213409 
	C432.269012,157.662216 433.892334,162.333572 441.510040,164.706985 
	C445.868408,166.064896 449.810333,168.759399 453.939758,170.852142 
	C453.735565,171.321594 453.531403,171.791061 453.327209,172.260529 
	C446.367401,170.523941 439.407593,168.787338 431.829956,166.896576 
	C433.117767,170.996445 429.727753,175.325958 435.483032,177.666687 
	C459.480347,187.426559 483.343201,197.516739 507.281342,207.422974 
	C508.432098,207.899155 509.829956,207.778198 510.746674,208.321243 
	C511.002686,208.372482 511.258698,208.423721 511.514709,208.474976 
	C511.342438,208.317245 511.170197,208.159515 510.956146,207.319107 
	C507.038422,203.020340 503.120697,198.721588 499.202972,194.422821 
	C499.527832,194.044907 499.852722,193.666992 500.177582,193.289078 
	C506.004456,197.975189 511.831329,202.661316 518.029724,207.924469 
M400.337860,176.881683 
	C393.277252,179.969833 386.216644,183.057983 379.156036,186.146133 
	C381.022644,186.900040 382.646484,186.905975 384.163330,186.506042 
	C395.662109,183.474243 407.170074,180.469711 418.613739,177.239105 
	C426.314972,175.064987 426.270172,174.906326 425.661072,165.818680 
	C417.335754,169.442795 409.178802,172.993622 400.337860,176.881683 
M420.989319,123.014511 
	C422.211761,123.014511 423.434204,123.014511 424.551178,123.014511 
	C425.341644,133.992874 426.100250,144.528839 426.858826,155.064819 
	C427.200226,155.047958 427.541595,155.031097 427.882996,155.014236 
	C429.011475,142.450287 430.139954,129.886337 431.334106,116.591301 
	C426.192200,118.826752 422.073181,120.617500 417.954193,122.408249 
	C418.038177,122.636307 418.122162,122.864372 418.206116,123.092430 
	C418.864502,123.092430 419.522888,123.092430 420.989319,123.014511 
M428.905853,107.194336 
	C428.905853,97.263817 428.905853,87.333298 428.905853,76.198486 
	C427.448090,84.911057 426.263885,92.524071 424.869324,100.098373 
	C424.166321,103.916740 423.558105,107.923538 418.732605,109.122437 
	C417.660461,109.388809 416.795288,110.488045 415.834808,111.203812 
	C419.778107,111.660393 423.384399,111.469719 426.914856,110.848206 
	C427.713013,110.707695 428.247375,109.068581 428.905853,107.194336 
M356.704926,220.199188 
	C359.564026,214.413696 366.236572,210.658890 366.005768,203.206833 
	C356.104065,213.777069 347.161072,224.930679 342.560608,238.962784 
	C347.120911,232.890686 351.681213,226.818588 356.704926,220.199188 
z"/>
<path fill="#FDFDFE" opacity="1.000000" stroke="none" 
	d="
M142.036652,486.874207 
	C124.970612,486.952606 107.904579,487.031006 89.970566,487.093201 
	C85.855247,486.408234 84.723557,488.103485 84.324387,491.040436 
	C83.743965,495.311035 82.550102,499.523529 82.265144,503.803894 
	C81.641907,513.165283 78.138527,520.396423 68.941216,523.989258 
	C68.941216,523.989258 68.985413,523.938660 68.618393,523.863647 
	C66.292671,524.120728 64.333954,524.452881 62.375244,524.785034 
	C57.517239,524.835938 52.659225,524.886780 47.452911,524.547729 
	C52.645813,520.039124 55.470428,514.500854 55.775276,507.629700 
	C55.878529,505.302399 55.889286,502.956665 56.204388,500.655243 
	C60.118252,472.069672 64.033470,443.484070 68.059196,414.914093 
	C69.255135,406.426727 69.528595,397.162628 80.870506,395.184082 
	C104.971497,395.105255 129.072495,395.026428 153.889557,395.210632 
	C162.187195,397.534576 163.993042,400.123138 162.838165,408.703033 
	C159.957214,430.105988 156.880066,451.482666 153.863190,472.867249 
	C152.857422,479.996368 149.867401,485.488831 142.036652,486.874207 
M123.687943,460.139832 
	C127.124268,460.562378 128.846146,459.176361 129.322235,455.604919 
	C130.718811,445.128235 132.373962,434.686188 133.855011,424.220276 
	C133.979233,423.342377 133.557907,422.387268 133.449387,421.793121 
	C122.525169,421.793121 111.994919,421.793121 100.804863,421.955872 
	C100.579491,421.978760 100.354118,422.001648 99.305092,421.864044 
	C96.114983,421.528381 94.298973,422.894470 93.823837,426.121490 
	C92.910553,432.324432 91.899750,438.513000 90.982964,444.715454 
	C90.243782,449.716339 89.583389,454.728851 88.860275,459.936218 
	C90.855812,459.936218 92.166229,459.936218 94.473503,460.054535 
	C103.928177,460.036987 113.382858,460.019440 123.687943,460.139832 
z"/>
<path fill="#FDFDFE" opacity="1.000000" stroke="none" 
	d="
M289.018860,428.097290 
	C289.773254,428.020996 290.527679,427.944733 292.107391,428.031433 
	C295.257263,428.204041 297.581879,428.232147 299.906311,428.220306 
	C313.853119,428.149231 327.800018,428.091919 341.746460,427.977875 
	C345.894073,427.943970 348.254639,426.190247 347.425049,421.028015 
	C339.683685,421.028015 332.072357,421.124359 324.464386,421.005493 
	C313.021820,420.826721 301.581635,420.497345 289.822998,420.034485 
	C288.031219,417.353363 285.654724,415.001709 285.268280,412.359039 
	C284.435059,406.660645 284.624268,400.812683 284.395142,395.025940 
	C284.750824,394.890350 285.106476,394.754730 286.177551,394.794128 
	C312.569427,394.918335 338.245911,394.867493 363.922424,394.816681 
	C365.257996,394.866699 366.593567,394.916718 368.696899,395.261719 
	C375.417755,397.627258 377.148834,399.851257 376.262054,406.911896 
	C373.516968,428.769165 370.377960,450.576660 367.492065,472.416718 
	C366.478638,480.086365 363.091187,485.485168 354.946747,486.858093 
	C330.947693,486.903778 306.948639,486.949463 282.212463,486.698792 
	C274.864838,484.737305 273.320618,483.446228 273.955963,476.842560 
	C275.129150,464.648071 277.131775,452.535767 278.578033,440.364197 
	C279.355530,433.820496 282.594849,429.681641 289.018860,428.097290 
M305.083923,457.509735 
	C305.728607,458.382080 306.373260,459.254395 307.695099,460.574463 
	C317.295166,460.644318 326.898041,460.881805 336.494263,460.721405 
	C342.290649,460.624512 343.179962,459.385010 342.176056,454.157440 
	C330.364929,454.157440 318.467102,454.120300 306.571594,454.271271 
	C305.998535,454.278534 305.446503,455.943268 305.083923,457.509735 
z"/>
<path fill="#FEFEFF" opacity="1.000000" stroke="none" 
	d="
M712.309509,486.906830 
	C704.870789,486.949066 697.432007,486.991302 689.661560,486.655762 
	C692.185242,482.360504 696.841675,478.756622 697.587646,474.471924 
	C701.016052,454.780823 703.144958,434.867706 706.181091,415.101990 
	C707.414429,407.073120 707.043030,397.595184 717.985107,395.071472 
	C742.999512,395.033936 768.013855,394.996399 793.726868,395.251343 
	C800.391785,398.098114 801.882324,401.270264 800.728027,409.885376 
	C798.151367,429.117340 795.626160,448.358734 792.751587,467.547089 
	C791.518250,475.779846 791.119507,484.990051 779.977844,486.856079 
	C774.661926,486.914459 769.345947,486.972839 763.562195,486.535553 
	C766.153870,464.562042 769.213379,443.084167 772.477417,420.170532 
	C769.572815,421.532806 768.298950,422.130280 766.629211,422.829712 
	C765.790955,423.712860 765.070557,424.452728 764.947510,425.281372 
	C762.903137,439.040222 761.039307,452.826599 758.904724,466.571045 
	C757.773865,473.851776 757.636230,481.723328 749.983887,486.080383 
	C749.983887,486.080383 750.007629,486.013763 749.674377,485.944519 
	C747.972412,486.212097 746.603699,486.548920 745.234985,486.885803 
	C740.181641,486.933472 735.128235,486.981140 729.612244,486.542694 
	C732.243530,464.652191 735.337402,443.247772 738.485840,421.465820 
	C731.326782,421.654602 732.834839,426.696045 731.546753,430.279846 
	C729.148071,444.002350 727.014893,457.519836 725.008728,471.056152 
	C723.850952,478.868195 721.465820,485.565033 712.309509,486.906830 
z"/>
<path fill="#FEFEFF" opacity="1.000000" stroke="none" 
	d="
M672.038879,486.864838 
	C669.224548,486.864838 666.410217,486.864838 663.570129,486.864838 
	C664.229919,489.693573 664.793396,492.109528 665.413940,494.770172 
	C664.597839,494.594421 664.099792,494.577148 664.079712,494.470001 
	C662.739746,487.346344 657.861816,486.856628 651.733459,486.972534 
	C634.473206,487.298981 617.201721,487.037109 599.198853,486.711060 
	C591.993896,485.796326 589.159790,482.270111 590.479614,472.173828 
	C592.517212,456.586914 594.726318,441.021149 597.015381,425.468872 
	C598.050537,418.435333 599.252014,411.412170 600.758667,404.466888 
	C601.784546,399.737396 604.630310,396.411987 610.363770,395.993835 
	C616.760925,395.696808 622.696411,395.090607 628.627930,395.126953 
	C647.519470,395.242676 666.409668,395.597382 685.657349,395.867920 
	C692.324158,397.753937 694.139587,400.116974 693.074036,408.496918 
	C690.331604,430.064636 687.062500,451.565094 684.063416,473.100708 
	C683.051086,480.369720 679.815186,485.567749 672.038879,486.864838 
M654.819336,460.234772 
	C657.590088,460.487549 659.246460,459.275970 659.636658,456.493408 
	C661.106201,446.012665 662.502441,435.521210 664.050415,425.052124 
	C664.534607,421.777344 663.035950,420.881409 659.222290,420.990265 
	C652.737061,420.972504 646.249573,420.842743 639.767456,420.976746 
	C635.514221,421.064667 631.268921,421.533813 626.317139,422.084534 
	C625.348083,424.071594 623.825928,425.973083 623.503052,428.060089 
	C621.865601,438.643799 620.539429,449.275696 619.609375,460.546936 
	C631.073242,460.500610 642.537109,460.454285 654.819336,460.234772 
z"/>
<path fill="#FEFEFF" opacity="1.000000" stroke="none" 
	d="
M249.217484,486.880066 
	C244.125580,486.933685 239.033661,486.987305 233.469498,486.535339 
	C235.750275,466.181824 238.340256,446.308716 241.389236,426.506348 
	C242.024719,422.379028 241.263336,420.843689 236.706970,421.033813 
	C226.358185,420.968658 216.495041,420.916687 206.633011,420.998779 
	C205.094681,421.011566 203.561417,421.635345 201.967606,422.383484 
	C201.291794,426.894409 200.675064,430.998566 200.056412,435.102417 
	C198.050018,448.411774 196.139954,461.736786 193.980484,475.021271 
	C193.278732,479.338196 191.873550,483.514740 186.745956,485.229980 
	C184.569061,485.763184 182.754318,486.328827 180.939575,486.894470 
	C176.268723,486.943115 171.597885,486.991791 166.453430,486.543915 
	C167.942947,472.115631 169.922989,458.186279 171.865326,444.251648 
	C174.835983,422.939514 177.939972,401.644012 180.653641,380.299011 
	C181.662231,372.365692 186.018143,363.614014 176.965149,357.172272 
	C184.444382,357.127441 191.923615,357.082642 200.136841,357.294434 
	C208.338852,359.319458 209.762390,361.238953 209.185532,369.014984 
	C209.001617,371.493988 208.635941,373.960968 208.309723,376.427643 
	C207.531784,382.309906 206.727768,388.188721 205.828568,394.852478 
	C211.247742,394.852478 216.036606,394.852478 221.302124,394.908264 
	C235.644150,395.221161 249.509552,395.478302 263.730652,395.765350 
	C268.516296,396.730316 270.570984,399.430481 270.303741,403.975677 
	C270.060272,408.117188 270.244568,412.307861 269.692627,416.403046 
	C267.236420,434.627441 264.526123,452.817413 262.028381,471.036377 
	C260.938843,478.983612 258.394897,485.563416 249.217484,486.880066 
z"/>
<path fill="#FDFDFE" opacity="1.000000" stroke="none" 
	d="
M520.824158,357.119720 
	C528.330566,357.090973 535.837036,357.062225 544.059326,357.326599 
	C551.241211,359.165894 552.443481,360.488251 552.347534,367.205994 
	C552.286011,371.515198 551.747925,375.821869 551.329102,380.120483 
	C550.872253,384.809204 550.306274,389.487335 549.738037,394.620270 
	C562.074463,394.620270 573.540161,394.620270 585.412170,394.736267 
	C587.186523,395.038422 588.554626,395.224609 589.907410,395.408722 
	C589.504150,398.748444 589.310974,401.555756 588.804626,404.305389 
	C587.506958,411.352631 586.415161,418.600464 577.913391,420.963440 
	C577.913391,420.963440 577.470032,421.052765 576.779175,420.973969 
	C567.127625,421.019257 558.162903,421.038452 549.210449,421.379059 
	C547.848145,421.430908 545.528687,422.813507 545.365723,423.850067 
	C543.499634,435.717346 541.965576,447.636841 540.293396,459.906067 
	C542.144775,459.906067 543.592651,459.906067 545.040527,459.906067 
	C556.637817,459.982117 568.235168,460.058136 580.292053,460.610657 
	C580.201965,464.809387 579.612549,468.526245 579.111755,472.255066 
	C578.338196,478.014557 576.366760,483.039368 570.960449,486.048553 
	C570.960449,486.048553 571.000366,485.982788 570.659302,485.922607 
	C568.880676,486.187317 567.442993,486.512207 566.005371,486.837128 
	C551.300476,486.895691 536.595581,486.954224 521.142456,486.720673 
	C512.396973,485.043304 510.038422,482.181061 511.025909,474.320984 
	C512.013977,466.456451 513.365295,458.638031 514.516907,450.793457 
	C515.943970,441.072113 517.329346,431.344666 518.779480,421.295990 
	C510.142334,421.295990 502.062500,421.295990 493.982666,421.295990 
	C493.800964,421.320312 493.619263,421.344666 493.172546,420.792725 
	C492.989899,418.728302 492.897095,417.205414 493.183746,415.757690 
	C494.811493,407.537109 494.342072,398.074890 505.063568,395.067261 
	C505.063568,395.067261 505.036926,395.049957 505.484955,395.154785 
	C509.586151,395.167114 513.252197,394.841827 516.889099,395.042633 
	C521.176025,395.279358 523.369812,394.015594 523.245728,389.271698 
	C523.173828,386.521759 524.554626,383.748779 524.585754,380.978363 
	C524.677124,372.841248 529.875061,363.823029 520.824158,357.119720 
z"/>
<path fill="#FEFDFE" opacity="1.000000" stroke="none" 
	d="
M463.074188,486.869324 
	C462.087860,487.767365 460.415222,488.555511 460.250397,489.585083 
	C459.839691,492.150085 460.115204,494.824890 460.115204,497.781372 
	C458.413055,497.781372 456.908417,497.781372 455.131775,497.781372 
	C455.131775,494.395111 455.131775,491.125305 455.131775,487.054321 
	C452.503357,487.054321 450.108643,487.054321 447.256836,486.527954 
	C449.582214,464.898834 452.364716,443.796112 455.230591,422.060944 
	C453.179504,422.060944 451.754333,422.060944 450.329163,422.060944 
	C440.851562,422.065918 431.373932,422.070923 421.028992,422.040680 
	C416.503082,421.456116 415.275696,423.281158 414.823517,426.718719 
	C412.988342,440.669830 411.060028,454.612183 408.884552,468.513702 
	C407.664124,476.312469 407.006897,484.757172 396.887512,486.858734 
	C388.945740,486.915436 381.003967,486.972137 372.737274,486.653564 
	C377.141388,482.520355 381.028778,478.586182 381.824005,471.864502 
	C384.251831,451.343903 387.305206,430.897919 390.032745,410.411896 
	C391.291382,400.958801 393.936981,397.314362 401.382812,395.986237 
	C426.929779,395.990021 452.008453,395.977844 477.458618,395.973633 
	C482.066254,396.556061 483.673462,399.458008 483.942444,403.255890 
	C484.129272,405.893219 484.167419,408.597961 483.806458,411.208221 
	C480.972473,431.701111 477.965302,452.170105 475.146423,472.665039 
	C474.126617,480.079926 471.108704,485.540497 463.074188,486.869324 
z"/>
<path fill="#F0EEF1" opacity="1.000000" stroke="none" 
	d="
M263.374939,395.735413 
	C249.509552,395.478302 235.644150,395.221161 221.263184,394.762085 
	C220.747589,394.560181 220.483765,394.409271 220.483765,394.409271 
	C222.008286,391.172577 223.742004,388.016174 225.020935,384.685181 
	C230.435776,370.581940 235.800430,356.457886 240.993805,342.272034 
	C242.591217,337.908661 245.357117,334.929047 249.438324,332.967407 
	C266.642639,324.698151 283.801392,316.332672 301.062775,308.184448 
	C308.247437,304.792938 315.847412,302.235931 322.853271,298.532776 
	C325.783875,296.983673 327.660706,293.441010 330.144409,290.661774 
	C345.478546,305.213043 361.575592,320.488281 377.672638,335.763519 
	C377.188049,336.328766 376.703461,336.894012 376.218872,337.459259 
	C364.824127,328.593140 353.429382,319.726990 341.587769,310.485992 
	C340.814545,310.018890 340.488190,309.926697 340.052002,309.542603 
	C339.602386,309.294556 339.262634,309.338440 338.922852,309.382294 
	C339.101227,309.748505 339.279602,310.114746 339.469482,310.674988 
	C339.602081,311.111328 339.786652,311.286926 340.034698,311.395752 
	C346.523712,323.239807 353.012695,335.083893 359.501709,346.927948 
	C359.246979,347.149597 358.992249,347.371277 358.737549,347.592926 
	C346.521057,336.541840 334.304596,325.490753 321.533325,314.075287 
	C320.843903,314.279205 320.709290,314.847504 320.574677,315.415802 
	C323.737671,325.134583 326.900635,334.853363 330.485809,345.869324 
	C319.743195,338.792328 310.135162,332.462738 300.527130,326.133179 
	C311.252258,344.741943 323.674164,362.046082 334.292633,380.544983 
	C317.622345,361.884094 300.166931,344.301392 279.538727,329.106079 
	C278.822876,329.333435 278.707397,329.866913 278.591949,330.400391 
	C285.373505,341.771484 292.155060,353.142578 298.936615,364.513641 
	C298.734894,364.829407 298.533203,365.145142 298.331482,365.460907 
	C287.028290,359.538971 275.725067,353.617065 263.134369,347.020599 
	C268.168030,357.237274 272.583862,366.199951 276.999695,375.162659 
	C276.492065,375.418243 275.984406,375.673828 275.476776,375.929413 
	C268.187256,365.270874 260.897766,354.612305 253.608246,343.953766 
	C253.301102,344.040253 252.993942,344.126709 252.686798,344.213196 
	C252.686798,360.638458 252.686798,377.063721 252.686798,394.036346 
	C255.634186,394.301971 258.869385,394.593506 262.618896,395.129089 
	C263.133179,395.373169 263.374939,395.735413 263.374939,395.735413 
M247.816406,389.701813 
	C244.240143,382.869659 240.663895,376.037506 236.480545,368.045563 
	C233.277222,377.417938 230.505066,385.528809 227.570068,394.116089 
	C235.521912,394.116089 242.441833,394.116089 249.682571,394.116089 
	C249.112061,392.753174 248.618790,391.574768 247.816406,389.701813 
z"/>
<path fill="#EDECED" opacity="1.000000" stroke="none" 
	d="
M685.300354,395.859741 
	C666.409668,395.597382 647.519470,395.242676 628.627930,395.126953 
	C622.696411,395.090607 616.760925,395.696808 610.404541,395.808044 
	C609.981750,395.607117 610.004822,395.227600 610.004822,395.227600 
	C612.656738,395.052429 615.308716,394.877228 618.682373,394.654358 
	C615.289246,384.585632 611.985229,374.781219 608.259155,363.724579 
	C604.458435,374.550110 601.034424,384.302460 597.610474,394.054810 
	C597.248169,394.021423 596.885864,393.988037 596.523560,393.954651 
	C596.523560,375.956421 596.523560,357.958221 596.523560,339.959991 
	C596.047913,339.814636 595.572205,339.669250 595.096558,339.523865 
	C586.902039,352.583069 578.707581,365.642303 570.513062,378.701508 
	C570.019165,378.392853 569.525208,378.084229 569.031311,377.775574 
	C574.947937,365.870392 580.864502,353.965179 586.781128,342.059967 
	C586.404907,341.665649 586.028687,341.271301 585.652405,340.876953 
	C575.752014,347.426758 566.263367,354.536926 557.241638,362.760498 
	C555.320374,361.002228 553.876038,359.415161 552.431702,357.828094 
	C558.930481,348.689941 565.429321,339.551788 571.928162,330.413635 
	C571.512329,330.003937 571.096558,329.594238 570.680786,329.184540 
	C562.543823,332.560455 554.406921,335.936371 545.559875,339.606903 
	C544.567017,331.578033 543.630310,324.002930 542.536072,315.154327 
	C534.317200,327.752686 526.719727,339.398529 519.122253,351.044373 
	C518.653442,350.804657 518.184631,350.564911 517.715820,350.325165 
	C522.224487,338.931488 526.733154,327.537842 531.241760,316.144165 
	C530.971985,315.975220 530.702209,315.806244 530.432434,315.637299 
	C518.698669,324.373932 506.964905,333.110565 495.231140,341.847198 
	C494.849792,341.411743 494.468475,340.976257 494.087128,340.540771 
	C497.252563,336.281097 500.401550,332.009094 503.588074,327.765289 
	C506.777344,323.517822 510.004120,319.298492 513.576782,314.537872 
	C513.934082,313.427216 513.929077,312.845581 513.924072,312.263916 
	C513.426270,312.456757 512.928528,312.649567 512.430725,312.842377 
	C503.695953,318.698730 497.089050,327.404205 487.521820,331.933655 
	C498.044617,316.933533 508.567413,301.933380 519.077271,286.951752 
	C520.317200,295.905609 528.303833,298.461761 535.415344,301.920227 
	C556.474487,312.161621 577.522278,322.427643 598.655457,332.514557 
	C603.766235,334.953918 606.835999,338.416748 608.828735,343.886444 
	C614.678284,359.942413 621.121094,375.785980 627.604004,391.601013 
	C628.164062,392.967377 630.717041,394.277039 632.374817,394.316071 
	C649.681458,394.723297 666.994385,394.865204 684.758667,395.310852 
	C685.211731,395.541077 685.300354,395.859741 685.300354,395.859741 
z"/>
<path fill="#76F2F4" opacity="1.000000" stroke="none" 
	d="
M80.471222,395.110962 
	C69.528595,397.162628 69.255135,406.426727 68.059196,414.914093 
	C64.033470,443.484070 60.118252,472.069672 56.204388,500.655243 
	C55.889286,502.956665 55.878529,505.302399 55.775276,507.629700 
	C55.470428,514.500854 52.645813,520.039124 46.982025,524.467590 
	C45.413094,524.777344 43.966747,524.777344 42.304588,524.777344 
	C42.627197,524.093994 42.711037,523.479492 43.047863,523.268188 
	C48.511490,519.839905 50.124588,514.556335 50.915001,508.498688 
	C55.169670,475.890594 59.644566,443.311340 64.010559,410.717712 
	C65.567734,399.092865 68.736382,395.950928 80.471222,395.110962 
z"/>
<path fill="#76F2F4" opacity="1.000000" stroke="none" 
	d="
M176.600098,357.096863 
	C186.018143,363.614014 181.662231,372.365692 180.653641,380.299011 
	C177.939972,401.644012 174.835983,422.939514 171.865326,444.251648 
	C169.922989,458.186279 167.942947,472.115631 165.994415,486.462341 
	C164.546585,486.877319 163.084152,486.877319 161.152603,486.877319 
	C163.259842,471.888489 165.335907,457.166565 167.398087,442.442657 
	C170.899948,417.439819 174.593750,392.460175 177.640045,367.401825 
	C178.028091,364.209717 175.015472,360.604218 173.563248,357.154388 
	C173.776596,357.143799 175.005829,357.082642 176.600098,357.096863 
z"/>
<path fill="#E339EF" opacity="1.000000" stroke="none" 
	d="
M685.657349,395.867920 
	C685.300354,395.859741 685.211731,395.541077 685.229858,395.376556 
	C695.999878,395.439636 699.208191,398.835175 697.807739,409.285553 
	C695.035889,429.968933 692.148071,450.638824 689.019531,471.270538 
	C688.387512,475.438263 686.476135,479.412018 685.552551,483.706451 
	C685.950439,483.937683 686.006470,483.906860 686.006470,483.906860 
	C681.624146,484.948212 677.241821,485.989563 672.449219,486.947876 
	C679.815186,485.567749 683.051086,480.369720 684.063416,473.100708 
	C687.062500,451.565094 690.331604,430.064636 693.074036,408.496918 
	C694.139587,400.116974 692.324158,397.753937 685.657349,395.867920 
z"/>
<path fill="#E238EE" opacity="1.000000" stroke="none" 
	d="
M463.480530,486.954041 
	C471.108704,485.540497 474.126617,480.079926 475.146423,472.665039 
	C477.965302,452.170105 480.972473,431.701111 483.806458,411.208221 
	C484.167419,408.597961 484.129272,405.893219 483.942444,403.255890 
	C483.673462,399.458008 482.066254,396.556061 477.404785,395.796753 
	C476.979462,395.611877 476.947113,395.243439 476.947113,395.243439 
	C486.251007,395.406158 487.878937,396.958893 489.531250,407.425049 
	C489.249054,411.465851 488.589417,414.968109 487.929810,418.470398 
	C486.271393,429.414307 484.595184,440.355591 482.960938,451.303101 
	C481.884308,458.515381 481.096619,465.778961 479.771545,472.944092 
	C477.764984,483.794495 474.987427,486.087860 463.480530,486.954041 
z"/>
<path fill="#E339EF" opacity="1.000000" stroke="none" 
	d="
M263.730652,395.765320 
	C263.374939,395.735413 263.133179,395.373169 263.018738,395.187195 
	C273.225250,395.374969 275.732574,397.315155 274.903687,407.373871 
	C273.749023,421.386475 271.534058,435.313660 269.694519,449.267090 
	C268.677429,456.981598 267.645294,464.699249 266.361359,472.372223 
	C264.473083,483.656769 261.387604,486.312897 249.608978,486.963806 
	C258.394897,485.563416 260.938843,478.983612 262.028381,471.036377 
	C264.526123,452.817413 267.236420,434.627441 269.692627,416.403046 
	C270.244568,412.307861 270.060272,408.117188 270.303741,403.975677 
	C270.570984,399.430481 268.516296,396.730316 263.730652,395.765320 
z"/>
<path fill="#E238EE" opacity="1.000000" stroke="none" 
	d="
M142.446640,486.958923 
	C149.867401,485.488831 152.857422,479.996368 153.863190,472.867249 
	C156.880066,451.482666 159.957214,430.105988 162.838165,408.703033 
	C163.993042,400.123138 162.187195,397.534576 154.324387,395.271790 
	C155.362320,395.128296 156.692917,395.095856 157.998764,395.260193 
	C165.791946,396.240967 168.626907,399.588226 167.633636,407.288666 
	C165.747818,421.908661 163.651428,436.501648 161.604919,451.100616 
	C160.570145,458.482239 159.595963,465.876740 158.339478,473.221863 
	C156.551254,483.675201 153.568832,486.224304 142.446640,486.958923 
z"/>
<path fill="#E238EE" opacity="1.000000" stroke="none" 
	d="
M355.365601,486.942383 
	C363.091187,485.485168 366.478638,480.086365 367.492065,472.416718 
	C370.377960,450.576660 373.516968,428.769165 376.262054,406.911896 
	C377.148834,399.851257 375.417755,397.627258 369.194092,395.327026 
	C379.447113,395.512543 382.128082,398.098114 380.832733,408.559814 
	C378.182892,429.960938 375.293793,451.340973 371.972992,472.647034 
	C370.220673,483.889801 367.245239,485.989838 355.365601,486.942383 
z"/>
<path fill="#76F2F4" opacity="1.000000" stroke="none" 
	d="
M609.603699,395.170715 
	C610.004822,395.227600 609.981750,395.607117 609.940979,395.792908 
	C604.630310,396.411987 601.784546,399.737396 600.758667,404.466888 
	C599.252014,411.412170 598.050537,418.435333 597.015381,425.468872 
	C594.726318,441.021149 592.517212,456.586914 590.479614,472.173828 
	C589.159790,482.270111 591.993896,485.796326 598.735596,486.638489 
	C587.705750,486.936676 584.563721,483.803650 585.923706,472.402954 
	C587.832947,456.398193 590.250183,440.453186 592.527100,424.493591 
	C593.393982,418.416931 594.099976,412.279602 595.547424,406.332550 
	C597.556091,398.079987 600.544373,395.931000 609.603699,395.170715 
z"/>
<path fill="#E238EE" opacity="1.000000" stroke="none" 
	d="
M780.390015,486.942810 
	C791.119507,484.990051 791.518250,475.779846 792.751587,467.547089 
	C795.626160,448.358734 798.151367,429.117340 800.728027,409.885376 
	C801.882324,401.270264 800.391785,398.098114 794.163574,395.313171 
	C803.552185,395.485382 806.069092,397.549103 805.171143,407.134216 
	C803.717285,422.654114 801.396362,438.094269 799.359863,453.557343 
	C798.493408,460.136292 797.682129,466.740265 796.383240,473.240479 
	C794.217163,484.080688 791.881104,485.969208 780.390015,486.942810 
z"/>
<path fill="#76F2F4" opacity="1.000000" stroke="none" 
	d="
M400.914520,395.970245 
	C393.936981,397.314362 391.291382,400.958801 390.032745,410.411896 
	C387.305206,430.897919 384.251831,451.343903 381.824005,471.864502 
	C381.028778,478.586182 377.141388,482.520355 372.284698,486.572998 
	C370.867554,486.867767 369.578064,486.867767 366.970245,486.867767 
	C381.022003,477.587585 377.098236,463.008575 379.642883,450.708191 
	C382.524536,436.778595 383.723694,422.507019 385.866730,408.416412 
	C387.333099,398.774689 390.579651,395.937561 400.577759,395.354004 
	C400.984924,395.605469 400.914520,395.970245 400.914520,395.970245 
z"/>
<path fill="#76F2F4" opacity="1.000000" stroke="none" 
	d="
M717.573547,395.007263 
	C707.043030,397.595184 707.414429,407.073120 706.181091,415.101990 
	C703.144958,434.867706 701.016052,454.780823 697.587646,474.471924 
	C696.841675,478.756622 692.185242,482.360504 689.203735,486.576416 
	C687.674377,486.874908 686.271057,486.874908 684.377258,486.874908 
	C685.125916,485.924438 685.653198,485.255035 686.093506,484.246246 
	C686.006470,483.906860 685.950439,483.937683 685.934326,483.964966 
	C690.283936,482.274475 692.495605,478.963379 693.140381,474.411102 
	C696.112732,453.427277 699.111450,432.447174 702.108032,411.466797 
	C702.271484,410.321930 702.471802,409.180511 702.704407,408.047668 
	C704.746765,398.104126 707.112732,395.964111 717.573547,395.007263 
z"/>
<path fill="#77EBEF" opacity="1.000000" stroke="none" 
	d="
M494.345764,421.456909 
	C502.062500,421.295990 510.142334,421.295990 518.779480,421.295990 
	C517.329346,431.344666 515.943970,441.072113 514.516907,450.793457 
	C513.365295,458.638031 512.013977,466.456451 511.025909,474.320984 
	C510.038422,482.181061 512.396973,485.043304 520.675781,486.649384 
	C518.000732,486.574554 514.971680,486.587006 512.104004,485.912811 
	C507.521515,484.835480 505.397156,480.349884 506.302979,474.231689 
	C508.851898,457.015228 511.452301,439.806366 514.178833,421.617828 
	C507.450653,421.617828 501.079742,421.617828 494.345764,421.456909 
z"/>
<path fill="#77F4F6" opacity="1.000000" stroke="none" 
	d="
M237.192963,421.091064 
	C241.263336,420.843689 242.024719,422.379028 241.389236,426.506348 
	C238.340256,446.308716 235.750275,466.181824 233.009842,486.451599 
	C231.562988,486.873444 230.103546,486.873444 228.136139,486.873444 
	C230.414841,470.329926 232.661133,454.021790 234.948990,436.929810 
	C235.026962,435.178223 235.063354,434.210449 235.358383,432.932678 
	C236.052353,429.076111 236.487686,425.529541 236.979309,421.756592 
	C237.035568,421.530212 237.192963,421.091064 237.192963,421.091064 
z"/>
<path fill="#7DF4FD" opacity="1.000000" stroke="none" 
	d="
M767.025024,422.727753 
	C768.298950,422.130280 769.572815,421.532806 772.477417,420.170532 
	C769.213379,443.084167 766.153870,464.562042 763.109497,486.449463 
	C761.064575,486.922607 758.301331,488.148682 758.802063,483.344971 
	C761.621399,462.587128 764.323242,442.657440 767.025024,422.727753 
z"/>
<path fill="#E339EF" opacity="1.000000" stroke="none" 
	d="
M397.281769,486.945496 
	C407.006897,484.757172 407.664124,476.312469 408.884552,468.513702 
	C411.060028,454.612183 412.988342,440.669830 414.823517,426.718719 
	C415.275696,423.281158 416.503082,421.456116 420.561096,422.099121 
	C419.387787,431.329803 417.741669,440.454987 416.265106,449.607574 
	C415.047089,457.157593 414.249786,464.781647 412.829315,472.290253 
	C412.130920,475.982025 410.442963,479.486542 408.706055,483.506439 
	C406.762085,484.714050 405.314850,485.490997 403.867615,486.267944 
	C401.803741,486.522675 399.739899,486.777466 397.281769,486.945496 
z"/>
<path fill="#77F4F6" opacity="1.000000" stroke="none" 
	d="
M450.439911,422.496887 
	C451.754333,422.060944 453.179504,422.060944 455.230591,422.060944 
	C452.364716,443.796112 449.582214,464.898834 446.799866,486.446716 
	C445.335358,486.891846 443.870728,486.891846 441.719330,486.891846 
	C444.682831,465.429474 447.616730,444.181152 450.439911,422.496887 
z"/>
<path fill="#E53BF1" opacity="1.000000" stroke="none" 
	d="
M187.108109,485.262482 
	C191.873550,483.514740 193.278732,479.338196 193.980484,475.021271 
	C196.139954,461.736786 198.050018,448.411774 200.056412,435.102417 
	C200.675064,430.998566 201.291794,426.894409 202.399536,422.347900 
	C204.045959,421.945007 205.202240,421.984650 206.306305,422.461609 
	C205.869156,427.363922 205.484268,431.828888 205.082092,436.688660 
	C204.029648,443.679993 202.994507,450.276520 201.959351,456.873016 
	C200.730545,463.493835 199.562927,470.126801 198.251648,476.731262 
	C197.357040,481.237213 194.953674,484.572906 189.695404,486.019287 
	C188.411133,485.827606 187.759613,485.545044 187.108109,485.262482 
z"/>
<path fill="#E5E4EA" opacity="1.000000" stroke="none" 
	d="
M206.358536,422.024292 
	C205.202240,421.984650 204.045959,421.945007 202.457733,421.940979 
	C203.561417,421.635345 205.094681,421.011566 206.633011,420.998779 
	C216.495041,420.916687 226.358185,420.968658 236.706970,421.033813 
	C237.192963,421.091064 237.035568,421.530212 236.526520,421.712524 
	C231.999969,421.894806 227.982452,421.894806 222.905838,421.894806 
	C227.521454,426.190186 231.310608,429.716431 235.099762,433.242676 
	C235.063354,434.210449 235.026962,435.178223 234.938721,436.502533 
	C229.714615,433.921906 224.480515,431.086914 219.394104,428.007965 
	C216.497452,426.254547 214.906876,427.038116 213.680954,429.941193 
	C209.959137,438.754852 206.157547,447.534851 202.173187,456.600464 
	C202.994507,450.276520 204.029648,443.679993 205.384796,436.477051 
	C207.371872,431.365356 209.038956,426.860077 210.828354,422.024292 
	C208.926010,422.024292 207.642273,422.024292 206.358536,422.024292 
z"/>
<path fill="#7DF4FD" opacity="1.000000" stroke="none" 
	d="
M731.865601,430.082733 
	C732.834839,426.696045 731.326782,421.654602 738.485840,421.465820 
	C735.337402,443.247772 732.243530,464.652191 729.162781,486.455994 
	C727.510742,486.616608 724.896729,488.470673 724.885620,484.033936 
	C726.325928,474.367584 727.778015,465.539307 728.922668,456.671295 
	C730.064087,447.829163 730.897278,438.947235 731.865601,430.082733 
z"/>
<path fill="#76F2F4" opacity="1.000000" stroke="none" 
	d="
M288.602814,428.002014 
	C282.594849,429.681641 279.355530,433.820496 278.578033,440.364197 
	C277.131775,452.535767 275.129150,464.648071 273.955963,476.842560 
	C273.320618,483.446228 274.864838,484.737305 281.750275,486.626465 
	C271.458191,486.887024 268.032959,483.908112 269.070709,474.335327 
	C270.298126,463.013092 271.931580,451.713196 273.952789,440.505249 
	C275.708221,430.771179 278.374817,428.796722 288.602814,428.002014 
z"/>
<path fill="#F6F4F5" opacity="1.000000" stroke="none" 
	d="
M401.382812,395.986237 
	C400.914520,395.970245 400.984924,395.605469 400.982788,395.419739 
	C401.718750,395.158997 402.456909,395.083984 403.922363,394.957092 
	C406.038818,394.601929 407.427917,394.298615 408.817017,393.995300 
	C412.054749,394.153320 415.291901,394.432922 418.530273,394.447662 
	C430.501953,394.502289 442.474030,394.469391 454.589203,394.469391 
	C456.378143,380.415680 451.900330,365.908447 459.872253,351.471436 
	C459.872253,366.455658 459.872253,380.106323 459.872253,394.226898 
	C465.589966,394.536102 470.833618,394.819641 476.512177,395.173309 
	C476.947113,395.243439 476.979462,395.611877 477.033295,395.788757 
	C452.008453,395.977844 426.929779,395.990021 401.382812,395.986237 
z"/>
<path fill="#D944E7" opacity="1.000000" stroke="none" 
	d="
M545.034912,459.502930 
	C543.592651,459.906067 542.144775,459.906067 540.293396,459.906067 
	C541.965576,447.636841 543.499634,435.717346 545.365723,423.850067 
	C545.528687,422.813507 547.848145,421.430908 549.210449,421.379059 
	C558.162903,421.038452 567.127625,421.019257 576.553284,420.962830 
	C568.283325,421.425507 559.548401,421.820496 550.312012,422.238159 
	C548.574341,434.362976 546.801819,446.731384 545.034912,459.502930 
z"/>
<path fill="#E53BF1" opacity="1.000000" stroke="none" 
	d="
M552.068970,357.840637 
	C553.876038,359.415161 555.320374,361.002228 556.935730,362.908569 
	C556.367065,373.290405 555.627380,383.352997 554.827576,394.233093 
	C564.375122,394.233093 574.242554,394.233093 584.554565,394.387878 
	C584.999146,394.542694 585.005920,394.620270 585.005920,394.620270 
	C573.540161,394.620270 562.074463,394.620270 549.738037,394.620270 
	C550.306274,389.487335 550.872253,384.809204 551.329102,380.120483 
	C551.747925,375.821869 552.286011,371.515198 552.347534,367.205994 
	C552.443481,360.488251 551.241211,359.165894 544.543823,357.391541 
	C546.776978,357.393250 549.241638,357.623230 552.068970,357.840637 
z"/>
<path fill="#D944E7" opacity="1.000000" stroke="none" 
	d="
M220.089355,394.294006 
	C220.483765,394.409271 220.747589,394.560181 220.786530,394.706329 
	C216.036606,394.852478 211.247742,394.852478 205.828568,394.852478 
	C206.727768,388.188721 207.531784,382.309906 208.309723,376.427643 
	C208.635941,373.960968 209.001617,371.493988 209.185532,369.014984 
	C209.762390,361.238953 208.338852,359.319458 200.627441,357.343384 
	C211.940247,356.863861 214.837784,359.635254 213.813248,370.924225 
	C213.129196,378.461548 211.764557,385.937103 210.600174,394.178772 
	C213.875778,394.178772 216.785355,394.178772 220.089355,394.294006 
z"/>
<path fill="#77EBEF" opacity="1.000000" stroke="none" 
	d="
M520.455750,357.045471 
	C529.875061,363.823029 524.677124,372.841248 524.585754,380.978363 
	C524.554626,383.748779 523.173828,386.521759 523.245728,389.271698 
	C523.369812,394.015594 521.176025,395.279358 516.889099,395.042633 
	C513.252197,394.841827 509.586151,395.167114 505.470459,395.161377 
	C509.098114,394.673004 513.188293,394.282837 517.994629,393.824371 
	C519.207581,384.457397 520.864807,374.897675 521.413513,365.274689 
	C521.561035,362.686798 518.337219,359.906738 516.607117,357.128326 
	C517.583679,357.084259 518.835510,357.027740 520.455750,357.045471 
z"/>
<path fill="#E238EE" opacity="1.000000" stroke="none" 
	d="
M69.346603,524.067261 
	C78.138527,520.396423 81.641907,513.165283 82.265144,503.803894 
	C82.550102,499.523529 83.743965,495.311035 84.324387,491.040436 
	C84.723557,488.103485 85.855247,486.408234 89.499847,487.161255 
	C88.647682,494.270020 87.360191,501.288055 86.158028,508.320618 
	C84.468460,518.204468 79.927589,522.618042 69.346603,524.067261 
z"/>
<path fill="#FEFDFE" opacity="1.000000" stroke="none" 
	d="
M408.891541,393.532104 
	C407.427917,394.298615 406.038818,394.601929 404.292786,394.936646 
	C403.996246,382.622772 404.056671,370.277496 404.486328,357.483032 
	C405.218964,357.023468 405.582428,357.013123 405.945862,357.002747 
	C406.989777,361.599792 408.637329,366.157593 408.939270,370.802856 
	C409.419708,378.194244 409.003204,385.643890 408.891541,393.532104 
z"/>
<path fill="#E343F4" opacity="1.000000" stroke="none" 
	d="
M766.629272,422.829712 
	C764.323242,442.657440 761.621399,462.587128 758.788208,482.863953 
	C756.023560,484.257050 753.390259,485.303009 750.370422,486.214661 
	C757.636230,481.723328 757.773865,473.851776 758.904724,466.571045 
	C761.039307,452.826599 762.903137,439.040222 764.947510,425.281372 
	C765.070557,424.452728 765.790955,423.712860 766.629272,422.829712 
z"/>
<path fill="#E238EE" opacity="1.000000" stroke="none" 
	d="
M585.412170,394.736267 
	C585.005920,394.620270 584.999146,394.542694 585.010742,394.505493 
	C588.133118,394.468323 591.243896,394.468323 594.909485,394.468323 
	C593.996582,399.981995 593.441833,404.727814 592.393372,409.361938 
	C590.480835,417.814636 587.560974,420.195435 578.326721,421.065491 
	C586.415161,418.600464 587.506958,411.352631 588.804626,404.305389 
	C589.310974,401.555756 589.504150,398.748444 589.907410,395.408722 
	C588.554626,395.224609 587.186523,395.038422 585.412170,394.736267 
z"/>
<path fill="#97CADA" opacity="1.000000" stroke="none" 
	d="
M290.140442,420.231995 
	C301.581635,420.497345 313.021820,420.826721 324.464386,421.005493 
	C332.072357,421.124359 339.683685,421.028015 347.425049,421.028015 
	C348.254639,426.190247 345.894073,427.943970 341.746460,427.977875 
	C327.800018,428.091919 313.853119,428.149231 299.906311,428.220306 
	C297.581879,428.232147 295.257263,428.204041 292.485229,428.071838 
	C306.793976,427.805267 321.550446,427.676392 336.306396,427.505646 
	C339.667297,427.466736 343.357849,427.716522 342.701935,421.285126 
	C325.499451,421.285126 308.150024,421.285126 290.427429,420.961548 
	C290.054260,420.637970 290.140442,420.231995 290.140442,420.231995 
z"/>
<path fill="#E056F4" opacity="1.000000" stroke="none" 
	d="
M731.546753,430.279846 
	C730.897278,438.947235 730.064087,447.829163 728.922668,456.671295 
	C727.778015,465.539307 726.325928,474.367584 724.866943,483.606445 
	C720.844238,485.023773 716.963196,486.047974 712.695862,486.989502 
	C721.465820,485.565033 723.850952,478.868195 725.008728,471.056152 
	C727.014893,457.519836 729.148071,444.002350 731.546753,430.279846 
z"/>
<path fill="#E238EE" opacity="1.000000" stroke="none" 
	d="
M571.355713,486.151886 
	C576.366760,483.039368 578.338196,478.014557 579.111755,472.255066 
	C579.612549,468.526245 580.201965,464.809387 580.735596,460.697571 
	C582.026245,460.307983 583.332947,460.307983 586.190308,460.307983 
	C584.352539,467.612305 583.273376,474.745026 580.572021,481.198730 
	C579.533325,483.680237 574.800537,484.615448 571.355713,486.151886 
z"/>
<path fill="#76F2F4" opacity="1.000000" stroke="none" 
	d="
M487.920013,418.932648 
	C488.589417,414.968109 489.249054,411.465851 489.897400,407.616150 
	C491.250458,399.177277 496.134857,395.176849 504.651459,394.993042 
	C494.342072,398.074890 494.811493,407.537109 493.183746,415.757690 
	C492.897095,417.205414 492.989899,418.728302 492.929321,420.664429 
	C491.270844,420.539856 489.590546,419.967377 487.920013,418.932648 
z"/>
<path fill="#77F4F6" opacity="1.000000" stroke="none" 
	d="
M289.822998,420.034485 
	C290.140442,420.231995 290.054260,420.637970 290.039001,420.844910 
	C283.428253,420.154846 281.345337,418.503052 280.560760,412.322083 
	C279.958160,407.574982 280.136505,402.733276 279.826508,397.942749 
	C279.645264,395.142181 281.023010,394.450226 283.917664,394.908997 
	C284.624268,400.812683 284.435059,406.660645 285.268280,412.359039 
	C285.654724,415.001709 288.031219,417.353363 289.822998,420.034485 
z"/>
<path fill="#77F4F6" opacity="1.000000" stroke="none" 
	d="
M363.670837,394.668945 
	C338.245911,394.867493 312.569427,394.918335 286.460999,394.837738 
	C292.168701,394.540619 298.308563,394.226959 304.447906,394.236481 
	C324.105103,394.266998 343.762146,394.417175 363.670837,394.668945 
z"/>
<path fill="#F6F4F5" opacity="1.000000" stroke="none" 
	d="
M403.884277,486.713745 
	C405.314850,485.490997 406.762085,484.714050 408.540314,483.807007 
	C408.871307,488.762573 408.871307,493.848236 408.871307,499.137207 
	C407.146637,499.137207 405.750763,499.137207 403.900940,499.137207 
	C403.900940,495.030731 403.900940,491.095154 403.884277,486.713745 
z"/>
<path fill="#D2BED3" opacity="1.000000" stroke="none" 
	d="
M186.745956,485.229980 
	C187.759613,485.545044 188.411133,485.827606 189.335571,486.140259 
	C187.277588,491.588257 184.946671,497.006165 182.615738,502.424072 
	C182.145294,502.218292 181.674835,502.012543 181.204391,501.806763 
	C182.821747,497.093933 184.439087,492.381104 186.262131,487.068909 
	C184.521362,487.068909 183.146988,487.068909 181.356110,486.981689 
	C182.754318,486.328827 184.569061,485.763184 186.745956,485.229980 
z"/>
<path fill="#E238EE" opacity="1.000000" stroke="none" 
	d="
M62.736420,524.873535 
	C64.333954,524.452881 66.292671,524.120728 68.648743,523.878052 
	C67.063263,524.299072 65.080429,524.630615 62.736420,524.873535 
z"/>
<path fill="#F6F4F5" opacity="1.000000" stroke="none" 
	d="
M405.960785,356.701324 
	C405.582428,357.013123 405.218964,357.023468 404.583008,357.024353 
	C404.243164,356.068848 404.175873,355.122833 404.024475,352.994751 
	C405.059601,354.801147 405.517639,355.600525 405.960785,356.701324 
z"/>
<path fill="#E238EE" opacity="1.000000" stroke="none" 
	d="
M566.377808,486.927521 
	C567.442993,486.512207 568.880676,486.187317 570.693359,485.940552 
	C569.629089,486.351746 568.189697,486.684845 566.377808,486.927521 
z"/>
<path fill="#E343F4" opacity="1.000000" stroke="none" 
	d="
M745.589539,486.971924 
	C746.603699,486.548920 747.972412,486.212097 749.704346,485.963379 
	C748.693054,486.387024 747.318542,486.722565 745.589539,486.971924 
z"/>
<path fill="#090909" opacity="1.000000" stroke="none" 
	d="
M511.112732,207.935333 
	C509.829956,207.778198 508.432098,207.899155 507.281342,207.422974 
	C483.343201,197.516739 459.480347,187.426559 435.483032,177.666687 
	C429.727753,175.325958 433.117767,170.996445 431.829956,166.896576 
	C439.407593,168.787338 446.367401,170.523941 453.327209,172.260529 
	C453.531403,171.791061 453.735565,171.321594 453.939758,170.852142 
	C449.810333,168.759399 445.868408,166.064896 441.510040,164.706985 
	C433.892334,162.333572 432.269012,157.662216 433.139740,150.213409 
	C434.199829,141.144714 433.956787,131.924484 434.301147,122.770706 
	C434.374695,120.816345 434.550140,118.865822 434.712952,116.392044 
	C446.115875,117.324265 457.104980,118.222664 468.094086,119.121056 
	C456.851929,112.366608 444.225616,112.299789 431.356232,110.950951 
	C432.380066,98.747612 433.382904,86.794373 434.468628,73.852974 
	C436.723022,75.487762 438.335114,76.514008 439.786469,77.731842 
	C451.388153,87.466789 462.851471,97.370567 474.594055,106.931725 
	C479.191437,110.675049 480.620758,115.878082 482.730621,120.891701 
	C494.256775,148.281540 505.833618,175.650040 517.391052,203.026703 
	C517.778076,203.943542 518.144043,204.869293 518.345947,206.350006 
	C518.000793,207.055237 517.829529,207.201324 517.658203,207.347427 
	C511.831329,202.661316 506.004456,197.975189 500.177582,193.289078 
	C499.852722,193.666992 499.527832,194.044907 499.202972,194.422821 
	C503.120697,198.721588 507.038422,203.020340 511.004944,207.642426 
	C511.053711,207.965759 511.112732,207.935349 511.112732,207.935333 
z"/>
<path fill="#242222" opacity="1.000000" stroke="none" 
	d="
M400.679871,176.713058 
	C409.178802,172.993622 417.335754,169.442795 425.661072,165.818680 
	C426.270172,174.906326 426.314972,175.064987 418.613739,177.239105 
	C407.170074,180.469711 395.662109,183.474243 384.163330,186.506042 
	C382.646484,186.905975 381.022644,186.900040 379.156036,186.146133 
	C386.216644,183.057983 393.277252,179.969833 400.679871,176.713058 
z"/>
<path fill="#3B3A3A" opacity="1.000000" stroke="none" 
	d="
M420.585297,123.053467 
	C419.522888,123.092430 418.864502,123.092430 418.206116,123.092430 
	C418.122162,122.864372 418.038177,122.636307 417.954193,122.408249 
	C422.073181,120.617500 426.192200,118.826752 431.334106,116.591301 
	C430.139954,129.886337 429.011475,142.450287 427.882996,155.014236 
	C427.541595,155.031097 427.200226,155.047958 426.858826,155.064819 
	C426.100250,144.528839 425.341644,133.992874 424.551178,123.014511 
	C423.434204,123.014511 422.211761,123.014511 420.585297,123.053467 
z"/>
<path fill="#363535" opacity="1.000000" stroke="none" 
	d="
M428.904510,107.656822 
	C428.247375,109.068581 427.713013,110.707695 426.914856,110.848206 
	C423.384399,111.469719 419.778107,111.660393 415.834808,111.203812 
	C416.795288,110.488045 417.660461,109.388809 418.732605,109.122437 
	C423.558105,107.923538 424.166321,103.916740 424.869324,100.098373 
	C426.263885,92.524071 427.448090,84.911057 428.905853,76.198486 
	C428.905853,87.333298 428.905853,97.263817 428.904510,107.656822 
z"/>
<path fill="#363535" opacity="1.000000" stroke="none" 
	d="
M356.473206,220.472839 
	C351.681213,226.818588 347.120911,232.890686 342.560608,238.962784 
	C347.161072,224.930679 356.104065,213.777069 366.005768,203.206833 
	C366.236572,210.658890 359.564026,214.413696 356.473206,220.472839 
z"/>
<path fill="#090909" opacity="1.000000" stroke="none" 
	d="
M511.025818,207.983765 
	C511.170197,208.159515 511.342438,208.317245 511.514709,208.474976 
	C511.258698,208.423721 511.002686,208.372482 510.929688,208.128296 
	C511.112732,207.935349 511.053711,207.965759 511.025818,207.983765 
z"/>
<path fill="#090909" opacity="1.000000" stroke="none" 
	d="
M518.442078,206.706360 
	C518.484619,206.977203 518.257202,207.450836 517.843994,207.635956 
	C517.829529,207.201324 518.000793,207.055237 518.442078,206.706360 
z"/>
<path fill="#060506" opacity="1.000000" stroke="none" 
	d="
M100.128746,422.024536 
	C100.354118,422.001648 100.579491,421.978760 101.540436,421.963806 
	C111.185127,421.971710 120.094246,421.971710 129.371490,421.971710 
	C128.211792,430.246063 127.272385,437.967529 126.003090,445.634430 
	C125.203217,450.465820 123.909637,455.215515 122.837540,460.001892 
	C113.382858,460.019440 103.928177,460.036987 94.003265,459.558655 
	C94.706955,450.695557 95.737892,442.304688 97.116402,433.971283 
	C97.784355,429.933411 99.104095,426.003387 100.128746,422.024536 
z"/>
<path fill="#7FEBF0" opacity="1.000000" stroke="none" 
	d="
M123.262741,460.070862 
	C123.909637,455.215515 125.203217,450.465820 126.003090,445.634430 
	C127.272385,437.967529 128.211792,430.246063 129.371490,421.971710 
	C120.094246,421.971710 111.185127,421.971710 101.870338,421.882416 
	C111.994919,421.793121 122.525169,421.793121 133.449387,421.793121 
	C133.557907,422.387268 133.979233,423.342377 133.855011,424.220276 
	C132.373962,434.686188 130.718811,445.128235 129.322235,455.604919 
	C128.846146,459.176361 127.124268,460.562378 123.262741,460.070862 
z"/>
<path fill="#E339EF" opacity="1.000000" stroke="none" 
	d="
M99.716919,421.944275 
	C99.104095,426.003387 97.784355,429.933411 97.116402,433.971283 
	C95.737892,442.304688 94.706955,450.695557 93.504837,459.499512 
	C92.166229,459.936218 90.855812,459.936218 88.860275,459.936218 
	C89.583389,454.728851 90.243782,449.716339 90.982964,444.715454 
	C91.899750,438.513000 92.910553,432.324432 93.823837,426.121490 
	C94.298973,422.894470 96.114983,421.528381 99.716919,421.944275 
z"/>
<path fill="#060506" opacity="1.000000" stroke="none" 
	d="
M307.017944,460.126740 
	C306.373260,459.254395 305.728607,458.382080 305.226593,456.866821 
	C306.759033,455.815399 308.145050,455.068573 309.539185,455.053070 
	C318.950714,454.948303 328.363922,454.998413 337.893005,454.998413 
	C338.516754,458.626343 337.376160,460.030365 333.808350,459.987915 
	C324.880035,459.881775 315.948303,460.061615 307.017944,460.126740 
z"/>
<path fill="#97CADA" opacity="1.000000" stroke="none" 
	d="
M307.356506,460.350586 
	C315.948303,460.061615 324.880035,459.881775 333.808350,459.987915 
	C337.376160,460.030365 338.516754,458.626343 337.893005,454.998413 
	C328.363922,454.998413 318.950714,454.948303 309.539185,455.053070 
	C308.145050,455.068573 306.759033,455.815399 305.126953,456.530029 
	C305.446503,455.943268 305.998535,454.278534 306.571594,454.271271 
	C318.467102,454.120300 330.364929,454.157440 342.176056,454.157440 
	C343.179962,459.385010 342.290649,460.624512 336.494263,460.721405 
	C326.898041,460.881805 317.295166,460.644318 307.356506,460.350586 
z"/>
<path fill="#E2E2E9" opacity="1.000000" stroke="none" 
	d="
M627.020020,421.832214 
	C631.268921,421.533813 635.514221,421.064667 639.767456,420.976746 
	C646.249573,420.842743 652.737061,420.972504 659.612793,421.276062 
	C660.003235,421.561859 659.873108,422.022491 659.418335,421.970245 
	C652.487183,421.917999 646.010864,421.917999 638.779419,421.917999 
	C643.926819,434.719574 648.905090,447.100464 653.900391,459.714600 
	C653.917419,459.947815 654.000977,460.407990 654.000977,460.407990 
	C642.537109,460.454285 631.073242,460.500610 619.753662,460.260712 
	C621.230652,459.940704 622.563232,459.906921 624.370361,459.940094 
	C632.722351,460.007080 640.599915,460.007080 649.026123,460.007080 
	C644.003906,448.500092 639.277527,437.671112 634.484253,426.688782 
	C632.018311,427.964844 630.116211,428.949158 628.168213,429.553711 
	C628.435913,427.474121 628.997681,425.767487 628.951111,424.077606 
	C628.929993,423.311981 627.701050,422.579651 627.020020,421.832214 
z"/>
<path fill="#E53BF1" opacity="1.000000" stroke="none" 
	d="
M626.668579,421.958374 
	C627.701050,422.579651 628.929993,423.311981 628.951111,424.077606 
	C628.997681,425.767487 628.435913,427.474121 628.053345,429.962128 
	C626.621582,440.457916 625.258728,450.165527 623.895874,459.873108 
	C622.563232,459.906921 621.230652,459.940704 619.501099,459.932587 
	C620.539429,449.275696 621.865601,438.643799 623.503052,428.060089 
	C623.825928,425.973083 625.348083,424.071594 626.668579,421.958374 
z"/>
<path fill="#77F4F6" opacity="1.000000" stroke="none" 
	d="
M659.873108,422.022491 
	C659.873108,422.022491 660.003235,421.561859 660.088867,421.338928 
	C663.035950,420.881409 664.534607,421.777344 664.050415,425.052124 
	C662.502441,435.521210 661.106201,446.012665 659.636658,456.493408 
	C659.246460,459.275970 657.590088,460.487549 654.410156,460.321381 
	C654.000977,460.407990 653.917419,459.947815 654.039307,459.311096 
	C654.448914,457.733673 654.864258,456.811554 655.004822,455.849335 
	C656.651489,444.577209 658.256836,433.299042 659.873108,422.022491 
z"/>
<path fill="#0A0B0B" opacity="1.000000" stroke="none" 
	d="
M247.970963,390.049072 
	C248.618790,391.574768 249.112061,392.753174 249.682571,394.116089 
	C242.441833,394.116089 235.521912,394.116089 227.570068,394.116089 
	C230.505066,385.528809 233.277222,377.417938 236.480545,368.045563 
	C240.663895,376.037506 244.240143,382.869659 247.970963,390.049072 
z"/>
<path fill="#050405" opacity="1.000000" stroke="none" 
	d="
M340.402283,311.206451 
	C339.786652,311.286926 339.602081,311.111328 339.650024,310.518341 
	C339.819061,310.167694 340.161835,309.834473 340.161835,309.834473 
	C340.488190,309.926697 340.814545,310.018890 341.292542,310.324829 
	C341.219421,310.698059 340.994629,310.857605 340.402283,311.206451 
z"/>
<path fill="#050405" opacity="1.000000" stroke="none" 
	d="
M339.638489,310.324341 
	C339.279602,310.114746 339.101227,309.748505 338.922852,309.382294 
	C339.262634,309.338440 339.602386,309.294556 340.052002,309.542572 
	C340.161835,309.834473 339.819061,310.167694 339.638489,310.324341 
z"/>
<path fill="#050405" opacity="1.000000" stroke="none" 
	d="
M320.815216,315.104767 
	C320.709290,314.847504 320.843903,314.279205 321.221588,313.916443 
	C321.328339,314.345886 321.192047,314.569824 320.815216,315.104767 
z"/>
<path fill="#050405" opacity="1.000000" stroke="none" 
	d="
M278.827026,330.105621 
	C278.707397,329.866913 278.822876,329.333435 279.207581,328.990540 
	C279.338562,329.391052 279.200317,329.600952 278.827026,330.105621 
z"/>
<path fill="#050405" opacity="1.000000" stroke="none" 
	d="
M512.672363,313.263184 
	C512.928528,312.649567 513.426270,312.456757 513.924072,312.263916 
	C513.929077,312.845581 513.934082,313.427216 513.720459,314.232574 
	C513.305908,314.198853 513.109985,313.941406 512.672363,313.263184 
z"/>
<path fill="#0A0B0B" opacity="1.000000" stroke="none" 
	d="
M235.358368,432.932678 
	C231.310608,429.716431 227.521454,426.190186 222.905838,421.894806 
	C227.982452,421.894806 231.999969,421.894806 236.470245,421.938873 
	C236.487686,425.529541 236.052353,429.076111 235.358368,432.932678 
z"/>
<path fill="#242222" opacity="1.000000" stroke="none" 
	d="
M206.306305,422.461609 
	C207.642273,422.024292 208.926010,422.024292 210.828354,422.024292 
	C209.038956,426.860077 207.371872,431.365356 205.402084,436.082214 
	C205.484268,431.828888 205.869156,427.363922 206.306305,422.461609 
z"/>
<path fill="#090909" opacity="1.000000" stroke="none" 
	d="
M624.370361,459.940094 
	C625.258728,450.165527 626.621582,440.457916 628.099243,430.341919 
	C630.116211,428.949158 632.018311,427.964844 634.484253,426.688782 
	C639.277527,437.671112 644.003906,448.500092 649.026123,460.007080 
	C640.599915,460.007080 632.722351,460.007080 624.370361,459.940094 
z"/>
<path fill="#0A0B0B" opacity="1.000000" stroke="none" 
	d="
M659.418335,421.970245 
	C658.256836,433.299042 656.651489,444.577209 655.004822,455.849335 
	C654.864258,456.811554 654.448914,457.733673 654.022339,459.077881 
	C648.905090,447.100464 643.926819,434.719574 638.779419,421.917999 
	C646.010864,421.917999 652.487183,421.917999 659.418335,421.970245 
z"/>
</svg>