<svg xmlns="http://www.w3.org/2000/svg" xmlns:xlink="http://www.w3.org/1999/xlink" viewBox="0,0,256,256" width="48px" height="48px" fill-rule="nonzero"><g fill="#d50000" fill-rule="nonzero" stroke="none" stroke-width="1" stroke-linecap="butt" stroke-linejoin="miter" stroke-miterlimit="10" stroke-dasharray="" stroke-dashoffset="0" font-family="none" font-weight="none" font-size="none" text-anchor="none" style="mix-blend-mode: normal"><g transform="scale(5.33333,5.33333)"><path transform="translate(-9.95674,24.03689) rotate(-45.001)" d="M5.7,22h36.8v4h-36.8z"></path><path d="M24,4c-11,0 -20,9 -20,20c0,11 9,20 20,20c11,0 20,-9 20,-20c0,-11 -9,-20 -20,-20zM24,40c-8.8,0 -16,-7.2 -16,-16c0,-8.8 7.2,-16 16,-16c8.8,0 16,7.2 16,16c0,8.8 -7.2,16 -16,16z"></path></g></g><g fill="#000000" fill-rule="nonzero" stroke="none" stroke-width="1" stroke-linecap="butt" stroke-linejoin="miter" stroke-miterlimit="10" stroke-dasharray="" stroke-dashoffset="0" font-family="none" font-weight="none" font-size="none" text-anchor="none" style="mix-blend-mode: normal"><g><path d="M51.58,145.42667h9.55c-0.88667,7.62 -3.69667,13.5 -8.43,17.64c-4.73333,4.14 -11.02667,6.21 -18.88,6.21v0c-8.50667,0 -15.32667,-3.05 -20.46,-9.15c-5.12667,-6.1 -7.69,-14.26333 -7.69,-24.49v0v-6.93c0,-6.69333 1.19667,-12.58 3.59,-17.66c2.38667,-5.08 5.77333,-8.98333 10.16,-11.71c4.38667,-2.72 9.46667,-4.08 15.24,-4.08v0c7.65333,0 13.79,2.13667 18.41,6.41c4.62,4.27333 7.30667,10.18667 8.06,17.74v0h-9.55c-0.82,-5.74 -2.60667,-9.89667 -5.36,-12.47c-2.76,-2.57333 -6.61333,-3.86 -11.56,-3.86v0c-6.06667,0 -10.82333,2.24333 -14.27,6.73c-3.44667,4.48667 -5.17,10.87 -5.17,19.15v0v6.97c0,7.82 1.63333,14.04 4.9,18.66c3.26,4.61333 7.82667,6.92 13.7,6.92v0c5.28,0 9.33,-1.19333 12.15,-3.58c2.82,-2.39333 4.69,-6.56 5.61,-12.5zM129.46,96.24667v72.04h-9.54v-33.3h-36.32v33.3h-9.5v-72.04h9.5v30.98h36.32v-30.98zM193.89,168.28667l-6.88,-18.8h-30.18l-6.78,18.8h-9.8l27.51,-72.04h8.31l27.56,72.04zM171.92,107.97667l-12.22,33.69h24.49zM256.73,96.24667v7.82h-23.16v64.22h-9.45v-64.22h-23.11v-7.82z"></path></g></g></svg>