<?xml version="1.0" encoding="UTF-8" standalone="no" ?>
<!DOCTYPE svg PUBLIC "-//W3C//DTD SVG 1.1//EN" "http://www.w3.org/Graphics/SVG/1.1/DTD/svg11.dtd">
<svg xmlns="http://www.w3.org/2000/svg" xmlns:xlink="http://www.w3.org/1999/xlink" version="1.1" width="480" height="154" viewBox="0 0 1280 1124" xml:space="preserve">
<desc>Created with Fabric.js 5.3.0</desc>
<defs>
</defs>
<g transform="matrix(1 0 0 1 640 512)" id="background-logo"  >
<rect style="stroke: none; stroke-width: 0; stroke-dasharray: none; stroke-linecap: butt; stroke-dashoffset: 0; stroke-linejoin: miter; stroke-miterlimit: 4; fill: rgb(255,255,255); fill-opacity: 0; fill-rule: nonzero; opacity: 1;"  paint-order="stroke"  x="-640" y="-512" rx="0" ry="0" width="1280" height="1024" />
</g>
<g transform="matrix(0.8951193832010769 0 0 0.8951193832010769 161.118321829163 512.4309749784298)" id="logo-logo"  >
<g style=""  paint-order="stroke"   >
		<g transform="matrix(1.0045276069522397 0 0 1.0045276069522397 0 0)"  >
<g style=""  paint-order="stroke"   >
		<g transform="matrix(1 0 0 1 11.086915000000005 -11.412369999999996)"  >
<linearGradient id="SVGID_28_8_410729" gradientUnits="userSpaceOnUse" gradientTransform="matrix(1 0 0 1 0 0)"  x1="115.43541" y1="133.06499" x2="171.35994" y2="85.06498">
<stop offset="0%" style="stop-color:rgb(0,106,194);stop-opacity: 1"/>
<stop offset="100%" style="stop-color:rgb(43,186,255);stop-opacity: 1"/>
</linearGradient>
<path style="stroke: none; stroke-width: 1; stroke-dasharray: none; stroke-linecap: butt; stroke-dashoffset: 0; stroke-linejoin: miter; stroke-miterlimit: 4; fill: url(#SVGID_28_8_410729); fill-rule: nonzero; opacity: 1;"  paint-order="stroke"  transform=" translate(-136.08887, -86.23599)" d="M 250.00391 119.26095 C 250.00391 124.67098 249.18384 129.89096 247.67382999999998 134.81100999999998 C 244.46387 145.31100999999998 238.06383999999997 154.41098999999997 229.61377 161.01095999999998 C 229.15381 161.38096 228.68383999999998 161.74094 228.20386 162.09104 L 65.93384 162.09104 L 65.93384 134.811 L 38.65381 134.811 L 38.65381 107.53096000000001 L 22.17383 107.53096000000001 C 25.90381 100.13094000000001 31.633789999999998 93.94087 38.65381 89.61104 C 45.45386 85.43086 53.433840000000004 82.9709 62.003910000000005 82.9709 C 63.29383000000001 82.9709 64.55384000000001 83.05098 65.81385 83.16096 L 65.81385 82.9709 C 65.81385 82.05098 65.84388 81.15095 65.88380000000001 80.25093 C 65.89381 79.79097 65.90382000000001 79.34102 65.93385 78.89094 L 65.93385 78.88093 C 66.44386 69.68086000000001 68.68385 60.940870000000004 72.30385000000001 52.97090000000001 C 77.08388000000001 42.460890000000006 84.29384000000002 33.29097000000001 93.21388000000002 26.180860000000006 C 93.42384000000001 26.010940000000005 93.63380000000002 25.851030000000005 93.84388000000001 25.680860000000006 C 101.62379000000001 19.630930000000006 110.65382000000001 15.111040000000006 120.49390000000001 12.611040000000006 C 126.22388000000001 11.160970000000006 132.21387000000001 10.380940000000006 138.3938 10.380940000000006 C 141.57385 10.380940000000006 144.70386 10.591020000000006 147.77393 10.990930000000006 C 157.62378 12.260950000000006 166.85376000000002 15.510950000000005 175.05384 20.32101000000001 L 175.05384 52.9609 L 202.33387000000002 52.9609 L 202.33387000000002 80.25094 L 232.82386000000002 80.25094 C 240.61378000000002 87.40096 246.23389000000003 96.85104 248.64381000000003 107.53097 C 249.50391 111.311 250.00391 115.22091 250.00391 119.26095 z" stroke-linecap="round" />
</g>
		<g transform="matrix(1 0 0 1 -18.148639999999972 23.518725000000003)"  >
<linearGradient id="SVGID_29_9_410730" gradientUnits="userSpaceOnUse" gradientTransform="matrix(1 0 0 1 0 0)"  x1="93.21297" y1="134.80742" x2="120.49351" y2="107.52689">
<stop offset="0%" style="stop-color:rgb(179,230,255);stop-opacity: 1"/>
<stop offset="100%" style="stop-color:rgb(78,194,255);stop-opacity: 1"/>
</linearGradient>
<path style="stroke: none; stroke-width: 1; stroke-dasharray: none; stroke-linecap: butt; stroke-dashoffset: 0; stroke-linejoin: miter; stroke-miterlimit: 4; fill: url(#SVGID_29_9_410730); fill-rule: nonzero; opacity: 1;"  paint-order="stroke"  transform=" translate(-106.85331500000001, -121.167085)" d="M 93.21305 107.52696 L 65.93252 107.52696 L 65.93252 80.24643 L 93.21305 80.24643 L 93.21305 107.52696 z M 120.49358 162.08774 L 147.77411 162.08774 L 147.77411 134.8075 L 120.49358000000001 134.8075 L 120.49358000000001 162.08774 z M 120.49358 107.52696 L 93.21305 107.52696 L 93.21305 134.80749 L 120.49358 134.80749 L 120.49358 107.52696 z" stroke-linecap="round" />
</g>
		<g transform="matrix(1 0 0 1 -45.429024999999996 23.518725000000003)"  >
<linearGradient id="SVGID_30_10_410731" gradientUnits="userSpaceOnUse" gradientTransform="matrix(1 0 0 1 0 0)"  x1="68.27443" y1="137.14941" x2="95.55496" y2="109.86887">
<stop offset="0%" style="stop-color:rgb(179,230,255);stop-opacity: 1"/>
<stop offset="100%" style="stop-color:rgb(78,194,255);stop-opacity: 1"/>
</linearGradient>
<path style="stroke: none; stroke-width: 1; stroke-dasharray: none; stroke-linecap: butt; stroke-dashoffset: 0; stroke-linejoin: miter; stroke-miterlimit: 4; fill: url(#SVGID_30_10_410731); fill-rule: nonzero; opacity: 1;"  paint-order="stroke"  transform=" translate(-79.57292999999999, -121.167085)" d="M 65.93252 134.8075 L 65.93252 107.52697 L 93.21305 107.52697 L 93.21305 134.8075 L 65.93252 134.8075 z M 120.49358 134.8075 L 93.21305 134.8075 L 93.21305 162.08774 L 120.49358 162.08774 L 120.49358 134.8075 z M 65.93252 107.52696 L 65.93252 80.24643 L 65.88027 80.24643 C 65.84682 81.15102 65.81159 82.05563000000001 65.81159 82.96844 C 65.81159 83.03302000000001 65.81629 83.09641 65.81658 83.16098 C 64.55596 83.05414999999999 63.28917 82.96844 62.00096 82.96844 C 53.4296 82.96844 45.45143 85.42629 38.65228 89.61409 L 38.65228 107.52697 L 65.93252 107.52697 z" stroke-linecap="round" />
</g>
		<g transform="matrix(1 0 0 1 -78.39538499999998 44.807050000000004)"  >
<linearGradient id="SVGID_31_11_410732" gradientUnits="userSpaceOnUse" gradientTransform="matrix(1 0 0 1 0 0)"  x1="8.70163" y1="182.22174" x2="74.66452" y2="116.25884">
<stop offset="0%" style="stop-color:rgb(179,230,255);stop-opacity: 1"/>
<stop offset="100%" style="stop-color:rgb(78,194,255);stop-opacity: 1"/>
</linearGradient>
<path style="stroke: none; stroke-width: 1; stroke-dasharray: none; stroke-linecap: butt; stroke-dashoffset: 0; stroke-linejoin: miter; stroke-miterlimit: 4; fill: url(#SVGID_31_11_410732); fill-rule: nonzero; opacity: 1;"  paint-order="stroke"  transform=" translate(-46.60657, -142.45541)" d="M 36.47461 140.92416 L 59.99732 140.92416 L 59.99732 164.44674 L 36.47461 164.44674 L 36.47461 140.92416 z M 0 173.52011 L 27.28027 173.52011 L 27.28027 146.23996 L 0 146.23996 L 0 173.52011 z M 38.65234 107.52694 L 38.65234 134.80759 L 65.93261000000001 134.80759 L 65.93261000000001 107.52694 L 38.65234 107.52694 z M 22.17175 107.52694 L 38.652339999999995 107.52694 L 38.652339999999995 89.6141 C 31.63123 93.93807 25.9082 100.13229 22.17175 107.52694 z M 65.93262 134.80759 L 65.93262 162.08774 L 93.21314 162.08774 L 93.21314 134.80759 L 65.93262 134.80759 z M 31.90674 195.29672 L 44.51904 195.29672 L 44.51904 182.6843 L 31.90674 182.6843 L 31.90674 195.29672 z M 13.64014 134.80759 L 30.032470000000004 134.80759 L 30.032470000000004 118.415 L 13.64014 118.415 L 13.64014 134.80759 z" stroke-linecap="round" />
</g>
		<g transform="matrix(1 0 0 1 73.20882500000002 -43.884879999999995)"  >
<linearGradient id="SVGID_32_12_410733" gradientUnits="userSpaceOnUse" gradientTransform="matrix(1 0 0 1 0 0)"  x1="189.77818" y1="67.68973" x2="247.34496" y2="10.12296">
<stop offset="0%" style="stop-color:rgb(0,77,141);stop-opacity: 1"/>
<stop offset="100%" style="stop-color:rgb(0,107,241);stop-opacity: 1"/>
</linearGradient>
<path style="stroke: none; stroke-width: 1; stroke-dasharray: none; stroke-linecap: butt; stroke-dashoffset: 0; stroke-linejoin: miter; stroke-miterlimit: 4; fill: url(#SVGID_32_12_410733); fill-rule: nonzero; opacity: 1;"  paint-order="stroke"  transform=" translate(-198.21078, -53.76348)" d="M 209.07959 17.23246 L 209.07959 40.75508 L 185.55698 40.75508 L 185.55698 17.23246 L 209.07959 17.23246 z M 229.61542 107.52696 L 248.64745 107.52696 C 246.22893 96.85085000000001 240.61643999999998 87.39661000000001 232.82612 80.24643 L 229.61543 80.24643 L 229.61543 107.52696 z M 175.05464 25.68537 L 175.05464 20.32295 C 166.85193 15.510569999999998 157.62576 12.258479999999999 147.77411 10.987289999999998 L 147.77411 25.685359999999996 L 175.05464 25.685359999999996 z M 209.07959 75.93656 L 236.35983 75.93656 L 236.35983 48.65603 L 209.07959 48.65603 L 209.07959 75.93656 z M 224.60968 12.61246 L 237.222 12.61246 L 237.222 0 L 224.60968 0 L 224.60968 12.61246 z M 218.1981 40.75507 L 234.59048 40.75507 L 234.59048 24.36253 L 218.1981 24.36253 L 218.1981 40.75507 z" stroke-linecap="round" />
</g>
		<g transform="matrix(1 0 0 1 45.75928000000002 -10.834185000000005)"  >
<linearGradient id="SVGID_33_13_410734" gradientUnits="userSpaceOnUse" gradientTransform="matrix(1 0 0 1 0 0)"  x1="161.44383" y1="93.91646" x2="188.72453" y2="66.63576">
<stop offset="0%" style="stop-color:rgb(0,77,141);stop-opacity: 1"/>
<stop offset="100%" style="stop-color:rgb(0,107,241);stop-opacity: 1"/>
</linearGradient>
<path style="stroke: none; stroke-width: 1; stroke-dasharray: none; stroke-linecap: butt; stroke-dashoffset: 0; stroke-linejoin: miter; stroke-miterlimit: 4; fill: url(#SVGID_33_13_410734); fill-rule: nonzero; opacity: 1;"  paint-order="stroke"  transform=" translate(-170.761235, -86.81417499999999)" d="M 147.77417 25.68539 L 147.77417 52.9659 L 120.49365 52.9659 L 120.49365 25.68539 L 147.77417 25.68539 z M 147.77417 52.9659 L 147.77417 80.24642 L 175.05469 80.24642 L 175.05469 52.9659 L 147.77417 52.9659 z M 93.84473 25.68539 L 120.49366 25.68539 L 120.49366 12.61251 C 110.65039 15.10995 101.62036 19.62887 93.84473 25.68539 z M 229.61548 134.80759 L 229.61548 161.01584 C 238.06261999999998 154.41037 244.45972 145.30759 247.67774 134.80759 L 229.61548 134.80759 z M 175.05469 80.24642 L 175.05469 107.52694 L 202.33496 107.52694 L 202.33496 80.24642 L 175.05469 80.24642 z M 202.33496 107.52694 L 202.33496 134.80759 L 229.61548 134.80759 L 229.61548 107.52694 L 202.33496 107.52694 z" stroke-linecap="round" />
</g>
		<g transform="matrix(1 0 0 1 60.244805000000014 -25.05372)"  >
<linearGradient id="SVGID_34_14_410735" gradientUnits="userSpaceOnUse" gradientTransform="matrix(1 0 0 1 0 0)"  x1="176.30177" y1="81.49384" x2="203.58244" y2="54.21317">
<stop offset="0%" style="stop-color:rgb(0,77,141);stop-opacity: 1"/>
<stop offset="100%" style="stop-color:rgb(0,107,241);stop-opacity: 1"/>
</linearGradient>
<path style="stroke: none; stroke-width: 1; stroke-dasharray: none; stroke-linecap: butt; stroke-dashoffset: 0; stroke-linejoin: miter; stroke-miterlimit: 4; fill: url(#SVGID_34_14_410735); fill-rule: nonzero; opacity: 1;"  paint-order="stroke"  transform=" translate(-185.24676, -72.59464)" d="M 147.77411 52.9659 L 147.77411 25.68537 L 175.05464 25.68537 L 175.05464 52.9659 L 147.77411 52.9659 z M 147.77411 25.68537 L 147.77411 10.98729 C 144.70430000000002 10.59135 141.57578 10.38178 138.39824000000002 10.38178 C 132.21871000000002 10.38178 126.22112000000001 11.159289999999999 120.49358000000001 12.612449999999999 L 120.49358000000001 25.68536 L 147.77411 25.68536 z M 229.61542 134.8075 L 247.67769 134.8075 C 249.18457 129.89063000000002 249.99994 124.67203 249.99994 119.26177 C 249.99994 115.22278 249.50362 111.3062 248.64745000000002 107.52697 L 229.61542000000003 107.52697 L 229.61542000000003 134.8075 z M 175.05464 80.24643 L 202.33488 80.24643 L 202.33488 52.9659 L 175.05464 52.9659 L 175.05464 80.24643 z M 229.61542 107.52696 L 229.61542 80.24643 L 202.33489 80.24643 L 202.33489 107.52696 L 229.61542 107.52696 z" stroke-linecap="round" />
</g>
</g>
</g>
</g>
</g>
<g transform="matrix(1.9211538461538462 0 0 1.9211538461538462 784.388619146192 508.3040291322759)" id="text-logo"  >
<g style=""  paint-order="stroke"   >
		<g transform="matrix(1 0 0 1 0 0)" id="text-logo-path-0"  >
<path style="stroke: rgb(255,255,255); stroke-width: 0; stroke-dasharray: none; stroke-linecap: butt; stroke-dashoffset: 0; stroke-linejoin: miter; stroke-miterlimit: 4; fill: rgb(169,226,255); fill-rule: nonzero; opacity: 1;"  paint-order="stroke"  transform=" translate(-235.48, 19.74)" d="M 3.81 -39.48 L 8.9 -39.48 L 8.9 -15.79 Q 8.9 -9.97 11.48 -7.2 Q 14.06 -4.42 18.59 -4.42 L 18.59 -4.42 Q 23.07 -4.42 25.59 -7.22 Q 28.11 -10.02 28.11 -15.79 L 28.11 -15.79 L 28.11 -39.48 L 33.21 -39.48 L 33.21 -15.79 Q 33.21 -7.73 29.2 -3.67 Q 25.2 0.39 18.48 0.39 L 18.48 0.39 Q 11.82 0.39 7.81 -3.67 Q 3.81 -7.73 3.81 -15.79 L 3.81 -15.79 L 3.81 -39.48 Z M 57.4 -39.48 L 57.4 -3.98 L 71.4 -3.98 L 71.4 0 L 52.3 0 L 52.3 -39.48 L 57.4 -39.48 Z M 114.24 0 L 110.94 -9.13 L 93.58 -9.13 L 90.27 0 L 84.78 0 L 99.4 -38.75 L 105.17 -38.75 L 119.73 0 L 114.24 0 Z M 95.03 -13.1 L 109.48 -13.1 L 102.26 -33.04 L 95.03 -13.1 Z M 148.62 -15.9 L 141.18 -15.9 L 141.18 0 L 136.08 0 L 136.08 -39.48 L 148.62 -39.48 Q 155.4 -39.48 158.76 -36.32 Q 162.12 -33.15 162.12 -27.66 L 162.12 -27.66 Q 162.12 -22.12 158.65 -19.01 Q 155.18 -15.9 148.62 -15.9 L 148.62 -15.9 Z M 148.18 -20.16 Q 152.82 -20.16 154.87 -22.12 Q 156.91 -24.08 156.91 -27.66 L 156.91 -27.66 Q 156.91 -31.36 154.87 -33.29 Q 152.82 -35.22 148.18 -35.22 L 148.18 -35.22 L 141.18 -35.22 L 141.18 -20.16 L 148.18 -20.16 Z M 237.55 -19.77 Q 237.55 -13.78 235.14 -9.32 Q 232.74 -4.87 228.06 -2.44 Q 223.38 0 216.83 0 L 216.83 0 L 204.29 0 L 204.29 -39.48 L 216.83 -39.48 Q 223.38 -39.48 228.06 -37.1 Q 232.74 -34.72 235.14 -30.27 Q 237.55 -25.82 237.55 -19.77 L 237.55 -19.77 Z M 216.44 -4.59 Q 224.17 -4.59 228.26 -8.57 Q 232.34 -12.54 232.34 -19.77 L 232.34 -19.77 Q 232.34 -26.99 228.28 -31 Q 224.22 -35 216.44 -35 L 216.44 -35 L 209.38 -35 L 209.38 -4.59 L 216.44 -4.59 Z M 255.64 -39.48 L 260.74 -39.48 L 260.74 0 L 255.64 0 L 255.64 -39.48 Z M 298.03 -39.87 Q 304.92 -39.87 309.6 -36.46 Q 314.27 -33.04 315.9 -27.16 L 315.9 -27.16 L 310.52 -27.16 Q 309.12 -30.74 305.84 -32.93 Q 302.57 -35.11 298.09 -35.11 L 298.09 -35.11 Q 294.06 -35.11 290.86 -33.24 Q 287.67 -31.36 285.85 -27.89 Q 284.03 -24.42 284.03 -19.71 L 284.03 -19.71 Q 284.03 -14.9 285.88 -11.4 Q 287.73 -7.9 291 -6.02 Q 294.28 -4.14 298.54 -4.14 L 298.54 -4.14 Q 302.18 -4.14 305.2 -5.71 Q 308.22 -7.28 310.16 -10.28 Q 312.09 -13.27 312.48 -17.3 L 312.48 -17.3 L 296.97 -17.3 L 296.97 -21.11 L 316.79 -21.11 L 316.79 -16.41 Q 316.29 -11.7 313.88 -7.9 Q 311.47 -4.09 307.38 -1.85 Q 303.3 0.39 298.09 0.39 L 298.09 0.39 Q 292.38 0.39 288.01 -2.16 Q 283.64 -4.7 281.2 -9.27 Q 278.77 -13.83 278.77 -19.71 L 278.77 -19.71 Q 278.77 -25.59 281.2 -30.16 Q 283.64 -34.72 288.01 -37.3 Q 292.38 -39.87 298.03 -39.87 L 298.03 -39.87 Z M 334.88 -39.48 L 339.98 -39.48 L 339.98 0 L 334.88 0 L 334.88 -39.48 Z M 356.16 -39.48 L 383.54 -39.48 L 383.54 -35.34 L 372.4 -35.34 L 372.4 0 L 367.3 0 L 367.3 -35.34 L 356.16 -35.34 L 356.16 -39.48 Z M 426.22 0 L 422.91 -9.13 L 405.55 -9.13 L 402.25 0 L 396.76 0 L 411.38 -38.75 L 417.14 -38.75 L 431.7 0 L 426.22 0 Z M 407.01 -13.1 L 421.46 -13.1 L 414.23 -33.04 L 407.01 -13.1 Z M 453.15 -39.48 L 453.15 -3.98 L 467.15 -3.98 L 467.15 0 L 448.06 0 L 448.06 -39.48 L 453.15 -39.48 Z" stroke-linecap="round" />
</g>
</g>
</g>
</svg>